<?xml version="1.0" standalone="no"?>
<!DOCTYPE svg PUBLIC "-//W3C//DTD SVG 1.1//EN" "http://www.w3.org/Graphics/SVG/1.1/DTD/svg11.dtd" >
<svg>
<metadata>
Created by FontForge 20090914 at Fri Aug  2 05:40:14 2019
 By www-data
(URW)++,Copyright 2010 by (URW)++ Design &#38; Development
</metadata>
<defs>
<font id="Wuerth-Book" horiz-adv-x="1365" vert-adv-y="2048" >
  <font-face 
    font-family="Wuerth Book"
    font-weight="300"
    font-stretch="normal"
    units-per-em="2048"
    panose-1="0 0 0 0 0 0 0 0 0 0"
    ascent="1569"
    descent="-479"
    x-height="851"
    cap-height="1365"
    bbox="-304 -512.001 2188 2075"
    underline-thickness="141"
    underline-position="-133"
    unicode-range="U+0020-U+FB04"
  />
<missing-glyph horiz-adv-x="512" vert-adv-y="2457" 
d="M51 0v1365h410v-1365h-410zM410 51v1263h-308v-1263h308z" />
    <glyph glyph-name=".notdef" horiz-adv-x="512" vert-adv-y="2457" 
d="M51 0v1365h410v-1365h-410zM410 51v1263h-308v-1263h308z" />
    <glyph glyph-name="space" unicode=" " horiz-adv-x="512" vert-adv-y="2457" 
 />
    <glyph glyph-name="exclam" unicode="!" horiz-adv-x="571" vert-adv-y="2457" 
d="M285 182c28 0 52 -9.66699 72 -29c19.333 -20 29 -43.667 29 -71c0 -28.667 -9.66699 -52.667 -29 -72c-20 -20 -44 -30 -72 -30s-51.667 10 -71 30c-20 20 -30 44 -30 72c0 27.333 10 51 30 71c19.333 19.333 43 29 71 29zM210 277v1088h149v-1088h-149z" />
    <glyph glyph-name="quotedbl" unicode="&#x22;" horiz-adv-x="625" vert-adv-y="2457" 
d="M222 816h-111l-27 549h165zM514 816h-111l-27 549h165z" />
    <glyph glyph-name="numbersign" unicode="#" horiz-adv-x="1180" vert-adv-y="2457" 
d="M1119 965v-123h-225l-35 -286h210v-123h-226l-54 -438l-128 18l52 420h-290l-55 -438l-128 18l53 420h-218v123h234l35 286h-218v123h233l51 411l128 -18l-49 -393h288l51 411l128 -18l-49 -393h212zM762 842h-288l-35 -286h288z" />
    <glyph glyph-name="dollar" unicode="$" horiz-adv-x="1133" vert-adv-y="2457" 
d="M654 1377c122.667 -18 217.999 -86.9961 285.999 -206.996l-119 -78c-33.333 52.667 -64.666 89 -93.999 109c-22 14.667 -46.333 25 -73 31v-448c76 -33.333 136.667 -65.333 182 -96c102.667 -68.667 154 -165.334 154 -290.001c0 -108 -36.667 -201.667 -110 -281
c-58.667 -63.333 -134 -105.333 -226 -126v-199h-120v190c-98 5.33301 -182.667 39.666 -254 102.999c-67.333 58.667 -113 140.667 -137 246l146 41c10.667 -46 22 -81 34 -105c28 -55.333 74 -97 138 -125c20 -8.66699 44.333 -14.334 73 -17.001v552
c-78 32.667 -140 65.667 -186 99c-90 65.333 -135 151 -135 257c0 143.333 67.667 246.666 203 309.999c34 16 73.333 27.667 118 35v185h120v-186zM653.999 622.004l0.000976562 -485.001c45.333 17.333 81.333 40 108 68c50 52.667 75 114.334 75 185.001
c0 76.667 -37.333 140.667 -112 192c-18.667 12.667 -42.334 26 -71.001 40zM534 837.003l0.000976562 397c-23.333 -5.33301 -42 -11.666 -56 -18.999c-34.667 -18 -62.334 -44.667 -83.001 -80c-19.333 -32.667 -29 -67.334 -29 -104.001c0 -78 56 -142.667 168 -194z" />
    <glyph glyph-name="percent" unicode="%" horiz-adv-x="1443" vert-adv-y="2457" 
d="M361 1379c95.333 0 173 -35.334 233 -106.001c48 -56.667 72 -120.667 72 -192c0 -84 -31.333 -156 -94 -216c-57.333 -54.667 -128.333 -82 -213 -82c-94 0 -171 35.333 -231 106c-47.333 56.667 -71 122.334 -71 197.001c0 80 31.333 150 94 210
c56.667 55.333 126.667 83 210 83zM360 1266c-50.667 0 -93.666 -18 -128.999 -54c-36 -36 -54 -78.667 -54 -128c0 -51.333 18 -95.333 54 -132c35.333 -36 78.666 -54 129.999 -54c50.667 0 93.667 18 129 54c36 36 54 79.333 54 130c0 52 -18 95.333 -54 130
c-36.667 36 -80 54 -130 54zM1078 1392l80 -44l-795 -1374l-79 46zM1081 581.999c95.333 0 173 -35.667 233 -107c47.333 -56 71 -119.667 71 -191c0 -84 -31 -155.667 -93 -215c-57.333 -55.333 -128.333 -83 -213 -83c-94 0 -170.667 35.333 -230 106
c-47.333 56.667 -71 122 -71 196c0 80 31 150.333 93 211c56.667 55.333 126.667 83 210 83zM1081 468.999c-50.667 0 -93.666 -18 -128.999 -54c-36 -36 -54 -78.667 -54 -128c0 -51.333 18 -95.333 54 -132c35.333 -36 78.666 -54 129.999 -54c50.667 0 93.667 18 129 54
c36 36 54 79.333 54 130c0 52 -18 95.333 -54 130c-36.667 36 -80 54 -130 54z" />
    <glyph glyph-name="ampersand" unicode="&#x26;" horiz-adv-x="1253" vert-adv-y="2457" 
d="M649 778l285.998 -367.002c50 52 101.667 112 155 180l110 -92c-50 -67.333 -108 -134.666 -174 -201.999l232 -297h-191l-148 190c-44 -40 -85.333 -73.667 -124 -101c-107.333 -76.667 -212.333 -115 -315 -115c-121.333 0 -221 43.667 -299 131
c-64 71.333 -96 154.333 -96 249c0 126 61.333 238 184 336c29.333 24 85 63 167 117c-27.333 36 -50.666 70 -69.999 102c-43.333 68.667 -65 132 -65 190c0 84 29.667 154.333 89 211c54 52 123.667 78 209 78c88.667 0 160.334 -29 215.001 -87
c50 -53.333 75 -116 75 -188c0 -79.333 -34.667 -153.666 -104 -222.999c-26.667 -26.667 -72 -64 -136 -112zM525.998 694.998l-20.001 -13c-86 -58 -144.333 -101 -175 -129c-64.667 -58.667 -97 -122.667 -97 -192c0 -74.667 30 -138 90 -190
c44.667 -38.667 96 -58 154 -58c94.667 0 211.334 63.667 350.001 191zM560.997 888.998c50 36.667 85.666 64 106.999 82c50.667 42 76 90.333 76 145c0 44 -15.333 78.667 -46 104c-30 24.667 -64 37 -102 37c-47.333 0 -85.666 -17.667 -114.999 -53
c-23.333 -28 -35 -60.333 -35 -97c0 -41.333 18 -86.333 54 -135z" />
    <glyph glyph-name="quotesingle" unicode="'" horiz-adv-x="333" vert-adv-y="2457" 
d="M222 816h-111l-27 549h165z" />
    <glyph glyph-name="parenleft" unicode="(" horiz-adv-x="601" vert-adv-y="2457" 
d="M342 1502l130 -60.001c-102.667 -262 -154 -553.667 -154 -875c0 -322 51.333 -614 154 -876l-130 -60c-46.667 100 -83.667 217 -111 351c-40 198.667 -60 393.667 -60 585c0 190.667 20 385.334 60 584.001c27.333 134 64.333 251 111 351z" />
    <glyph glyph-name="parenright" unicode=")" horiz-adv-x="601" vert-adv-y="2457" 
d="M260 -369l-130 60c102.667 262.667 154 554.334 154 875.001c0 321.333 -51.333 613.333 -154 876l130 60c46.667 -99.333 83.667 -216.333 111 -351c40 -198.667 60 -393.667 60 -585c0 -190.667 -20 -385.334 -60 -584.001
c-27.333 -134.667 -64.333 -251.667 -111 -351z" />
    <glyph glyph-name="asterisk" unicode="*" horiz-adv-x="1112" vert-adv-y="2457" 
d="M498 1239l-11 255h137l-11 -254l239 88l43 -130l-246 -68l158 -200l-110 -80l-141 212l-141 -212l-111 80l158 200l-245 68l42 130z" />
    <glyph glyph-name="plus" unicode="+" horiz-adv-x="1139" vert-adv-y="2457" 
d="M88 633v126h419v412h126v-412h419v-126h-419v-412h-126v412h-419z" />
    <glyph glyph-name="comma" unicode="," horiz-adv-x="464" vert-adv-y="2457" 
d="M218 200l133 -49l-205 -462l-98 39z" />
    <glyph glyph-name="hyphen" unicode="-" horiz-adv-x="371" vert-adv-y="2457" 
d="M0 502h371v-131h-371v131z" />
    <glyph glyph-name="period" unicode="." horiz-adv-x="465" vert-adv-y="2457" 
d="M232 182c28 0 52 -9.66699 72 -29c19.333 -20 29 -44 29 -72s-9.66699 -52 -29 -72c-20 -19.333 -44 -29 -72 -29s-51.667 10 -71 30c-20 20 -30 44 -30 72c0 27.333 10 51 30 71c19.333 19.333 43 29 71 29z" />
    <glyph glyph-name="slash" unicode="/" horiz-adv-x="994" vert-adv-y="2457" 
d="M864 1502l118 -55l-893 -1816l-118 55z" />
    <glyph glyph-name="zero" unicode="0" horiz-adv-x="1133" vert-adv-y="2457" 
d="M569 1385c96.667 0 185.999 -37.332 267.999 -111.999c78 -70.667 135.667 -163.667 173 -279c30 -94.667 45 -197.667 45 -309c0 -197.333 -45 -363.333 -135 -498c-42.667 -63.333 -97 -114.666 -163 -153.999c-61.333 -36.667 -124.666 -55 -189.999 -55
c-97.333 0 -188.333 39 -273 117c-73.333 67.333 -128.666 157 -165.999 269c-32.667 97.333 -49 205.333 -49 324c0 129.333 22.333 248.666 67 357.999c44 109.333 106.667 194.666 188 255.999c73.333 55.333 151.666 83 234.999 83zM565.999 1246
c-95.333 0 -173.334 -50.334 -234.001 -151.001c-69.333 -115.333 -104 -251.666 -104 -408.999c0 -158.667 32.667 -294.667 98 -408c61.333 -106 142 -159 242 -159c94 0 171.667 51.333 233 154c69.333 116 104 252 104 408s-31.667 289.333 -95 400
c-63.333 110 -144.666 165 -243.999 165z" />
    <glyph glyph-name="one" unicode="1" horiz-adv-x="1133" vert-adv-y="2457" 
d="M528 1223h-226l80 142h299v-1365h-153v1223z" />
    <glyph glyph-name="two" unicode="2" horiz-adv-x="1133" vert-adv-y="2457" 
d="M399 142l572.999 0.000976562v-142h-882l496 575c63.333 73.333 116 139.666 158 198.999c52.667 76 79 146 79 210c0 80.667 -31 146.334 -93 197.001c-52 43.333 -112.333 65 -181 65c-64 0 -120.667 -19 -170 -57c-48 -36 -78.667 -85.333 -92 -148
c-4 -16.667 -7.33301 -41.334 -10 -74.001h-153c9.33301 100.667 32.333 178.667 69 234c36 55.333 83.667 99.333 143 132c64.667 34.667 135.334 52 212.001 52c122 0 224.667 -41 308 -123c78 -76.667 117 -170 117 -280c0 -96.667 -36.333 -194.667 -109 -294
c-42 -58 -103.667 -133.667 -185 -227z" />
    <glyph glyph-name="three" unicode="3" horiz-adv-x="1133" vert-adv-y="2457" 
d="M507 649l-0.00488281 133.001c70.667 2 124.667 13.333 162 34c35.333 20 63 49.667 83 89c17.333 33.333 26 70 26 110c0 72.667 -25.667 131.667 -77 177c-41.333 36.667 -94 55 -158 55c-85.333 0 -147.666 -29.333 -186.999 -88c-18 -26 -32.333 -69.667 -43 -131
h-150c13.333 85.333 34.333 152 63 200c31.333 52 75.333 91.333 132 118s118.334 40 185.001 40c118.667 0 213 -37 283 -111c68 -72 102 -157.333 102 -256c0 -80.667 -23 -151.667 -69 -213c-26 -34.667 -61.333 -64.334 -106 -89.001
c44.667 -21.333 81.334 -49.333 110.001 -84c56.667 -68.667 85 -150.667 85 -246c0 -130 -46.667 -233.333 -140 -310c-80 -66 -174.333 -99 -283 -99c-102.667 0 -191.667 29.333 -267 88c-61.333 48 -102.333 109 -123 183c-7.33301 26 -12.333 61 -15 105h147
c8.66699 -58.667 24.667 -103 48 -133c24 -32.667 58 -58.667 102 -78c36.667 -16 74.334 -24 113.001 -24c79.333 0 146 29.667 200 89c45.333 50 68 111.667 68 185c0 70 -21.333 128.667 -64 176c-38 42 -90.333 67.333 -157 76c-15.333 2 -38.666 3.33301 -69.999 4z
" />
    <glyph glyph-name="four" unicode="4" horiz-adv-x="1133" vert-adv-y="2457" 
d="M877 362h168v-138h-168v-224h-152v224h-700l852 1217v-1079zM725 362v617l-433 -617h433z" />
    <glyph glyph-name="five" unicode="5" horiz-adv-x="1133" vert-adv-y="2457" 
d="M963 1223l-437.002 0.000976562l-89 -292c27.333 5.33301 53 8 77 8c74.667 0 142 -14.333 202 -43c78.667 -37.333 140.667 -94.333 186 -171c47.333 -78.667 71 -165 71 -259c0 -152 -55 -275 -165 -369c-93.333 -79.333 -205.333 -119 -336 -119
c-179.333 0 -318.666 81 -417.999 243l121 86c78.667 -125.333 181.334 -188 308.001 -188c105.333 0 191 39 257 117c55.333 64.667 83 140.667 83 228c0 103.333 -37 188.666 -111 255.999c-62.667 56 -138 84 -226 84c-78 0 -166 -31 -264 -93l198 654h543v-142z" />
    <glyph glyph-name="six" unicode="6" horiz-adv-x="1133" vert-adv-y="2457" 
d="M674 1399l114 -85.999l-315 -437c44.667 12.667 87 19 127 19c116 0 214.333 -39.333 295 -118c94.667 -92.667 142 -203.334 142 -332.001c0 -78.667 -19.667 -153.667 -59 -225c-43.333 -78 -102.333 -138.333 -177 -181c-70.667 -40.667 -148.334 -61 -233.001 -61
c-137.333 0 -252.666 49.667 -345.999 149c-84 89.333 -126 193.333 -126 312c0 106 37.333 211 112 315zM566 760.001c-88 0 -163.332 -31.3311 -225.999 -93.998s-94 -138 -94 -226c0 -88.667 31.333 -164.334 94 -227.001c62 -62.667 137.667 -94 227 -94
s164.666 31.333 225.999 94c62.667 63.333 94 137.666 94 222.999c0 92 -31.333 168.667 -94 230c-63.333 62.667 -139 94 -227 94z" />
    <glyph glyph-name="seven" unicode="7" horiz-adv-x="1133" vert-adv-y="2457" 
d="M882 1223h-745v142h1005l-915 -1397l-119 80z" />
    <glyph glyph-name="eight" unicode="8" horiz-adv-x="1133" vert-adv-y="2457" 
d="M364 710c-40 24 -72.333 52.3359 -97 85.0029c-47.333 63.333 -71 135 -71 215c0 107.333 38.667 198.333 116 273c70 68 159 102 267 102c118.667 0 214.667 -41.333 288 -124c62.667 -70.667 94 -154 94 -250c0 -79.333 -25.667 -152 -77 -218
c-27.333 -34.667 -58.666 -62.334 -93.999 -83.001c42.667 -20.667 78.667 -47.667 108 -81c60 -69.333 90 -152 90 -248c0 -124 -44 -224.667 -132 -302c-76 -67.333 -168.667 -101 -278 -101c-80 0 -154 19.333 -222 58c-68.667 38.667 -120.334 92.667 -155.001 162
c-26.667 53.333 -40 112.666 -40 177.999c0 153.333 67.667 264.666 203 333.999zM578 1246c-66 0 -121.667 -23 -167 -69c-46.667 -47.333 -70 -102.333 -70 -165c0 -67.333 23.333 -124.333 70 -171c45.333 -46.667 101 -70 167 -70s122 23.333 168 70
c46 46 69 102 69 168c0 66.667 -23 122.667 -69 168c-47.333 46 -103.333 69 -168 69zM574 641.003c-72.667 0 -134.666 -25.333 -185.999 -76c-51.333 -51.333 -77 -111.666 -77 -180.999c0 -74 25.667 -136.667 77 -188s113.666 -77 186.999 -77
c72.667 0 134.667 25.667 186 77c51.333 50.667 77 112 77 184c0 73.333 -25.667 134.666 -77 183.999c-52.667 51.333 -115 77 -187 77z" />
    <glyph glyph-name="nine" unicode="9" horiz-adv-x="1133" vert-adv-y="2457" 
d="M460 -33l-113.998 85.001l315 437c-44.667 -12 -86.334 -18 -125.001 -18c-117.333 0 -216.333 39.333 -297 118c-94.667 92 -142 202.333 -142 331c0 78.667 19.667 153.334 59 224.001c43.333 77.333 102.666 137.666 177.999 180.999c70.667 40 148 60 232 60
c138 0 253.333 -49.333 346 -148c84.667 -89.333 127 -193 127 -311c0 -104.667 -38 -209.334 -114 -314.001zM567.002 1246c-88.667 0 -164.001 -31.333 -226.001 -94c-62.667 -62.667 -94 -136.667 -94 -222c0 -90 31.333 -166.667 94 -230
c62 -62.667 137.667 -94 227 -94c88.667 0 164.334 31.333 227.001 94s94 138 94 226c0 90 -31.333 165.333 -94 226c-64 62.667 -140 94 -228 94z" />
    <glyph glyph-name="colon" unicode=":" horiz-adv-x="465" vert-adv-y="2457" 
d="M232 182c28 0 52 -9.66699 72 -29c19.333 -20 29 -44 29 -72s-9.66699 -52 -29 -72c-20 -19.333 -44 -29 -72 -29s-51.667 10 -71 30c-20 20 -30 44 -30 72c0 27.333 10 51 30 71c19.333 19.333 43 29 71 29zM231 870c28 0 52 -9.66602 72 -28.999
c19.333 -20 29 -43.667 29 -71c0 -28 -9.66699 -52 -29 -72c-20 -19.333 -43.667 -29 -71 -29c-28 0 -52 10 -72 30c-19.333 19.333 -29 43.333 -29 72c0 27.333 9.66699 50.666 29 69.999c20 19.333 43.667 29 71 29z" />
    <glyph glyph-name="semicolon" unicode=";" horiz-adv-x="464" vert-adv-y="2457" 
d="M218 200l134 -49l-206 -462l-98 39zM265 870c27.333 0 51 -9.66602 71 -28.999c19.333 -19.333 29 -43 29 -71s-9.66699 -51.667 -29 -71c-20 -20 -43.667 -30 -71 -30c-28.667 0 -52.667 10 -72 30c-19.333 19.333 -29 43.333 -29 72c0 27.333 9.66699 50.666 29 69.999
c20 19.333 44 29 72 29z" />
    <glyph glyph-name="less" unicode="&#x3c;" horiz-adv-x="1024" vert-adv-y="2457" 
d="M955 1173v-153l-723 -330l723 -331v-153l-887 418v133z" />
    <glyph glyph-name="equal" unicode="=" horiz-adv-x="1139" vert-adv-y="2457" 
d="M87 764v119h964v-119h-964zM87 509v119h964v-119h-964z" />
    <glyph glyph-name="greater" unicode="&#x3e;" horiz-adv-x="1024" vert-adv-y="2457" 
d="M69 206v153l723 331l-723 330v153l887 -417v-133z" />
    <glyph glyph-name="question" unicode="?" horiz-adv-x="893" vert-adv-y="2457" 
d="M592 586l145.998 0.000976562c-1.33301 -70 -14.333 -126.333 -39 -169c-27.333 -48 -65.666 -84.667 -114.999 -110c-43.333 -22.667 -90.333 -34 -141 -34c-88.667 0 -161 31 -217 93c-50.667 56 -76 123 -76 201c0 81.333 28.667 147 86 197
c34.667 30 88.667 56.667 162 80c68 22 109 36.333 123 43c71.333 33.333 107 88.666 107 165.999c0 56.667 -18 102 -54 136c-36.667 34.667 -80.667 52 -132 52c-56.667 0 -102.667 -20.333 -138 -61c-28 -32 -42 -71 -42 -117c0 -21.333 4 -50.333 12 -87h-150
c-5.33301 39.333 -8 71 -8 95c0 96 36.667 174 110 234c61.333 50.667 134.333 76 219 76c104.667 0 189 -36.667 253 -110c52.667 -60 79 -132.667 79 -218c0 -74 -21 -140 -63 -198c-34 -47.333 -86.667 -84.333 -158 -111c-18.667 -6.66699 -58.667 -18.667 -120 -36
c-51.333 -14.667 -86.666 -34 -105.999 -58c-22 -27.333 -33 -58.333 -33 -93c0 -42.667 16 -78.667 48 -108c27.333 -25.333 60.333 -38 99 -38c60.667 0 103 25.333 127 76c10.667 22 17.667 55 21 99zM445.998 182.001c28 0 52 -9.66699 72 -29c19.333 -20 29 -44 29 -72
s-9.66699 -51.667 -29 -71c-20 -20 -44 -30 -72 -30s-51.667 10 -71 30c-20 20 -30 44 -30 72c0 27.333 10 51 30 71c19.333 19.333 43 29 71 29z" />
    <glyph glyph-name="at" unicode="@" horiz-adv-x="1429" vert-adv-y="2457" 
d="M1089 1040l-55.002 -464c-4.66699 -36.667 -7 -67.667 -7 -93c0 -44 18.333 -66 55 -66c18.667 0 36 5.66699 52 17c34.667 24.667 62.334 58 83.001 100c35.333 72.667 53 150.334 53 233.001c0 152 -51.333 273.667 -154 365
c-100.667 89.333 -225.334 134 -374.001 134c-163.333 0 -301 -56.667 -413 -170c-110 -112 -165 -249.333 -165 -412c0 -154.667 49.333 -286.667 148 -396c110.667 -124 263.334 -186 458.001 -186c141.333 0 277 30.667 407 92l42 20l44 -120
c-161.333 -78.667 -324.666 -118 -489.999 -118c-154.667 0 -287.667 32 -399 96c-102 59.333 -183.667 141 -245 245c-65.333 111.333 -98 233.666 -98 366.999c0 131.333 31.667 251.333 95 360c60 102 142 183.667 246 245c112.667 66.667 236.334 100 371.001 100
c132.667 0 252.334 -32 359.001 -96c90.667 -54 161 -124.333 211 -211c53.333 -91.333 80 -192.333 80 -303c0 -106 -24 -205.667 -72 -299c-38.667 -76 -87 -129.667 -145 -161c-38 -20.667 -75.667 -31 -113 -31c-72.667 0 -122 40 -148 120
c-32 -35.333 -60.333 -61 -85 -77c-48 -31.333 -103 -47 -165 -47c-99.333 0 -181.333 35 -246 105c-65.333 70.667 -98 159.667 -98 267c0 122.667 41 222.667 123 300c71.333 67.333 157.666 101 258.999 101c99.333 0 179.666 -38.667 240.999 -116l11 99h134z
M714.998 924c-66 0 -122 -25 -168 -75c-47.333 -51.333 -71 -117.333 -71 -198c0 -68 18.333 -123.667 55 -167c37.333 -44.667 84.333 -67 141 -67c66.667 0 123.667 29 171 87c48.667 59.333 73 127.333 73 204c0 65.333 -19.333 117.333 -58 156
c-39.333 40 -87 60 -143 60z" />
    <glyph glyph-name="A" unicode="A" horiz-adv-x="1242" vert-adv-y="2457" 
d="M914 386h-583l-165 -386h-166l629 1430l613 -1430h-167zM854 528l-228 547l-233 -547h461z" />
    <glyph glyph-name="B" unicode="B" horiz-adv-x="1056" vert-adv-y="2457" 
d="M164 0v1365h247c96 0 170.667 -11.333 224 -34c72.667 -30 128.334 -80.667 167.001 -152c30.667 -56.667 46 -117.334 46 -182.001c0 -81.333 -21.333 -148.666 -64 -201.999c-14 -17.333 -37.667 -39.333 -71 -66c58 -17.333 104.667 -41.666 140 -72.999
s63.666 -71.666 84.999 -120.999s32 -100.666 32 -153.999c0 -116.667 -46 -212.334 -138 -287.001c-46.667 -37.333 -94 -62 -142 -74c-51.333 -13.333 -113 -20 -185 -20h-341zM317 762.998h115.001c65.333 0 112.666 6.33301 141.999 19c45.333 20 79 53 101 99
c16 32.667 24 69.667 24 111c0 78 -24.333 137.667 -73 179c-40 34.667 -103.333 52 -190 52h-119v-460zM317.001 141.998h174.002c77.333 0 134.666 7.33301 171.999 22c54 22 95 56.667 123 104c20.667 36 31 75.667 31 119c0 57.333 -17.667 108 -53 152
c-36 44.667 -88 73 -156 85c-32.667 6 -78.334 9 -137.001 9h-154v-491z" />
    <glyph glyph-name="C" unicode="C" horiz-adv-x="1293" vert-adv-y="2457" 
d="M1204 1253l-0.000976562 -188.997c-58 55.333 -112 95.333 -162 120c-82 40.667 -165.667 61 -251 61c-97.333 0 -189 -26 -275 -78c-93.333 -56 -164.666 -132.667 -213.999 -230c-41.333 -81.333 -62 -168.333 -62 -261c0 -169.333 62.667 -308 188 -416
c108.667 -94.667 230 -142 364 -142c100.667 0 197.667 28 291 84c34 20 74.333 51.667 121 95v-189c-129.333 -88.667 -266.333 -133 -411 -133c-114.667 0 -223.667 27.333 -327 82c-131.333 69.333 -231.333 168.666 -300 297.999
c-53.333 101.333 -80 208.666 -80 321.999c0 117.333 28.333 228.666 85 333.999c64.667 120.667 155.667 214.667 273 282c110 63.333 229 95 357 95c98.667 0 191.667 -20 279 -60c34.667 -16.667 76 -41.667 124 -75z" />
    <glyph glyph-name="D" unicode="D" horiz-adv-x="1267" vert-adv-y="2457" 
d="M164 0v1365h280c142 0 259 -20.667 351 -62c134.667 -61.333 236.667 -157 306 -287c53.333 -98.667 80 -209.667 80 -333c0 -218 -80 -393 -240 -525c-82 -68.667 -169.667 -113.667 -263 -135c-68 -15.333 -146.667 -23 -236 -23h-278zM317 142h133.001
c161.333 0 291.666 41.667 390.999 125c124 104 186 242.333 186 415c0 116 -30 219.667 -90 311c-102 153.333 -264.333 230 -487 230h-133v-1081z" />
    <glyph glyph-name="E" unicode="E" horiz-adv-x="960" vert-adv-y="2457" 
d="M871 1223h-554v-405h539v-142h-539v-534h554v-142h-707v1365h707v-142z" />
    <glyph glyph-name="F" unicode="F" horiz-adv-x="860" vert-adv-y="2457" 
d="M785 1223h-468v-405h453v-142h-453v-676h-153v1365h621v-142z" />
    <glyph glyph-name="G" unicode="G" horiz-adv-x="1519" vert-adv-y="2457" 
d="M864 685l569.004 0.00390625c0 -104 -6.33301 -184 -19 -240c-29.333 -136 -105 -248.667 -227 -338c-119.333 -88 -253 -132 -401 -132c-120.667 0 -234.667 30.333 -342 91c-120.667 68.667 -213.334 164 -278.001 286c-54 102 -81 211 -81 327
c0 135.333 35.667 260.333 107 375c67.333 108 157.666 191.667 270.999 251c104.667 55.333 216.667 83 336 83c157.333 0 296.666 -46.333 417.999 -139c45.333 -34.667 97.666 -87.334 156.999 -158.001l-112 -102c-46.667 61.333 -89.667 107.666 -129 138.999
c-97.333 78 -208.666 117 -333.999 117c-92 0 -179 -22 -261 -66c-95.333 -50.667 -169.666 -122.334 -222.999 -215.001c-50.667 -87.333 -76 -183 -76 -287c0 -162 58.667 -297.333 176 -406c110.667 -102 235 -153 373 -153c121.333 0 230.666 39.667 327.999 119
c79.333 65.333 127.666 145 144.999 239c3.33301 17.333 6 39.666 8 66.999h-405v142z" />
    <glyph glyph-name="H" unicode="H" horiz-adv-x="1331" vert-adv-y="2457" 
d="M317 810h698v555h153v-1365h-153v668h-698v-668h-153v1365h153v-555z" />
    <glyph glyph-name="I" unicode="I" horiz-adv-x="481" vert-adv-y="2457" 
d="M317 1365v-1365h-153v1365h153z" />
    <glyph glyph-name="J" unicode="J" horiz-adv-x="602" vert-adv-y="2457" 
d="M438 1365l0.000976562 -1103c0 -89.333 -7.66699 -157 -23 -203c-26 -77.333 -73.333 -133.333 -142 -168c-42 -22 -87.333 -33 -136 -33c-80.667 0 -162.667 34 -246 102l85 117c22.667 -20.667 41 -35.334 55 -44.001c32 -21.333 66.333 -32 103 -32
c53.333 0 93.666 23.333 120.999 70c20 35.333 30 99 30 191v1103h153z" />
    <glyph glyph-name="K" unicode="K" horiz-adv-x="1137" vert-adv-y="2457" 
d="M317 779l582 586h204l-640 -636l661 -729h-209l-559 626l-39 -38v-588h-153v1365h153v-586z" />
    <glyph glyph-name="L" unicode="L" horiz-adv-x="706" vert-adv-y="2457" 
d="M317 1365v-1223h375v-142h-528v1365h153z" />
    <glyph glyph-name="M" unicode="M" horiz-adv-x="1739" vert-adv-y="2457" 
d="M116 0l226 1443l524 -1154l536 1154l212 -1443h-156l-128 950l-465 -1007l-459 1007l-134 -950h-156z" />
    <glyph glyph-name="N" unicode="N" horiz-adv-x="1544" vert-adv-y="2457" 
d="M164 0v1422l1064 -1114v1057h153v-1427l-1064 1114v-1052h-153z" />
    <glyph glyph-name="O" unicode="O" horiz-adv-x="1593" vert-adv-y="2457" 
d="M798 1388c126 0 242.335 -31.332 349.002 -93.999c112 -64.667 200 -151.334 264 -260.001c64 -109.333 96 -227 96 -353s-32.333 -244 -97 -354c-62 -105.333 -146 -189.333 -252 -252c-112.667 -66.667 -235.334 -100 -368.001 -100c-120 0 -235.667 31.333 -347 94
c-117.333 67.333 -207.333 157.666 -270 270.999c-58 104.667 -87 221.334 -87 350.001c0 194 75 361.667 225 503c74.667 70.667 160.667 122.667 258 156c77.333 26 153.666 39 228.999 39zM797.002 1245c-169.333 0 -309.667 -65.001 -421 -195.001
c-90.667 -105.333 -136 -225.666 -136 -360.999c0 -168 58 -306.667 174 -416c60 -56 128.333 -97.667 205 -125c58 -20 115.667 -30 173 -30c103.333 0 199.666 27 288.999 81c88 52 155.667 121.667 203 209c46 84 69 175 69 273c0 159.333 -56.667 295 -170 407
c-59.333 58 -127.666 100 -204.999 126c-60.667 20.667 -121 31 -181 31z" />
    <glyph glyph-name="P" unicode="P" horiz-adv-x="909" vert-adv-y="2457" 
d="M317 598v-598.002h-153v1365h248c108.667 0 191.667 -12.333 249 -37c82.667 -35.333 143.667 -93.666 183 -174.999c25.333 -53.333 38 -110.666 38 -171.999c0 -74 -18 -142 -54 -204c-69.333 -119.333 -195.333 -179 -378 -179h-133zM317 736.998
l124.001 -0.000976562c96 0 168.667 22.333 218 67c48.667 44.667 73 104.334 73 179.001c0 77.333 -25 137 -75 179c-48.667 40.667 -124.334 61 -227.001 61h-113v-486z" />
    <glyph glyph-name="Q" unicode="Q" horiz-adv-x="1596" vert-adv-y="2457" 
d="M1515 -14l-193.998 0.000976562l-115 123c-123.333 -89.333 -261 -134 -413 -134c-124 0 -241.333 31.667 -352 95c-116.667 66.667 -206.334 156.667 -269.001 270c-57.333 103.333 -86 216 -86 338c0 120.667 28.333 233 85 337
c59.333 109.333 142.666 197.666 249.999 264.999c116.667 72 242 108 376 108c123.333 0 240.333 -31.667 351 -95c117.333 -67.333 208 -159 272 -275c58 -106 87 -220.667 87 -344c0 -130 -33.333 -248.667 -100 -356c-22.667 -36 -54.667 -77.333 -96 -124z
M970.002 549.001l233.996 -245.998c47.333 52.667 81.333 101.667 102 147c31.333 69.333 47 145 47 227c0 160.667 -54.333 295.667 -163 405c-109.333 108.667 -240.666 163 -393.999 163c-109.333 0 -209.666 -29.333 -300.999 -88
c-81.333 -52.667 -144.666 -121.667 -189.999 -207c-43.333 -82.667 -65 -173.334 -65 -272.001c0 -162.667 57 -297.334 171 -404.001c110.667 -103.333 237.334 -155 380.001 -155c114 0 216.667 32.667 308 98l-329 332h200z" />
    <glyph glyph-name="R" unicode="R" horiz-adv-x="1001" vert-adv-y="2457" 
d="M520 611l434 -610.999h-186l-412 599h-39v-599h-153v1365h221c96 0 171.333 -8.66699 226 -26c88 -28 153.667 -78.333 197 -151c36.667 -60.667 55 -129.334 55 -206.001c0 -133.333 -49.333 -234.333 -148 -303c-56.667 -39.333 -121.667 -62 -195 -68zM317 733.001
h94.999c92.667 0 163.334 18.333 212.001 55c59.333 45.333 89 110 89 194c0 89.333 -33 155 -99 197c-47.333 29.333 -116 44 -206 44h-91v-490z" />
    <glyph glyph-name="S" unicode="S" horiz-adv-x="1032" vert-adv-y="2457" 
d="M893 1175l-119.996 -79.0039c-26.667 42 -50.334 72 -71.001 90c-43.333 39.333 -97.666 59 -162.999 59c-70 0 -126 -22.667 -168 -68c-38.667 -41.333 -58 -89 -58 -143c0 -59.333 28.333 -108.333 85 -147c33.333 -22 69 -41.333 107 -58l130 -57
c111.333 -49.333 189.333 -101.666 234 -156.999c50 -61.333 75 -134.666 75 -219.999c0 -126.667 -47.667 -231.667 -143 -315c-80.667 -70 -177.667 -105 -291 -105c-143.333 0 -256.333 55 -339 165c-36.667 48.667 -64 111.334 -82 188.001l148 41
c13.333 -62 31.666 -109 54.999 -141c24 -33.333 55.333 -59.666 94 -78.999c40.667 -20.667 84 -31 130 -31c78.667 0 144.667 27.667 198 83c50.667 52 76 114 76 186c0 82 -37.667 146.667 -113 194c-34.667 22 -115.334 61.333 -242.001 118
c-100.667 46 -171.334 94.667 -212.001 146c-42.667 54 -64 117.667 -64 191c0 115.333 45.333 206.333 136 273c72 52.667 154 79 246 79c153.333 0 270.666 -71 351.999 -213z" />
    <glyph glyph-name="T" unicode="T" horiz-adv-x="842" vert-adv-y="2457" 
d="M497 1223v-1223h-153v1223h-330v142h815v-142h-332z" />
    <glyph glyph-name="U" unicode="U" horiz-adv-x="1301" vert-adv-y="2457" 
d="M317 1365l0.000976562 -836c0 -86 5 -148.333 15 -187c17.333 -68 57 -122.667 119 -164c60.667 -40 127 -60 199 -60c84 0 159 26 225 78c54 43.333 87.333 101 100 173c6 34.667 9 88 9 160v836h153v-878c0 -94.667 -11.333 -170.334 -34 -227.001
c-37.333 -91.333 -102.333 -163.666 -195 -216.999c-79.333 -45.333 -165.333 -68 -258 -68c-108.667 0 -207.667 31 -297 93c-84.667 59.333 -140.334 135 -167.001 227c-14.667 49.333 -22 113.333 -22 192v878h153z" />
    <glyph glyph-name="V" unicode="V" horiz-adv-x="1108" vert-adv-y="2457" 
d="M167 1365l388 -1041l387 1041h166l-555 -1446l-553 1446h167z" />
    <glyph glyph-name="W" unicode="W" horiz-adv-x="1929" vert-adv-y="2457" 
d="M167 1365l363 -1024l428 1094l404 -1094l401 1024h166l-572 -1436l-402 1092l-431 -1093l-524 1437h167z" />
    <glyph glyph-name="X" unicode="X" horiz-adv-x="1001" vert-adv-y="2457" 
d="M418 706l-368 659h172l283 -514l289 514h175l-377 -659l396 -706h-171l-314 560l-317 -560h-172z" />
    <glyph glyph-name="Y" unicode="Y" horiz-adv-x="1054" vert-adv-y="2457" 
d="M447 587l-447 778h176l348 -609l353 609h177l-454 -778v-587h-153v587z" />
    <glyph glyph-name="Z" unicode="Z" horiz-adv-x="1067" vert-adv-y="2457" 
d="M287 142h726v-142h-979l745 1223h-649v142h902z" />
    <glyph glyph-name="bracketleft" unicode="[" horiz-adv-x="597" vert-adv-y="2457" 
d="M314 1356v-1578h194v-138h-344v1854h344v-138h-194z" />
    <glyph glyph-name="backslash" unicode="\" horiz-adv-x="972" vert-adv-y="2457" 
d="M118 1502l893 -1816l-118 -55l-893 1816z" />
    <glyph glyph-name="bracketright" unicode="]" horiz-adv-x="597" vert-adv-y="2457" 
d="M283 -222v1578h-194v138h344v-1854h-344v138h194z" />
    <glyph glyph-name="asciicircum" unicode="^" horiz-adv-x="1024" vert-adv-y="2457" 
d="M216 745h-166l361 625h202l361 -625h-167l-296 502z" />
    <glyph glyph-name="underscore" unicode="_" horiz-adv-x="1024" vert-adv-y="2457" 
d="M0 -132h1024v-141h-1024v141z" />
    <glyph glyph-name="grave" unicode="`" horiz-adv-x="975" vert-adv-y="2457" 
d="M208 1275l151 68l216 -296l-91 -51z" />
    <glyph glyph-name="a" unicode="a" horiz-adv-x="1051" vert-adv-y="2457" 
d="M774 851l145.999 0.000976562v-851h-146v118c-80 -95.333 -177.667 -143 -293 -143c-126.667 0 -229.667 48.333 -309 145c-67.333 81.333 -101 183.666 -101 306.999c0 143.333 45 256.333 135 339c76.667 70 167.334 105 272.001 105c117.333 0 216 -47 296 -141v121z
M499.999 739.001c-82.667 0 -151.332 -31.667 -205.999 -95c-49.333 -57.333 -74 -128.333 -74 -213c0 -102 29.667 -183.333 89 -244c52 -53.333 115.333 -80 190 -80c91.333 0 164.666 35.333 219.999 106c43.333 55.333 65 126.333 65 213c0 102 -29.667 180.333 -89 235
c-56 52 -121 78 -195 78z" />
    <glyph glyph-name="b" unicode="b" horiz-adv-x="1051" vert-adv-y="2457" 
d="M277 1494l0.000976562 -764.999c80.667 94 179.667 141 297 141c123.333 0 224.666 -46.667 303.999 -140c68 -79.333 102 -180.333 102 -303c0 -142.667 -44.333 -256.334 -133 -341.001c-77.333 -74 -169.333 -111 -276 -111c-118 0 -216 47.667 -294 143v-118h-146
v1494h146zM553.001 738.001c-88 0 -161 -33.666 -219 -100.999c-44.667 -52 -67 -122.667 -67 -212c0 -100.667 29.667 -180.334 89 -239.001c53.333 -52.667 118 -79 194 -79c88.667 0 159.667 34.333 213 103c45.333 59.333 68 129.333 68 210c0 104 -32 186 -96 246
c-51.333 48 -112 72 -182 72z" />
    <glyph glyph-name="c" unicode="c" horiz-adv-x="866" vert-adv-y="2457" 
d="M788 789l-0.000976562 -192c-44.667 50 -83.667 84 -117 102c-47.333 26 -97.666 39 -150.999 39c-90.667 0 -164.667 -33.667 -222 -101c-52 -60 -78 -131.667 -78 -215c0 -87.333 28 -161.666 84 -222.999c56 -60.667 127.333 -91 214 -91c66.667 0 128 19.667 184 59
c24 17.333 54.333 47.333 91 90v-193c-90.667 -59.333 -180.667 -89 -270 -89c-145.333 0 -261.666 53 -348.999 159c-68.667 83.333 -103 178.666 -103 285.999c0 128 45.667 237 137 327c83.333 82 188.666 123 315.999 123c93.333 0 181.333 -27 264 -81z" />
    <glyph glyph-name="d" unicode="d" horiz-adv-x="1051" vert-adv-y="2457" 
d="M774 1494l146 0.000976562v-1494h-146v118c-78 -95.333 -176 -143 -294 -143c-125.333 0 -228 48.333 -308 145c-67.333 81.333 -101 183.666 -101 306.999c0 142 45.333 254.667 136 338c76 70 166 105 270 105c117.333 0 216.333 -47 297 -141v765zM500 738.001
c-82.667 0 -151.333 -31.667 -206 -95c-49.333 -57.333 -74 -128 -74 -212c0 -102 29.667 -183.667 89 -245c52 -52.667 115.667 -79 191 -79c91.333 0 164.333 35 219 105c43.333 56 65 127.333 65 214c0 101.333 -29.667 179.333 -89 234c-55.333 52 -120.333 78 -195 78z
" />
    <glyph glyph-name="e" unicode="e" horiz-adv-x="959" vert-adv-y="2457" 
d="M888 395l-662.999 0.000976562c2.66699 -58 14.667 -107 36 -147c24 -44.667 56.667 -79.334 98 -104.001s86.666 -37 135.999 -37c72 0 132.333 23.667 181 71c23.333 22 50.333 58 81 108l123 -69c-34 -59.333 -69 -105 -105 -137c-78.667 -70 -173.667 -105 -285 -105
c-136 0 -244 49.333 -324 148c-63.333 78.667 -95 177.667 -95 297c0 138 40.333 248.667 121 332c76 78.667 173 118 291 118c106.667 0 197 -33.333 271 -100c89.333 -80 134 -196.333 134 -349v-26zM734.001 518.001c-9.33301 47.333 -25.667 87.001 -49 119.001
c-50 67.333 -116.667 101 -200 101c-87.333 0 -157 -37.667 -209 -113c-20.667 -30.667 -34.667 -66.334 -42 -107.001h500z" />
    <glyph glyph-name="f" unicode="f" horiz-adv-x="494" vert-adv-y="2457" 
d="M290 716v-716h-146v716h-81v135h81v360c0 100 16.667 171.667 50 215c46 60.667 113.667 91 203 91c31.333 0 66.666 -6 105.999 -18v-148c-37.333 14 -69.666 21 -96.999 21c-44.667 0 -75.667 -13.667 -93 -41c-15.333 -24 -23 -75 -23 -153v-327h213v-135h-213z" />
    <glyph glyph-name="g" unicode="g" horiz-adv-x="1052" vert-adv-y="2457" 
d="M922 851l0.000976562 -832c0 -106 -9.33301 -184.333 -28 -235c-32 -88.667 -89.667 -156.334 -173 -203.001c-65.333 -36.667 -139.333 -55 -222 -55c-124.667 0 -224.667 37.667 -300 113c-70.667 70.667 -108 163.334 -112 278.001h145
c5.33301 -62.667 18.333 -110.667 39 -144c23.333 -36 56 -64 98 -84s86.667 -30 134 -30c98 0 170.667 34.667 218 104c36.667 52.667 55 129.667 55 231v124c-83.333 -94 -183.333 -141 -300 -141c-118.667 0 -218 45.667 -298 137c-70.667 81.333 -106 184 -106 308
c0 138 42.667 249.333 128 334c77.333 76.667 171.666 115 282.999 115c118 0 215.667 -47 293 -141v121h146zM500.001 739c-92 0 -165.333 -38 -220 -114c-39.333 -54.667 -59 -121.667 -59 -201c0 -95.333 25.667 -170.333 77 -225c55.333 -60 122 -90 200 -90
c90 0 163.333 35 220 105c43.333 52.667 65 122 65 208c0 106 -30.667 186.667 -92 242c-55.333 50 -119 75 -191 75z" />
    <glyph glyph-name="h" unicode="h" horiz-adv-x="945" vert-adv-y="2457" 
d="M131 1494l145.999 0.000976562v-743c26.667 31.333 51 54.333 73 69c48.667 33.333 105.667 50 171 50c70 0 131.333 -18.667 184 -56c52 -37.333 85 -90 99 -158c6.66699 -32 10 -75 10 -129v-527h-146v517c0 68 -9.33301 118.333 -28 151
c-27.333 46.667 -76.666 70 -147.999 70c-88 0 -148.333 -33.667 -181 -101c-22.667 -46.667 -34 -117.334 -34 -212.001v-425h-146v1494z" />
    <glyph glyph-name="i" unicode="i" horiz-adv-x="409" vert-adv-y="2457" 
d="M277 851v-851h-146v851h146zM205 1275c28.667 0 52.999 -9.99902 72.999 -29.999c20.667 -20.667 31 -45.334 31 -74.001c0 -29.333 -10.333 -54 -31 -74c-20 -20.667 -44.667 -31 -74 -31c-28.667 0 -53 10.333 -73 31c-20.667 20.667 -31 45.667 -31 75
c0 28 10.333 52.333 31 73c20.667 20 45.334 30 74.001 30z" />
    <glyph glyph-name="j" unicode="j" horiz-adv-x="409" vert-adv-y="2457" 
d="M277 851v-1330h-146v1330h146zM205 1275c28.667 0 52.999 -9.99902 72.999 -29.999c20.667 -20.667 31 -45.334 31 -74.001c0 -29.333 -10.333 -54 -31 -74c-20 -20.667 -44.667 -31 -74 -31c-28.667 0 -53 10.333 -73 31c-20.667 20.667 -31 45.667 -31 75
c0 28 10.333 52.333 31 73c20.667 20 45.334 30 74.001 30z" />
    <glyph glyph-name="k" unicode="k" horiz-adv-x="843" vert-adv-y="2457" 
d="M277 1494v-957l308 314h194l-364 -362l433 -489h-191l-344 387l-36 -37v-350h-146v1494h146z" />
    <glyph glyph-name="l" unicode="l" horiz-adv-x="408" vert-adv-y="2457" 
d="M277 1494v-1494h-146v1494h146z" />
    <glyph glyph-name="m" unicode="m" horiz-adv-x="1376" vert-adv-y="2457" 
d="M131 851l146.001 0.00195312v-91c22.667 30.667 43.667 52.667 63 66c42 30.667 91 46 147 46c105.333 0 183 -46.333 233 -139c54 92.667 137 139 249 139c65.333 0 122.666 -18 171.999 -54c49.333 -36.667 81 -89.334 95 -158.001c6 -31.333 9 -71.333 9 -120v-540
h-146v516c0 71.333 -9.33301 123.666 -28 156.999c-24.667 44 -66 66 -124 66c-122 0 -183 -89 -183 -267v-472h-146v505c0 156 -52.333 234 -157 234c-42.667 0 -81 -14.667 -115 -44c-46 -40.667 -69 -118 -69 -232v-463h-146v851z" />
    <glyph glyph-name="n" unicode="n" horiz-adv-x="943" vert-adv-y="2457" 
d="M131 851l146.001 0.000976562v-103c26.667 32.667 50.667 56.667 72 72c47.333 34 104.666 51 171.999 51c70 0 131 -18.667 183 -56c51.333 -36 84 -89 98 -159c6.66699 -32.667 10 -75.334 10 -128.001v-528h-146v503c0 79.333 -9.33301 134.333 -28 165
c-28.667 47.333 -78.667 71 -150 71c-85.333 0 -144 -33.667 -176 -101c-23.333 -48 -35 -119 -35 -213v-425h-146v851z" />
    <glyph glyph-name="o" unicode="o" horiz-adv-x="1040" vert-adv-y="2457" 
d="M520 870c134 0 245.333 -48.667 334 -146c76.667 -84 115 -184.333 115 -301c0 -136 -49.667 -248 -149 -336c-84 -74.667 -185 -112 -303 -112c-81.333 0 -157.333 20.667 -228 62c-72 42.667 -127.333 101 -166 175c-34.667 65.333 -52 138 -52 218
c0 124 46.667 230.333 140 319c85.333 80.667 188.333 121 309 121zM519 738c-97.333 0 -174.667 -36.667 -232 -110c-44.667 -57.333 -67 -124.333 -67 -201c0 -98 29.667 -176.667 89 -236c56 -56 125 -84 207 -84c100 0 179.333 36.333 238 109c44 55.333 66 124 66 206
c0 96 -30 173.333 -90 232c-56.667 56 -127 84 -211 84z" />
    <glyph glyph-name="p" unicode="p" horiz-adv-x="1051" vert-adv-y="2457" 
d="M277 -479h-146v1330h146l-1 -120c81.333 93.333 179.333 140 294 140c126.667 0 229.667 -48.333 309 -145c67.333 -80.667 101 -182.667 101 -306c0 -143.333 -45 -256.333 -135 -339c-76.667 -70.667 -167 -106 -271 -106c-116.667 0 -215.667 48 -297 144v-598z
M552 739c-90 0 -162.667 -35.333 -218 -106c-44.667 -56.667 -67 -127.667 -67 -213c0 -100 30 -178.333 90 -235c56 -52 121 -78 195 -78c83.333 0 151.666 31.667 204.999 95c49.333 58 74 129 74 213c0 101.333 -29.667 183 -89 245
c-51.333 52.667 -114.666 79 -189.999 79z" />
    <glyph glyph-name="q" unicode="q" horiz-adv-x="1051" vert-adv-y="2457" 
d="M774 -479v598c-81.333 -96 -180.333 -144 -297 -144c-122.667 0 -224 46.667 -304 140c-68 80 -102 181.667 -102 305c0 142.667 44.333 256 133 340c76.667 74 168.667 111 276 111c118.667 0 216.667 -46.667 294 -140v120h146v-1330h-146zM502 739
c-88 0 -159 -34.665 -213 -103.998c-46 -58.667 -69 -128.334 -69 -209.001c0 -104.667 32 -187 96 -247c52 -48 112.667 -72 182 -72c88.667 0 162 34 220 102c44 51.333 66 121.666 66 210.999c0 100.667 -29.667 180.667 -89 240c-52.667 52.667 -117 79 -193 79z" />
    <glyph glyph-name="r" unicode="r" horiz-adv-x="584" vert-adv-y="2457" 
d="M131 851h146v-92c28 34 50.333 58 67 72c33.333 27.333 75 41 125 41c42 0 85.333 -12.333 130 -37l-69 -132c-30 20 -58.333 30 -85 30c-38 0 -72.333 -13 -103 -39c-28 -24 -46.667 -60 -56 -108c-6 -34 -9 -80 -9 -138v-448h-146v851z" />
    <glyph glyph-name="s" unicode="s" horiz-adv-x="719" vert-adv-y="2457" 
d="M598 716l-121.001 -63c-30 56.667 -69.333 85 -118 85c-31.333 0 -57.333 -11.333 -78 -34c-16 -16.667 -24 -37 -24 -61c0 -27.333 12 -50.333 36 -69c18 -14 51.667 -31.333 101 -52c76.667 -32 130.667 -59.333 162 -82c62 -45.333 93 -107.666 93 -186.999
c0 -83.333 -30.333 -151.666 -91 -204.999c-55.333 -48.667 -122 -73 -200 -73c-142 0 -241 72.333 -297 217l128 54c16.667 -34 31.334 -59.333 44.001 -76c31.333 -42 73.666 -63 126.999 -63c47.333 0 84 16 110 48c20 25.333 30 54 30 86
c0 35.333 -12.667 64.666 -38 87.999c-16 14.667 -49.333 33 -100 55c-78 33.333 -134.667 62.666 -170 87.999c-50 36.667 -75 89.667 -75 159c0 74 26.667 133.333 80 178c48.667 40.667 104.667 61 168 61c102.667 0 180.334 -51.333 233.001 -154z" />
    <glyph glyph-name="t" unicode="t" horiz-adv-x="447" vert-adv-y="2457" 
d="M290 716v-716h-146v716h-89v135h89v305h146v-305h150v-135h-150z" />
    <glyph glyph-name="u" unicode="u" horiz-adv-x="937" vert-adv-y="2457" 
d="M277 851l0.000976562 -496.999c0 -73.333 8.66699 -126.333 26 -159c15.333 -28.667 38.666 -50.667 69.999 -66c29.333 -14.667 61 -22 95 -22c50.667 0 93.334 14.333 128.001 43c30.667 25.333 49.667 61.333 57 108c4 24 6 56 6 96v497h146v-513
c0 -80.667 -10 -142.334 -30 -185.001c-28 -61.333 -73.667 -108 -137 -140c-50.667 -25.333 -107.334 -38 -170.001 -38c-109.333 0 -196 35.667 -260 107c-34 38 -56 80 -66 126c-7.33301 36 -11 79.333 -11 130v513h146z" />
    <glyph glyph-name="v" unicode="v" horiz-adv-x="837" vert-adv-y="2457" 
d="M165 851l254 -572l253 572h163l-417 -906l-417 906h164z" />
    <glyph glyph-name="w" unicode="w" horiz-adv-x="1367" vert-adv-y="2457" 
d="M166 851l251 -575l265 641l265 -641l255 575h164l-422 -910l-262 634l-264 -634l-417 910h165z" />
    <glyph glyph-name="x" unicode="x" horiz-adv-x="911" vert-adv-y="2457" 
d="M367 454l-310 397h178l222 -290l222 290h181l-312 -397l354 -454h-176l-269 347l-271 -347h-182z" />
    <glyph glyph-name="y" unicode="y" horiz-adv-x="912" vert-adv-y="2457" 
d="M392 81l-391 770h169l300 -609l275 609h165l-628 -1330h-165z" />
    <glyph glyph-name="z" unicode="z" horiz-adv-x="921" vert-adv-y="2457" 
d="M295 135h586v-135h-880l615 716h-501v135h792z" />
    <glyph glyph-name="braceleft" unicode="{" horiz-adv-x="575" vert-adv-y="2457" 
d="M236 565c49.333 -27.333 83.666 -62.667 102.999 -106c14 -31.333 21 -76.666 21 -135.999v-370c0 -60 4.33301 -100.667 13 -122c10.667 -27.333 29.334 -45.666 56.001 -54.999c15.333 -5.33301 46.666 -8 93.999 -8v-128c-26 -0.666992 -45 -1 -57 -1
c-88 0 -151.333 21 -190 63c-43.333 47.333 -65 127 -65 239v377c0 67.333 -11 114.666 -33 141.999c-18.667 23.333 -46.667 40 -84 50v121c38.667 10 67.334 27.333 86.001 52c20.667 27.333 31 70.333 31 129v400c0 103.333 22.333 177 67 221
c40.667 40 104.334 60 191.001 60c1.33301 0 19.333 -0.333008 54 -1v-128c-40.667 0 -66.667 -1.33301 -78 -4c-30.667 -6.66699 -52.334 -21 -65.001 -43c-13.333 -24.667 -20 -68.334 -20 -131.001v-383c0 -72 -11.333 -126.333 -34 -163
c-16 -26.667 -46 -51.667 -90 -75z" />
    <glyph glyph-name="bar" unicode="|" horiz-adv-x="1024" vert-adv-y="2457" 
d="M435 1365h154v-1706h-154v1706z" />
    <glyph glyph-name="braceright" unicode="}" horiz-adv-x="575" vert-adv-y="2457" 
d="M339 568c-49.333 27.333 -83.665 62.668 -102.998 106.001c-14 31.333 -21 76.666 -21 135.999v370c0 60 -4.33301 100.667 -13 122c-10.667 27.333 -29.334 45.666 -56.001 54.999c-15.333 5.33301 -46.333 8 -93 8v128c26 0.666992 44.667 1 56 1
c88 0 151.333 -21 190 -63c43.333 -47.333 65 -127 65 -239v-377c0 -67.333 11 -114.666 33 -141.999c19.333 -23.333 47.666 -40 84.999 -50v-121c-38.667 -10 -67.667 -27.333 -87 -52c-20.667 -26.667 -31 -69.667 -31 -129v-400c0 -104 -22.333 -178 -67 -222
c-40.667 -40 -104 -60 -190 -60c-13.333 0 -31.333 0.666992 -54 2v128c10 -0.666992 16.333 -1 19 -1c52 0 87.667 9 107 27c24 22 36 72.667 36 152v383c0 72 11.333 126.333 34 163c16 26.667 46 51.667 90 75z" />
    <glyph glyph-name="asciitilde" unicode="~" vert-adv-y="2457" 
d="M279 1192l-89.001 57c28 56.667 53 99.667 75 129c54 71.333 122.667 107 206 107c50.667 0 127 -23.333 229 -70c69.333 -31.333 114.333 -49.666 135 -54.999c22 -6 43 -9 63 -9c47.333 0 87.333 16.333 120 49c20 20 42 49.667 66 89l91 -53
c-37.333 -74.667 -75 -128.334 -113 -161.001c-54 -46.667 -115 -70 -183 -70c-23.333 0 -53.333 5.66699 -90 17c-37.333 12 -102.666 39 -195.999 81c-54 24 -98.333 36 -133 36c-44.667 0 -84 -18 -118 -54c-20 -21.333 -41 -52.333 -63 -93z" />
    <glyph glyph-name="uni00A0" unicode="&#xa0;" horiz-adv-x="512" vert-adv-y="2457" 
 />
    <glyph glyph-name="exclamdown" unicode="&#xa1;" horiz-adv-x="568" vert-adv-y="2457" 
d="M284 1066c28 0 51.666 -9.66699 70.999 -29c20 -20 30 -44.333 30 -73c0 -26.667 -10 -50 -30 -70c-19.333 -19.333 -42.666 -29 -69.999 -29c-28 0 -51.667 9.66699 -71 29c-20 20 -30 44 -30 72s10 51.667 30 71s43.333 29 70 29zM356.999 769v-1088h-147v1088h147z
" />
    <glyph glyph-name="cent" unicode="&#xa2;" horiz-adv-x="1133" vert-adv-y="2457" 
d="M687 1141c76 -7.33301 148.331 -33.668 216.998 -79.001v-192c-38 43.333 -70.333 73.333 -97 90c-38 24.667 -78 40.667 -120 48v-623c27.333 4.66699 52 12.334 74 23.001c50 23.333 99.333 64 148 122v-193c-79.333 -52 -153.333 -80.667 -222 -86v-202h-119v205
c-59.333 8 -112.666 26 -159.999 54c-76.667 46 -134.667 108 -174 186c-31.333 62 -47 128.667 -47 200c0 110 35.333 207.333 106 292c72.667 87.333 164.334 138 275.001 152v193h119v-190zM567.998 386.998v617c-28.667 -6 -53.667 -15 -75 -27
c-50.667 -30 -90 -71 -118 -123c-26 -48 -39 -101 -39 -159c0 -114.667 45.333 -204 136 -268c27.333 -18.667 59.333 -32 96 -40z" />
    <glyph glyph-name="sterling" unicode="&#xa3;" horiz-adv-x="1133" vert-adv-y="2457" 
d="M520 601l257.998 -0.000976562v-116h-218c8.66699 -30.667 13 -57 13 -79c0 -60.667 -20 -126.667 -60 -198l120 -41c73.333 -26.667 124.333 -40 153 -40c39.333 0 74.666 17 105.999 51c16.667 18 36 46.333 58 85l123 -74c-71.333 -140.667 -165.333 -211 -282 -211
c-50 0 -125 18 -225 54c-93.333 33.333 -156.666 50 -189.999 50c-40 0 -75.667 -13 -107 -39c-15.333 -12.667 -34.333 -35.667 -57 -69l-118 79c40.667 60.667 82.334 104.334 125.001 131.001c42 26.667 88.333 41.334 139 44.001c39.333 60 59 117.333 59 172
c0 23.333 -4.66699 51.666 -14 84.999h-228v116h179l-59 116c-21.333 41.333 -38.333 76.333 -51 105c-25.333 57.333 -38 117.666 -38 180.999c0 92.667 30.333 174 91 244c79.333 91.333 183.333 137 312 137c93.333 0 174 -25.667 242 -77
c96 -73.333 147.333 -182.666 154 -327.999l-150 -40c-4.66699 64 -12.334 112.667 -23.001 146c-12.667 39.333 -34 72 -64 98c-43.333 36 -95.666 54 -156.999 54c-70 0 -128.667 -22 -176 -66c-50 -46.667 -75 -106 -75 -178c0 -50.667 16 -109 48 -175l62 -119
c24.667 -45.333 41.334 -78 50.001 -98z" />
    <glyph glyph-name="currency" unicode="&#xa4;" horiz-adv-x="1316" vert-adv-y="2457" 
d="M88 252l192.999 193c-21.333 30.667 -39 58.667 -53 84c-34.667 64 -52 133.667 -52 209c0 79.333 20.333 154.333 61 225c10 17.333 23.667 38.333 41 63l-195 195l85 85l195 -194c34.667 23.333 64.334 41.666 89.001 54.999c60.667 34 129.667 51 207 51
c81.333 0 157.666 -21.333 228.999 -64c16.667 -9.33301 37.667 -23 63 -41l194 193l85 -85l-193 -193c21.333 -32 39 -60.333 53 -85c33.333 -62 50 -131 50 -207c0 -78 -20.667 -152.667 -62 -224c-10 -16.667 -23.667 -38 -41 -64l196 -196l-84 -84l-195 195
c-28 -19.333 -53.333 -35.333 -76 -48c-65.333 -38 -137.666 -57 -216.999 -57c-75.333 0 -149 19.333 -221 58c-20 10.667 -45 25.334 -75 44.001l-193 -192zM662.999 1083c-98 0 -180.666 -34.001 -247.999 -102.001c-66.667 -67.333 -100 -148.666 -100 -243.999
c0 -94.667 33.667 -175.667 101 -243s148 -101 242 -101c94.667 0 176 34 244 102c66.667 66.667 100 147.334 100 242.001c0 97.333 -33.333 178.666 -100 243.999c-68.667 68 -148.334 102 -239.001 102z" />
    <glyph glyph-name="yen" unicode="&#xa5;" horiz-adv-x="1133" vert-adv-y="2457" 
d="M755 784l-103 -177h393v-116h-405v-491h-153v491h-399v116h388l-102 177h-286v116h219l-267 465h176l348 -609l353 609h176l-271 -465h223v-116h-290z" />
    <glyph glyph-name="brokenbar" unicode="&#xa6;" horiz-adv-x="1024" vert-adv-y="2457" 
d="M435 1365h154v-682h-154v682zM435 314h154v-655h-154v655z" />
    <glyph glyph-name="section" unicode="&#xa7;" horiz-adv-x="1112" vert-adv-y="2457" 
d="M186 5l147.999 -0.00195312c4 -74 16.667 -126.667 38 -158c36 -54 92.333 -81 169 -81c67.333 0 118.333 19 153 57c34.667 37.333 52 86.666 52 147.999c0 75.333 -29.333 131.666 -88 168.999c-28 18 -89 45 -183 81c-89.333 34.667 -153.333 69.334 -192 104.001
c-67.333 60.667 -101 142.334 -101 245.001c0 152.667 68.333 260 205 322c-42 24 -73.333 46.333 -94 67c-52.667 54.667 -79 124.334 -79 209.001c0 101.333 36 184 108 248c26.667 23.333 58.667 43 96 59c51.333 22 103 33 155 33c80.667 0 153 -23 217 -69
c80.667 -57.333 125 -163 133 -317h-144c-2 68.667 -13.667 121 -35 157c-33.333 59.333 -90 89 -170 89c-62.667 0 -113.667 -19 -153 -57c-39.333 -38.667 -59 -90 -59 -154c0 -61.333 23.667 -109.333 71 -144c26 -19.333 55 -34.666 87 -45.999l92 -33
c96 -33.333 165.667 -68.333 209 -105c72 -60 108 -145.667 108 -257c0 -88.667 -27.333 -164 -82 -226c-27.333 -31.333 -68.333 -63 -123 -95c44 -26 76 -49 96 -69c50.667 -52 76 -123.667 76 -215c0 -100.667 -31 -182 -93 -244c-66 -66 -154.333 -99 -265 -99
c-87.333 0 -161.666 22.667 -222.999 68c-60 43.333 -98.667 107.333 -116 192c-6.66699 32 -11 72.333 -13 121zM554.999 795.998c-61.333 0 -113.333 -21.667 -156 -65c-43.333 -44 -65 -95.667 -65 -155c0 -62.667 21.667 -116.334 65 -161.001
c42.667 -43.333 94.667 -65 156 -65s113.333 21.667 156 65c43.333 44 65 96.667 65 158c0 62.667 -21.667 115.334 -65 158.001c-44 43.333 -96 65 -156 65z" />
    <glyph glyph-name="dieresis" unicode="&#xa8;" horiz-adv-x="975" vert-adv-y="2457" 
d="M310 1249c28.667 0 53 -10 73 -30s30 -44 30 -72c0 -28.667 -10 -53 -30 -73c-20.667 -20 -45 -30 -73 -30s-52 10 -72 30s-30 44.667 -30 74c0 27.333 10 51 30 71s44 30 72 30zM666 1249c28 0 52 -10 72 -30s30 -44 30 -72c0 -28.667 -10 -53 -30 -73s-44 -30 -72 -30
c-28.667 0 -53 10 -73 30s-30 44.667 -30 74c0 27.333 10 51 30 71c20.667 20 45 30 73 30z" />
    <glyph glyph-name="copyright" unicode="&#xa9;" horiz-adv-x="1516" vert-adv-y="2457" 
d="M1072 980l-0.000976562 -175.001c-44.667 52.667 -73.667 85.334 -87 98.001c-56 52 -122.667 78 -200 78c-89.333 0 -165.333 -36.333 -228 -109c-50.667 -58 -76 -125 -76 -201c0 -82.667 29.333 -152.667 88 -210c64 -62.667 136.333 -94 217 -94
c33.333 0 68.333 7 105 21s68 32 94 54c12 10.667 41 42 87 94v-171c-93.333 -74 -187.666 -111 -282.999 -111c-114 0 -213.333 40.667 -298 122c-86 82 -129 181.667 -129 299c0 122.667 46.333 226 139 310c82 74 176.667 111 284 111c90.667 0 170.667 -26 240 -78
c7.33301 -5.33301 23 -18 47 -38zM768.999 1388c120.667 0 234.667 -31.665 342 -94.998c110 -64.667 196 -150.667 258 -258c63.333 -108.667 95 -226 95 -352c0 -126.667 -31.667 -244.334 -95 -353.001c-62.667 -109.333 -148.667 -195.333 -258 -258
c-109.333 -63.333 -227 -95 -353 -95s-243.667 31.667 -353 95c-110 62.667 -196 148.667 -258 258c-63.333 109.333 -95 228.666 -95 357.999c0 203.333 78 376 234 518c132.667 121.333 293.667 182 483 182zM766.999 1273c-180 0 -329.331 -65.332 -447.998 -195.999
c-101.333 -111.333 -152 -241.333 -152 -390c0 -178 65.333 -325.667 196 -443c112 -101.333 243.667 -152 395 -152c105.333 0 203.666 26.333 294.999 79c92 53.333 164.333 125.333 217 216c52.667 92 79 190.667 79 296c0 172.667 -65.333 318.667 -196 438
c-60.667 55.333 -130.334 95.666 -209.001 120.999c-62.667 20.667 -121.667 31 -177 31z" />
    <glyph glyph-name="ordfeminine" unicode="&#xaa;" horiz-adv-x="711" vert-adv-y="2457" 
d="M507 1360h97v-512h-97v65c-48 -53.333 -107 -80 -177 -80c-79.333 0 -144 29.333 -194 88c-42.667 48.667 -64 110 -64 184c0 86 28.333 154 85 204c47.333 42 104 63 170 63c72 0 132 -26 180 -78v66zM340 1288c-50 0 -91.665 -18.334 -124.998 -55.001
c-30 -33.333 -45 -75 -45 -125c0 -60 18.333 -107.667 55 -143c31.333 -30.667 69.666 -46 114.999 -46c55.333 0 99.666 20.333 132.999 61c26.667 32.667 40 74.334 40 125.001c0 59.333 -18 105.333 -54 138c-34 30 -73.667 45 -119 45z" />
    <glyph glyph-name="guillemotleft" unicode="&#xab;" horiz-adv-x="883" vert-adv-y="2457" 
d="M537 437l243 -300l-95 -76l-305 376l305 384l95 -75zM232 437l244 -300l-95 -76l-306 376l305 384l96 -75z" />
    <glyph glyph-name="logicalnot" unicode="&#xac;" horiz-adv-x="1024" vert-adv-y="2457" 
d="M801 0v403h-733v143h887v-546h-154z" />
    <glyph glyph-name="uni00AD" unicode="&#xad;" horiz-adv-x="371" vert-adv-y="2457" 
d="M0 502h371v-131h-371v131z" />
    <glyph glyph-name="registered" unicode="&#xae;" horiz-adv-x="1516" vert-adv-y="2457" 
d="M801 627l250 -361h-143l-211 309v-309h-118v819h141c77.333 0 137 -14.667 179 -44c60 -42 90 -105 90 -189c0 -70.667 -23 -127.667 -69 -171c-29.333 -28 -69 -46 -119 -54zM696 734h38c90.667 0 136 39.667 136 119c0 44 -13.667 76 -41 96
c-21.333 15.333 -56.333 23 -105 23h-28v-238zM769 1388c120.667 0 234.667 -31.665 342 -94.998c110 -64.667 196 -150.667 258 -258c63.333 -108.667 95 -226 95 -352c0 -126.667 -31.667 -244.334 -95 -353.001c-62.667 -109.333 -148.667 -195.333 -258 -258
c-109.333 -63.333 -227 -95 -353 -95s-243.667 31.667 -353 95c-110 62.667 -196 148.667 -258 258c-63.333 109.333 -95 228.666 -95 357.999c0 203.333 78 376 234 518c132.667 121.333 293.667 182 483 182zM767 1273c-180 0 -329.331 -65.332 -447.998 -195.999
c-101.333 -111.333 -152 -241.333 -152 -390c0 -178 65.333 -325.667 196 -443c112 -101.333 243.667 -152 395 -152c105.333 0 203.666 26.333 294.999 79c92 53.333 164.333 125.333 217 216c52.667 92 79 190.667 79 296c0 172.667 -65.333 318.667 -196 438
c-60.667 55.333 -130.334 95.666 -209.001 120.999c-62.667 20.667 -121.667 31 -177 31z" />
    <glyph glyph-name="macron" unicode="&#xaf;" horiz-adv-x="975" vert-adv-y="2457" 
d="M212 1201h550v-123h-550v123z" />
    <glyph glyph-name="degree" unicode="&#xb0;" horiz-adv-x="1112" vert-adv-y="2457" 
d="M560 1385c72 0 134.998 -26.666 188.998 -79.999c53.333 -52 80 -116 80 -192s-26.667 -140.333 -80 -193c-53.333 -53.333 -117.666 -80 -192.999 -80s-139.666 26.667 -192.999 80c-53.333 52.667 -80 116.667 -80 192c0 77.333 26.667 141.666 80 192.999
c55.333 53.333 121 80 197 80zM557.998 1276c-46 0 -85.333 -16.001 -118 -48.001c-32 -31.333 -48 -69.666 -48 -114.999s16 -84 48 -116s70.667 -48 116 -48s84 16 116 48s48 70.667 48 116c0 46 -16 84.333 -48 115c-33.333 32 -71.333 48 -114 48z" />
    <glyph glyph-name="plusminus" unicode="&#xb1;" horiz-adv-x="1139" vert-adv-y="2457" 
d="M88 633v126h419v412h126v-412h419v-126h-419v-398h-126v398h-419zM88 0v126h964v-126h-964z" />
    <glyph glyph-name="twosuperior" unicode="&#xb2;" horiz-adv-x="792" vert-adv-y="2457" 
d="M308 643l346 0.000976562v-97h-569l318 350c39.333 43.333 72 82.666 98 117.999c32 43.333 48 83.333 48 120c0 46 -18.333 83.333 -55 112c-31.333 24 -67.333 36 -108 36c-61.333 0 -106.666 -22.333 -135.999 -67c-14.667 -21.333 -24 -54 -28 -98h-108
c6.66699 66 21.667 115.667 45 149c51.333 74 126.666 111 225.999 111c77.333 0 142.333 -24.667 195 -74c50 -46.667 75 -103.667 75 -171c0 -57.333 -23 -116.333 -69 -177c-24 -32 -62.667 -77 -116 -135z" />
    <glyph glyph-name="threesuperior" unicode="&#xb3;" horiz-adv-x="792" vert-adv-y="2457" 
d="M353 930l0.000976562 90.998c45.333 0.666992 80 7 104 19c42.667 22.667 64 59.667 64 111c0 40.667 -15 73.334 -45 98.001c-24.667 20.667 -56 31 -94 31c-50.667 0 -87.334 -16 -110.001 -48c-11.333 -15.333 -20.333 -42 -27 -80h-107c8.66699 56 22.667 99 42 129
c40.667 64 108 96 202 96c75.333 0 135.333 -22.333 180 -67c43.333 -44 65 -96 65 -156c0 -38 -9.33301 -73.667 -28 -107c-11.333 -20.667 -35 -44 -71 -70c74.667 -48 112 -113 112 -195c0 -79.333 -29.667 -142.333 -89 -189c-51.333 -39.333 -111.333 -59 -180 -59
c-65.333 0 -122 17.667 -170 53c-53.333 39.333 -83 100 -89 182h105c5.33301 -37.333 15 -64.666 29 -81.999c30.667 -38 73.667 -57 129 -57c46.667 0 86 16.667 118 50c27.333 28 41 63 41 105c0 63.333 -26.667 106 -80 128c-23.333 10 -57 15.667 -101 17z" />
    <glyph glyph-name="acute" unicode="&#xb4;" horiz-adv-x="975" vert-adv-y="2457" 
d="M766 1275l-276 -279l-91 51l216 296z" />
    <glyph glyph-name="mu" unicode="&#xb5;" horiz-adv-x="953" vert-adv-y="2457" 
d="M286 -479l-146.001 -0.000976562v1330h146v-519c0 -43.333 4.33301 -78.666 13 -105.999c11.333 -37.333 33.333 -66.666 66 -87.999c32 -20.667 69.333 -31 112 -31c50.667 0 93.334 14.333 128.001 43c30.667 25.333 49.667 61.333 57 108c4 24 6 56 6 96v497h146v-513
c0 -80.667 -9.66699 -142.334 -29 -185.001c-28.667 -60.667 -74.667 -107 -138 -139c-50 -26 -105 -39 -165 -39c-76 0 -143.667 21.333 -203 64z" />
    <glyph glyph-name="paragraph" unicode="&#xb6;" horiz-adv-x="1112" vert-adv-y="2457" 
d="M409 -202v873.999c-12 -0.666992 -22 -1 -30 -1c-66.667 0 -126.667 17 -180 51c-44 28.667 -78.333 68.334 -103 119.001c-25.333 51.333 -38 108.333 -38 171c0 80 19.333 149.667 58 209c62.667 96 175.667 144 339 144h586l-68 -119h-90v-1448h-130v1448h-214v-1448
h-130z" />
    <glyph glyph-name="periodcentered" unicode="&#xb7;" horiz-adv-x="461" vert-adv-y="2457" 
d="M231 538c28 0 52 -9.66699 72 -29c19.333 -19.333 29 -43.333 29 -72c0 -28 -9.66699 -52 -29 -72c-20 -19.333 -44 -29 -72 -29s-51.667 10 -71 30c-20 20 -30 44.333 -30 73c0 26.667 10 50 30 70c19.333 19.333 43 29 71 29z" />
    <glyph glyph-name="cedilla" unicode="&#xb8;" horiz-adv-x="975" vert-adv-y="2457" 
d="M654 -151l-206 -263l-101 51l172 267z" />
    <glyph glyph-name="onesuperior" unicode="&#xb9;" horiz-adv-x="792" vert-adv-y="2457" 
d="M366 1268h-145l57 97h196v-819h-108v722z" />
    <glyph glyph-name="ordmasculine" unicode="&#xba;" horiz-adv-x="712" vert-adv-y="2457" 
d="M356 1372c84 0 154 -29.333 210 -88c48 -50 72 -110.333 72 -181c0 -82 -31.333 -149.667 -94 -203c-52.667 -44.667 -116 -67 -190 -67c-86 0 -157 31.333 -213 94c-44.667 50 -67 110 -67 180c0 74.667 29.333 139 88 193c53.333 48 118 72 194 72zM355 1287
c-59.333 0 -106.334 -21.333 -141.001 -64c-28 -33.333 -42 -72.333 -42 -117c0 -57.333 18.333 -103.333 55 -138c34 -32.667 76 -49 126 -49c61.333 0 110 21 146 63c27.333 32.667 41 73 41 121c0 56 -18.333 101.333 -55 136c-35.333 32 -78.666 48 -129.999 48z" />
    <glyph glyph-name="guillemotright" unicode="&#xbb;" horiz-adv-x="883" vert-adv-y="2457" 
d="M346 437l-244 309l95 75l306 -384l-306 -376l-95 76zM650 437l-243 309l95 75l305 -384l-305 -376l-95 76z" />
    <glyph glyph-name="onequarter" unicode="&#xbc;" horiz-adv-x="1712" vert-adv-y="2457" 
d="M312 1268h-145l57 97h196v-819h-108v722zM1192 1392l78 -44l-794 -1375l-79 48zM1445 228h102v-96h-102v-132h-109v132h-440l549 747v-651zM1336 228v336l-248 -336h248z" />
    <glyph glyph-name="onehalf" unicode="&#xbd;" horiz-adv-x="1712" vert-adv-y="2457" 
d="M277 1268h-145l57 97h196v-819h-108v722zM1111 1392l79 -44l-795 -1375l-79 48zM1184 97h346v-97h-569l318 351c40 43.333 72.667 82.333 98 117c32 43.333 48 83.333 48 120c0 46 -18.333 83.333 -55 112c-31.333 24 -67.333 36 -108 36
c-61.333 0 -106.666 -22.333 -135.999 -67c-14 -21.333 -23.333 -54 -28 -98h-108c6.66699 66 21.667 115.667 45 149c51.333 74.667 126.666 112 225.999 112c77.333 0 142.333 -24.667 195 -74c50 -46.667 75 -104 75 -172c0 -58 -23 -117 -69 -177
c-26.667 -34.667 -65 -79.667 -115 -135z" />
    <glyph glyph-name="threequarters" unicode="&#xbe;" horiz-adv-x="1712" vert-adv-y="2457" 
d="M377 930l0.000976562 90.998c45.333 0.666992 80 7 104 19c42.667 22.667 64 59.667 64 111c0 40.667 -15 73.334 -45 98.001c-24.667 20.667 -56 31 -94 31c-50.667 0 -87.334 -16 -110.001 -48c-11.333 -15.333 -20.333 -42 -27 -80h-107c8.66699 56 22.667 99 42 129
c40.667 64 108 96 202 96c75.333 0 135.333 -22.333 180 -67c43.333 -44 65 -96 65 -156c0 -38 -9.33301 -73.667 -28 -107c-11.333 -20.667 -35 -44 -71 -70c74.667 -48 112 -113 112 -195c0 -79.333 -29.667 -142.333 -89 -189c-51.333 -39.333 -111.333 -59 -180 -59
c-65.333 0 -122 17.667 -170 53c-53.333 39.333 -83 100 -89 182h105c5.33301 -37.333 15 -64.666 29 -81.999c30.667 -38 73.667 -57 129 -57c46.667 0 86 16.667 118 50c27.333 28 41 63 41 105c0 63.333 -26.667 106 -80 128c-23.333 10 -57 15.667 -101 17zM1284 1392
l79 -44l-795 -1375l-79 48zM1474 227.998h102v-96h-102v-132h-109v132h-441l550 747v-651zM1365 227.998v336l-248 -336h248z" />
    <glyph glyph-name="questiondown" unicode="&#xbf;" horiz-adv-x="893" vert-adv-y="2457" 
d="M300 456l-146.002 0.000976562c1.33301 70 14.333 126.333 39 169c27.333 48 66 85 116 111c43.333 22 90.333 33 141 33c88 0 160.333 -31 217 -93c50.667 -56.667 76 -123.667 76 -201c0 -82 -28.667 -147.667 -86 -197c-34.667 -30 -88.667 -56.667 -162 -80
c-63.333 -20 -103.166 -33.5 -119.499 -40.5s-33.166 -17.167 -50.499 -30.5c-40 -30.667 -60 -76.667 -60 -138c0 -57.333 18 -103 54 -137c36.667 -34.667 80.667 -52 132 -52c56 0 101.667 20.667 137 62c28 32 42 71 42 117c0 21.333 -3.66699 50.666 -11 87.999h149
c6 -38.667 9 -70.667 9 -96c0 -96 -36.667 -174.333 -110 -235c-60.667 -50.667 -133.667 -76 -219 -76c-104.667 0 -189 36.667 -253 110c-52.667 60 -79 133 -79 219c0 74.667 20.667 141 62 199c34 47.333 86.667 84 158 110c18 6 58 18 120 36
c50.667 14.667 85.667 34 105 58c22 27.333 33 58.333 33 93c0 42.667 -15.667 78.667 -47 108c-27.333 25.333 -60.333 38 -99 38c-60 0 -102.333 -25.333 -127 -76c-10.667 -22 -17.667 -55 -21 -99zM445.998 1063c28 0 51.667 -9.99902 71 -29.999c20 -20 30 -44 30 -72
c0 -26.667 -10 -50.334 -30 -71.001c-19.333 -19.333 -43 -29 -71 -29s-52 9.66699 -72 29c-19.333 20 -29 43.667 -29 71c0 29.333 9.66699 53.333 29 72c20.667 20 44.667 30 72 30z" />
    <glyph glyph-name="Agrave" unicode="&#xc0;" horiz-adv-x="1242" vert-adv-y="2457" 
d="M914 386h-583l-165 -386h-166l629 1430l613 -1430h-167zM854 528l-228 547l-233 -547h461zM358 1715l138 91l244 -265l-88 -65z" />
    <glyph glyph-name="Aacute" unicode="&#xc1;" horiz-adv-x="1242" vert-adv-y="2457" 
d="M914 386h-583l-165 -386h-166l629 1430l613 -1430h-167zM854 528l-228 547l-233 -547h461zM897 1715l-293 -239l-88 65l244 265z" />
    <glyph glyph-name="Acircumflex" unicode="&#xc2;" horiz-adv-x="1242" vert-adv-y="2457" 
d="M914 386h-583l-165 -386h-166l629 1430l613 -1430h-167zM854 528l-228 547l-233 -547h461zM348 1561l285 243l288 -244l-108 -83l-179 155l-180 -155z" />
    <glyph glyph-name="Atilde" unicode="&#xc3;" horiz-adv-x="1242" vert-adv-y="2457" 
d="M914 386h-583l-165 -386h-166l629 1430l613 -1430h-167zM854 528l-228 547l-233 -547h461zM419 1528l-87 69c48 97.333 108.333 146 181 146c31.333 0 75 -14.333 131 -43c53.333 -27.333 90.666 -41 111.999 -41c33.333 0 64.666 29 93.999 87l88 -66
c-47.333 -98.667 -109.666 -148 -186.999 -148c-32.667 0 -77 14.333 -133 43c-55.333 27.333 -93.666 41 -114.999 41c-20.667 0 -38.667 -10.667 -54 -32c-6 -9.33301 -16 -28 -30 -56z" />
    <glyph glyph-name="Adieresis" unicode="&#xc4;" horiz-adv-x="1242" vert-adv-y="2457" 
d="M914 386h-583l-165 -386h-166l629 1430l613 -1430h-167zM854 528l-228 547l-233 -547h461zM436 1738c29.333 0 54 -10.333 74 -31c20.667 -20 31 -44.333 31 -73c0 -29.333 -10.333 -54 -31 -74c-20 -20.667 -44.333 -31 -73 -31c-29.333 0 -54 10.333 -74 31
c-20.667 20.667 -31 45.667 -31 75c0 28 10.333 52 31 72c20.667 20.667 45 31 73 31zM825 1738c29.333 0 54 -10.332 74 -30.999c20.667 -20 31 -44.333 31 -73s-10.333 -53.334 -31 -74.001c-20 -20.667 -44.333 -31 -73 -31c-29.333 0 -54 10.333 -74 31
c-20.667 20.667 -31 45.667 -31 75c0 28 10.333 52 31 72c20.667 20.667 45 31 73 31z" />
    <glyph glyph-name="Aring" unicode="&#xc5;" horiz-adv-x="1242" vert-adv-y="2457" 
d="M914 386h-583l-165 -386h-166l629 1430l613 -1430h-167zM854 528l-228 547l-233 -547h461zM628 1835c51.333 0 95.332 -18.001 131.999 -54.001c36 -36 54 -79.667 54 -131s-18 -95.333 -54 -132c-36.667 -36 -80.667 -54 -132 -54s-95 18 -131 54
c-36.667 36.667 -55 81.334 -55 134.001c0 50 18.333 93 55 129s80.334 54 131.001 54zM627.999 1735c-24 0 -44.333 -8.33105 -61 -24.998s-25 -36.334 -25 -59.001c0 -24.667 8.33301 -45.334 25 -62.001s37 -25 61 -25c23.333 0 43.666 8.33301 60.999 25
c16.667 16.667 25 37 25 61s-8.33301 44 -25 60c-17.333 16.667 -37.666 25 -60.999 25z" />
    <glyph glyph-name="AE" unicode="&#xc6;" horiz-adv-x="1785" vert-adv-y="2457" 
d="M911 382h-582l-162 -382h-167l608 1365h600l60 -142h-552l171 -408h538l62 -142h-538l221 -531h555l60 -142h-713zM851 524l-226 537l-230 -537h456z" />
    <glyph glyph-name="Ccedilla" unicode="&#xc7;" horiz-adv-x="1293" vert-adv-y="2457" 
d="M1204 1253l-0.00195312 -188.997c-58 55.333 -112 95.333 -162 120c-82 40.667 -165.667 61 -251 61c-97.333 0 -189 -26 -275 -78c-93.333 -56 -164.666 -132.667 -213.999 -230c-41.333 -81.333 -62 -168.333 -62 -261c0 -169.333 62.667 -308 188 -416
c108.667 -94.667 230.334 -142 365.001 -142c100 0 196.667 28 290 84c34 20 74.333 51.667 121 95v-189c-129.333 -88.667 -266.333 -133 -411 -133c-114.667 0 -223.667 27.333 -327 82c-131.333 69.333 -231.333 168.666 -300 297.999
c-53.333 101.333 -80 208.666 -80 321.999c0 117.333 28.333 228.666 85 333.999c64.667 120.667 155.667 214.667 273 282c110 63.333 229 95 357 95c98.667 0 191.667 -20.333 279 -61c34 -16 75.333 -40.667 124 -74zM870.998 -161.997l-226 -265l-104 53l184 278z" />
    <glyph glyph-name="Egrave" unicode="&#xc8;" horiz-adv-x="960" vert-adv-y="2457" 
d="M871 1223h-554v-405h539v-142h-539v-534h554v-142h-707v1365h707v-142zM252 1715l137 91l245 -265l-89 -65z" />
    <glyph glyph-name="Eacute" unicode="&#xc9;" horiz-adv-x="960" vert-adv-y="2457" 
d="M871 1223h-554v-405h539v-142h-539v-534h554v-142h-707v1365h707v-142zM777 1715l-294 -239l-88 65l245 265z" />
    <glyph glyph-name="Ecircumflex" unicode="&#xca;" horiz-adv-x="960" vert-adv-y="2457" 
d="M871 1223h-554v-405h539v-142h-539v-534h554v-142h-707v1365h707v-142zM231 1561l285 243l288 -244l-108 -83l-180 155l-179 -155z" />
    <glyph glyph-name="Edieresis" unicode="&#xcb;" horiz-adv-x="960" vert-adv-y="2457" 
d="M871 1223h-554v-405h539v-142h-539v-534h554v-142h-707v1365h707v-142zM323 1738c28.667 0 53.333 -10.333 74 -31c20.667 -20 31 -44.333 31 -73c0 -29.333 -10.333 -54 -31 -74c-20 -20.667 -44.333 -31 -73 -31c-29.333 0 -54 10.333 -74 31
c-20.667 20.667 -31 45.667 -31 75c0 28 10.333 52 31 72c20.667 20.667 45 31 73 31zM711.999 1738c29.333 0 54 -10.333 74 -31c20.667 -20 31 -44.333 31 -73c0 -29.333 -10.333 -54 -31 -74c-20 -20.667 -44.333 -31 -73 -31c-29.333 0 -54 10.333 -74 31
c-20.667 20.667 -31 45.667 -31 75c0 28 10.333 52 31 72c20.667 20.667 45 31 73 31z" />
    <glyph glyph-name="Igrave" unicode="&#xcc;" horiz-adv-x="481" vert-adv-y="2457" 
d="M317 1365v-1365h-153v1365h153zM5 1715l137 91l197 -272l-88 -58z" />
    <glyph glyph-name="Iacute" unicode="&#xcd;" horiz-adv-x="481" vert-adv-y="2457" 
d="M317 1365v-1365h-153v1365h153zM476 1715l-246 -239l-88 58l197 272z" />
    <glyph glyph-name="Icircumflex" unicode="&#xce;" horiz-adv-x="481" vert-adv-y="2457" 
d="M317 1365v-1365h-153v1365h153zM-12 1561l251 243l254 -244l-102 -83l-152 155l-152 -155z" />
    <glyph glyph-name="Idieresis" unicode="&#xcf;" horiz-adv-x="481" vert-adv-y="2457" 
d="M317 1365v-1365h-153v1365h153zM101 1738c29.333 0 54 -10.333 74 -31c20.667 -20 31 -44.333 31 -73c0 -29.333 -10.333 -54 -31 -74c-20 -20.667 -44.333 -31 -73 -31c-29.333 0 -54 10.333 -74 31c-20.667 20.667 -31 45.667 -31 75c0 28 10.333 52 31 72
c20.667 20.667 45 31 73 31zM378 1738c28.667 0 53.333 -10.333 74 -31c20.667 -20 31 -44.333 31 -73c0 -29.333 -10.333 -54 -31 -74c-20 -20.667 -44.333 -31 -73 -31c-29.333 0 -54 10.333 -74 31c-20.667 20.667 -31 45.667 -31 75c0 28 10.333 52 31 72
c20.667 20.667 45 31 73 31z" />
    <glyph glyph-name="Eth" unicode="&#xd0;" horiz-adv-x="1267" vert-adv-y="2457" 
d="M166 0v667h-137v137h137v561h279c141.333 0 258 -20.667 350 -62c134.667 -61.333 236.667 -157 306 -287c53.333 -98.667 80 -210 80 -334c0 -217.333 -80 -392 -240 -524c-82 -68 -169.667 -113 -263 -135c-68 -15.333 -146.333 -23 -235 -23h-277zM319 142h132
c160.667 0 290.667 41.667 390 125c124 104 186 242.333 186 415c0 116 -30 219.667 -90 311c-102 153.333 -264 230 -486 230h-132v-419h327v-137h-327v-525z" />
    <glyph glyph-name="Ntilde" unicode="&#xd1;" horiz-adv-x="1544" vert-adv-y="2457" 
d="M164 0v1422l1064 -1114v1057h153v-1427l-1064 1114v-1052h-153zM570 1528l-87.002 69c48.667 97.333 109 146 181 146c31.333 0 75 -14.333 131 -43c53.333 -27.333 91 -41 113 -41c33.333 0 64.333 29 93 87l88 -66c-47.333 -98.667 -109.666 -148 -186.999 -148
c-32.667 0 -77 14.333 -133 43c-55.333 27.333 -93.666 41 -114.999 41c-20.667 0 -38.667 -10.667 -54 -32c-6 -9.33301 -16 -28 -30 -56z" />
    <glyph glyph-name="Ograve" unicode="&#xd2;" horiz-adv-x="1593" vert-adv-y="2457" 
d="M798 1388c126 0 242.335 -31.332 349.002 -93.999c112 -64.667 200 -151.334 264 -260.001c64 -109.333 96 -227 96 -353s-32.333 -244 -97 -354c-62 -105.333 -146 -189.333 -252 -252c-112.667 -66.667 -235.334 -100 -368.001 -100c-120 0 -235.667 31.333 -347 94
c-117.333 67.333 -207.333 157.666 -270 270.999c-58 104.667 -87 221.334 -87 350.001c0 194 75 361.667 225 503c74.667 70.667 160.667 122.667 258 156c77.333 26 153.666 39 228.999 39zM797.002 1245c-169.333 0 -309.667 -65.001 -421 -195.001
c-90.667 -105.333 -136 -225.666 -136 -360.999c0 -168 58 -306.667 174 -416c60 -56 128.333 -97.667 205 -125c58 -20 115.667 -30 173 -30c103.333 0 199.666 27 288.999 81c88 52 155.667 121.667 203 209c46 84 69 175 69 273c0 159.333 -56.667 295 -170 407
c-59.333 58 -127.666 100 -204.999 126c-60.667 20.667 -121 31 -181 31zM527.001 1715l137 91l245 -265l-88 -65z" />
    <glyph glyph-name="Oacute" unicode="&#xd3;" horiz-adv-x="1593" vert-adv-y="2457" 
d="M798 1388c126 0 242.335 -31.332 349.002 -93.999c112 -64.667 200 -151.334 264 -260.001c64 -109.333 96 -227 96 -353s-32.333 -244 -97 -354c-62 -105.333 -146 -189.333 -252 -252c-112.667 -66.667 -235.334 -100 -368.001 -100c-120 0 -235.667 31.333 -347 94
c-117.333 67.333 -207.333 157.666 -270 270.999c-58 104.667 -87 221.334 -87 350.001c0 194 75 361.667 225 503c74.667 70.667 160.667 122.667 258 156c77.333 26 153.666 39 228.999 39zM797.002 1245c-169.333 0 -309.667 -65.001 -421 -195.001
c-90.667 -105.333 -136 -225.666 -136 -360.999c0 -168 58 -306.667 174 -416c60 -56 128.333 -97.667 205 -125c58 -20 115.667 -30 173 -30c103.333 0 199.666 27 288.999 81c88 52 155.667 121.667 203 209c46 84 69 175 69 273c0 159.333 -56.667 295 -170 407
c-59.333 58 -127.666 100 -204.999 126c-60.667 20.667 -121 31 -181 31zM1073 1715l-294 -239l-88 65l245 265z" />
    <glyph glyph-name="Ocircumflex" unicode="&#xd4;" horiz-adv-x="1593" vert-adv-y="2457" 
d="M798 1388c126 0 242.335 -31.332 349.002 -93.999c112 -64.667 200 -151.334 264 -260.001c64 -109.333 96 -227 96 -353s-32.333 -244 -97 -354c-62 -105.333 -146 -189.333 -252 -252c-112.667 -66.667 -235.334 -100 -368.001 -100c-120 0 -235.667 31.333 -347 94
c-117.333 67.333 -207.333 157.666 -270 270.999c-58 104.667 -87 221.334 -87 350.001c0 194 75 361.667 225 503c74.667 70.667 160.667 122.667 258 156c77.333 26 153.666 39 228.999 39zM797.002 1245c-169.333 0 -309.667 -65.001 -421 -195.001
c-90.667 -105.333 -136 -225.666 -136 -360.999c0 -168 58 -306.667 174 -416c60 -56 128.333 -97.667 205 -125c58 -20 115.667 -30 173 -30c103.333 0 199.666 27 288.999 81c88 52 155.667 121.667 203 209c46 84 69 175 69 273c0 159.333 -56.667 295 -170 407
c-59.333 58 -127.666 100 -204.999 126c-60.667 20.667 -121 31 -181 31zM510.001 1561l285 243l288 -244l-108 -83l-180 155l-179 -155z" />
    <glyph glyph-name="Otilde" unicode="&#xd5;" horiz-adv-x="1593" vert-adv-y="2457" 
d="M798 1388c126 0 242.335 -31.332 349.002 -93.999c112 -64.667 200 -151.334 264 -260.001c64 -109.333 96 -227 96 -353s-32.333 -244 -97 -354c-62 -105.333 -146 -189.333 -252 -252c-112.667 -66.667 -235.334 -100 -368.001 -100c-120 0 -235.667 31.333 -347 94
c-117.333 67.333 -207.333 157.666 -270 270.999c-58 104.667 -87 221.334 -87 350.001c0 194 75 361.667 225 503c74.667 70.667 160.667 122.667 258 156c77.333 26 153.666 39 228.999 39zM797.002 1245c-169.333 0 -309.667 -65.001 -421 -195.001
c-90.667 -105.333 -136 -225.666 -136 -360.999c0 -168 58 -306.667 174 -416c60 -56 128.333 -97.667 205 -125c58 -20 115.667 -30 173 -30c103.333 0 199.666 27 288.999 81c88 52 155.667 121.667 203 209c46 84 69 175 69 273c0 159.333 -56.667 295 -170 407
c-59.333 58 -127.666 100 -204.999 126c-60.667 20.667 -121 31 -181 31zM602.001 1528l-88.002 69c48.667 97.333 109.334 146 182.001 146c30.667 0 74.334 -14.333 131.001 -43c52.667 -27.333 90 -41 112 -41c33.333 0 64.333 29 93 87l88 -66
c-47.333 -98.667 -109.666 -148 -186.999 -148c-32.667 0 -77 14.333 -133 43c-54.667 27.333 -93 41 -115 41c-20.667 0 -38.334 -10.667 -53.001 -32c-6.66699 -9.33301 -16.667 -28 -30 -56z" />
    <glyph glyph-name="Odieresis" unicode="&#xd6;" horiz-adv-x="1593" vert-adv-y="2457" 
d="M798 1388c126 0 242.335 -31.332 349.002 -93.999c112 -64.667 200 -151.334 264 -260.001c64 -109.333 96 -227 96 -353s-32.333 -244 -97 -354c-62 -105.333 -146 -189.333 -252 -252c-112.667 -66.667 -235.334 -100 -368.001 -100c-120 0 -235.667 31.333 -347 94
c-117.333 67.333 -207.333 157.666 -270 270.999c-58 104.667 -87 221.334 -87 350.001c0 194 75 361.667 225 503c74.667 70.667 160.667 122.667 258 156c77.333 26 153.666 39 228.999 39zM797.002 1245c-169.333 0 -309.667 -65.001 -421 -195.001
c-90.667 -105.333 -136 -225.666 -136 -360.999c0 -168 58 -306.667 174 -416c60 -56 128.333 -97.667 205 -125c58 -20 115.667 -30 173 -30c103.333 0 199.666 27 288.999 81c88 52 155.667 121.667 203 209c46 84 69 175 69 273c0 159.333 -56.667 295 -170 407
c-59.333 58 -127.666 100 -204.999 126c-60.667 20.667 -121 31 -181 31zM602.001 1738c29.333 0 54 -10.333 74 -31c20.667 -20 31 -44.333 31 -73c0 -29.333 -10.333 -54 -31 -74c-20 -20.667 -44.333 -31 -73 -31c-29.333 0 -54 10.333 -74 31
c-20.667 20.667 -31 45.667 -31 75c0 28 10.333 52 31 72c20.667 20.667 45 31 73 31zM991.001 1738c29.333 0 54 -10.333 74 -31c20.667 -20 31 -44.333 31 -73c0 -29.333 -10.333 -54 -31 -74c-20 -20.667 -44.333 -31 -73 -31c-29.333 0 -54 10.333 -74 31
c-20.667 20.667 -31 45.667 -31 75c0 28 10.333 52 31 72c20.667 20.667 45 31 73 31z" />
    <glyph glyph-name="multiply" unicode="&#xd7;" horiz-adv-x="1139" vert-adv-y="2457" 
d="M167 1013l86 86l317 -317l317 317l86 -86l-317 -317l317 -317l-86 -86l-317 317l-317 -317l-86 86l317 317z" />
    <glyph glyph-name="Oslash" unicode="&#xd8;" horiz-adv-x="1599" vert-adv-y="2457" 
d="M246 233c-23.333 32 -41 58.001 -53 78.001c-69.333 111.333 -104 234 -104 368c0 121.333 29 234.666 87 339.999c60.667 109.333 146 197.333 256 264c114.667 70 238 105 370 105c138 0 266.667 -39 386 -117l60 -41l158 157l87 -89l-154 -157
c24.667 -32.667 43.667 -58.667 57 -78c76 -116 114 -243.333 114 -382c0 -126 -32.333 -244 -97 -354c-62 -105.333 -146 -189.333 -252 -252c-112.667 -66.667 -233.334 -100 -362.001 -100c-141.333 0 -273.666 40.667 -396.999 122c-16 10.667 -37.667 26 -65 46
l-159 -157l-92 89zM354 340.001l784 787c-99.333 78.667 -212 118 -338 118c-106 0 -204.333 -28.333 -295 -85c-80 -50.667 -143.333 -117.667 -190 -201c-48 -86 -72 -179.333 -72 -280c0 -104.667 26.667 -202 80 -292zM1232 1037l-788 -786.001
c19.333 -18 37.333 -32 54 -42c97.333 -60.667 199.333 -91 306 -91c98 0 191.333 27 280 81c87.333 52.667 155 122.334 203 209.001c46 83.333 69 174 69 272c0 126.667 -41.333 245.667 -124 357z" />
    <glyph glyph-name="Ugrave" unicode="&#xd9;" horiz-adv-x="1301" vert-adv-y="2457" 
d="M317 1365l0.000976562 -836c0 -86 5 -148.333 15 -187c17.333 -68 57 -122.667 119 -164c60.667 -40 127 -60 199 -60c84 0 159 26 225 78c54 43.333 87.333 101 100 173c6 34.667 9 88 9 160v836h153v-878c0 -94.667 -11.333 -170.334 -34 -227.001
c-37.333 -91.333 -102.333 -163.666 -195 -216.999c-79.333 -45.333 -165.333 -68 -258 -68c-108.667 0 -207.667 31 -297 93c-84.667 59.333 -140.334 135 -167.001 227c-14.667 49.333 -22 113.333 -22 192v878h153zM388.001 1715l137 91l245 -265l-88 -65z" />
    <glyph glyph-name="Uacute" unicode="&#xda;" horiz-adv-x="1301" vert-adv-y="2457" 
d="M317 1365l0.000976562 -836c0 -86 5 -148.333 15 -187c17.333 -68 57 -122.667 119 -164c60.667 -40 127 -60 199 -60c84 0 159 26 225 78c54 43.333 87.333 101 100 173c6 34.667 9 88 9 160v836h153v-878c0 -94.667 -11.333 -170.334 -34 -227.001
c-37.333 -91.333 -102.333 -163.666 -195 -216.999c-79.333 -45.333 -165.333 -68 -258 -68c-108.667 0 -207.667 31 -297 93c-84.667 59.333 -140.334 135 -167.001 227c-14.667 49.333 -22 113.333 -22 192v878h153zM920.001 1715l-294 -239l-88 65l245 265z" />
    <glyph glyph-name="Ucircumflex" unicode="&#xdb;" horiz-adv-x="1301" vert-adv-y="2457" 
d="M317 1365l0.000976562 -836c0 -86 5 -148.333 15 -187c17.333 -68 57 -122.667 119 -164c60.667 -40 127 -60 199 -60c84 0 159 26 225 78c54 43.333 87.333 101 100 173c6 34.667 9 88 9 160v836h153v-878c0 -94.667 -11.333 -170.334 -34 -227.001
c-37.333 -91.333 -102.333 -163.666 -195 -216.999c-79.333 -45.333 -165.333 -68 -258 -68c-108.667 0 -207.667 31 -297 93c-84.667 59.333 -140.334 135 -167.001 227c-14.667 49.333 -22 113.333 -22 192v878h153zM364.001 1561l285 243l288 -244l-108 -83l-179 155
l-180 -155z" />
    <glyph glyph-name="Udieresis" unicode="&#xdc;" horiz-adv-x="1301" vert-adv-y="2457" 
d="M317 1365l0.000976562 -836c0 -86 5 -148.333 15 -187c17.333 -68 57 -122.667 119 -164c60.667 -40 127 -60 199 -60c84 0 159 26 225 78c54 43.333 87.333 101 100 173c6 34.667 9 88 9 160v836h153v-878c0 -94.667 -11.333 -170.334 -34 -227.001
c-37.333 -91.333 -102.333 -163.666 -195 -216.999c-79.333 -45.333 -165.333 -68 -258 -68c-108.667 0 -207.667 31 -297 93c-84.667 59.333 -140.334 135 -167.001 227c-14.667 49.333 -22 113.333 -22 192v878h153zM456.001 1738c29.333 0 54 -10.333 74 -31
c20.667 -20 31 -44.333 31 -73c0 -29.333 -10.333 -54 -31 -74c-20 -20.667 -44.333 -31 -73 -31c-29.333 0 -54 10.333 -74 31c-20.667 20.667 -31 45.667 -31 75c0 28 10.333 52 31 72c20.667 20.667 45 31 73 31zM845.001 1738c29.333 0 54 -10.333 74 -31
c20.667 -20 31 -44.333 31 -73c0 -29.333 -10.333 -54 -31 -74c-20 -20.667 -44.333 -31 -73 -31c-29.333 0 -54 10.333 -74 31c-20.667 20.667 -31 45.667 -31 75c0 28 10.333 52 31 72c20.667 20.667 45 31 73 31z" />
    <glyph glyph-name="Yacute" unicode="&#xdd;" horiz-adv-x="1054" vert-adv-y="2457" 
d="M447 587l-447 778h176l348 -609l353 609h177l-454 -778v-587h-153v587zM796 1715l-294 -239l-88 65l245 265z" />
    <glyph glyph-name="Thorn" unicode="&#xde;" horiz-adv-x="909" vert-adv-y="2457" 
d="M317 407v-406.999h-153v1365h153v-191h95c108 0 191 -12 249 -36c82.667 -34.667 143.667 -93.334 183 -176.001c25.333 -54 38 -111.333 38 -172c0 -74 -18 -142 -54 -204c-69.333 -119.333 -195.333 -179 -378 -179h-133zM317 546.001h124.001
c96 0 168.667 22.333 218 67c48.667 44.667 73 104 73 178c0 77.333 -25 137.333 -75 180c-48.667 41.333 -124.334 62 -227.001 62h-113v-487z" />
    <glyph glyph-name="germandbls" unicode="&#xdf;" horiz-adv-x="1064" vert-adv-y="2457" 
d="M142 0l0.000976562 716.001h-79v135h79v282c0 115.333 26 204.333 78 267c29.333 35.333 68 63 116 83c52 22.667 107 34 165 34c110.667 0 199.667 -37.333 267 -112c56.667 -63.333 85 -139.666 85 -228.999c0 -68.667 -19.667 -129.667 -59 -183
c-23.333 -32.667 -54.666 -59.334 -93.999 -80.001c58 -22 106.667 -51.667 146 -89c44.667 -42 80 -93.667 106 -155c26.667 -62.667 40 -127.334 40 -194.001c0 -105.333 -31.667 -200.333 -95 -285c-100 -132.667 -241.333 -204 -424 -214v143
c90 6.66699 164.333 31.334 223 74.001c98 71.333 147 167 147 287c0 84.667 -26 158.667 -78 222c-47.333 57.333 -115 96 -203 116c-19.333 4 -49 8.66699 -89 14v132c65.333 3.33301 114.666 17.333 147.999 42c27.333 20 48.666 48.333 63.999 85
c12.667 29.333 19 59.666 19 90.999c0 64.667 -23 116.667 -69 156c-36 31.333 -82 47 -138 47s-103.333 -16.333 -142 -49c-34 -28.667 -54.667 -75.667 -62 -141c-3.33301 -30.667 -5 -73.667 -5 -129v-1066h-146z" />
    <glyph glyph-name="agrave" unicode="&#xe0;" horiz-adv-x="1050" vert-adv-y="2457" 
d="M775 851l145.999 0.000976562v-851h-146v118c-80 -95.333 -177.667 -143 -293 -143c-126.667 0 -229.667 48.333 -309 145c-67.333 81.333 -101 183.666 -101 306.999c0 143.333 45 256.333 135 339c76.667 70 167.334 105 272.001 105c117.333 0 216 -47 296 -141v121z
M500.999 739.001c-82.667 0 -151.332 -31.667 -205.999 -95c-49.333 -57.333 -74 -128.333 -74 -213c0 -102 29.667 -183.333 89 -244c52 -53.333 115.333 -80 190 -80c91.333 0 164.666 35.333 219.999 106c43.333 55.333 65 126.333 65 213c0 102 -29.667 180.333 -89 235
c-56 52 -121 78 -195 78zM279.001 1275l151 68l216 -296l-91 -51z" />
    <glyph glyph-name="aacute" unicode="&#xe1;" horiz-adv-x="1050" vert-adv-y="2457" 
d="M775 851l145.999 0.000976562v-851h-146v118c-80 -95.333 -177.667 -143 -293 -143c-126.667 0 -229.667 48.333 -309 145c-67.333 81.333 -101 183.666 -101 306.999c0 143.333 45 256.333 135 339c76.667 70 167.334 105 272.001 105c117.333 0 216 -47 296 -141v121z
M500.999 739.001c-82.667 0 -151.332 -31.667 -205.999 -95c-49.333 -57.333 -74 -128.333 -74 -213c0 -102 29.667 -183.333 89 -244c52 -53.333 115.333 -80 190 -80c91.333 0 164.666 35.333 219.999 106c43.333 55.333 65 126.333 65 213c0 102 -29.667 180.333 -89 235
c-56 52 -121 78 -195 78zM789.001 1275l-276 -279l-91 51l216 296z" />
    <glyph glyph-name="acircumflex" unicode="&#xe2;" horiz-adv-x="1050" vert-adv-y="2457" 
d="M775 851l145.999 0.000976562v-851h-146v118c-80 -95.333 -177.667 -143 -293 -143c-126.667 0 -229.667 48.333 -309 145c-67.333 81.333 -101 183.666 -101 306.999c0 143.333 45 256.333 135 339c76.667 70 167.334 105 272.001 105c117.333 0 216 -47 296 -141v121z
M500.999 739.001c-82.667 0 -151.332 -31.667 -205.999 -95c-49.333 -57.333 -74 -128.333 -74 -213c0 -102 29.667 -183.333 89 -244c52 -53.333 115.333 -80 190 -80c91.333 0 164.666 35.333 219.999 106c43.333 55.333 65 126.333 65 213c0 102 -29.667 180.333 -89 235
c-56 52 -121 78 -195 78zM247.001 1077l283 266l284 -266l-105 -80l-179 169l-180 -170z" />
    <glyph glyph-name="atilde" unicode="&#xe3;" horiz-adv-x="1050" vert-adv-y="2457" 
d="M775 851l145.999 0.000976562v-851h-146v118c-80 -95.333 -177.667 -143 -293 -143c-126.667 0 -229.667 48.333 -309 145c-67.333 81.333 -101 183.666 -101 306.999c0 143.333 45 256.333 135 339c76.667 70 167.334 105 272.001 105c117.333 0 216 -47 296 -141v121z
M500.999 739.001c-82.667 0 -151.332 -31.667 -205.999 -95c-49.333 -57.333 -74 -128.333 -74 -213c0 -102 29.667 -183.333 89 -244c52 -53.333 115.333 -80 190 -80c91.333 0 164.666 35.333 219.999 106c43.333 55.333 65 126.333 65 213c0 102 -29.667 180.333 -89 235
c-56 52 -121 78 -195 78zM326.001 1037l-84.998 69c12.667 34.667 30 63.667 52 87c36 39.333 77.333 59 124 59c37.333 0 79.666 -14.667 126.999 -44c44 -26.667 75.667 -40 95 -40c35.333 0 67.333 29 96 87l85 -66c-13.333 -34.667 -30.333 -63 -51 -85
c-40 -42 -83 -63 -129 -63c-29.333 0 -68.333 14 -117 42c-50.667 29.333 -87.334 44 -110.001 44c-39.333 0 -68.333 -30 -87 -90z" />
    <glyph glyph-name="adieresis" unicode="&#xe4;" horiz-adv-x="1050" vert-adv-y="2457" 
d="M775 851l145.999 0.000976562v-851h-146v118c-80 -95.333 -177.667 -143 -293 -143c-126.667 0 -229.667 48.333 -309 145c-67.333 81.333 -101 183.666 -101 306.999c0 143.333 45 256.333 135 339c76.667 70 167.334 105 272.001 105c117.333 0 216 -47 296 -141v121z
M500.999 739.001c-82.667 0 -151.332 -31.667 -205.999 -95c-49.333 -57.333 -74 -128.333 -74 -213c0 -102 29.667 -183.333 89 -244c52 -53.333 115.333 -80 190 -80c91.333 0 164.666 35.333 219.999 106c43.333 55.333 65 126.333 65 213c0 102 -29.667 180.333 -89 235
c-56 52 -121 78 -195 78zM353.001 1249c28.667 0 53 -10 73 -30s30 -44 30 -72c0 -28.667 -10 -53 -30 -73c-20.667 -20 -45 -30 -73 -30s-52 10 -72 30s-30 44.667 -30 74c0 27.333 10 51 30 71s44 30 72 30zM709.001 1249c28 0 52 -10 72 -30s30 -44 30 -72
c0 -28.667 -10 -53 -30 -73s-44 -30 -72 -30c-28.667 0 -53 10 -73 30s-30 44.667 -30 74c0 27.333 10 51 30 71c20.667 20 45 30 73 30z" />
    <glyph glyph-name="aring" unicode="&#xe5;" horiz-adv-x="1050" vert-adv-y="2457" 
d="M775 851l145.999 0.000976562v-851h-146v118c-80 -95.333 -177.667 -143 -293 -143c-126.667 0 -229.667 48.333 -309 145c-67.333 81.333 -101 183.666 -101 306.999c0 143.333 45 256.333 135 339c76.667 70 167.334 105 272.001 105c117.333 0 216 -47 296 -141v121z
M500.999 739.001c-82.667 0 -151.332 -31.667 -205.999 -95c-49.333 -57.333 -74 -128.333 -74 -213c0 -102 29.667 -183.333 89 -244c52 -53.333 115.333 -80 190 -80c91.333 0 164.666 35.333 219.999 106c43.333 55.333 65 126.333 65 213c0 102 -29.667 180.333 -89 235
c-56 52 -121 78 -195 78zM530.001 1361c51.333 0 95.333 -18.001 132 -54.001c36 -36 54 -79.667 54 -131s-18 -95.333 -54 -132c-36.667 -36 -80.334 -54 -131.001 -54c-52 0 -96 18 -132 54c-36 36.667 -54 81.334 -54 134.001c0 50 18 93 54 129
c36.667 36 80.334 54 131.001 54zM530.001 1261c-23.333 0 -43.334 -8.33105 -60.001 -24.998s-25 -36.334 -25 -59.001c0 -24.667 8.33301 -45.334 25 -62.001s37 -25 61 -25c23.333 0 43.333 8.33301 60 25s25 37 25 61s-8.33301 44 -25 60
c-17.333 16.667 -37.666 25 -60.999 25z" />
    <glyph glyph-name="ae" unicode="&#xe6;" horiz-adv-x="1553" vert-adv-y="2457" 
d="M1482 395l-666.001 -0.000976562c4 -58 16.333 -106.667 37 -146c23.333 -42.667 55.333 -76.667 96 -102c42.667 -26 88.334 -39 137.001 -39c70.667 0 132.334 25 185.001 75c23.333 22 48.666 56.667 75.999 104l125 -73c-35.333 -58 -71.333 -103.333 -108 -136
c-77.333 -68.667 -170 -103 -278 -103c-90.667 0 -170.667 25 -240 75c-36 26 -66.667 58 -92 96c-25.333 -42.667 -52.666 -75.667 -81.999 -99c-60.667 -48 -140 -72 -238 -72c-125.333 0 -219.666 30.667 -282.999 92c-53.333 52 -80 113 -80 183
c0 86 36.333 157.333 109 214c58 46 138.333 69 241 69c70.667 0 132 -12.667 184 -38c16.667 -8 37 -19.667 61 -35c-1.33301 72.667 -12.333 129.667 -33 171c-36.667 72 -106 108 -208 108c-72 0 -159.667 -17.333 -263 -52v138c110.667 30.667 201 46 271 46
c92 0 169.333 -24 232 -72c37.333 -28 64.666 -61.333 81.999 -100c21.333 36 48.666 66.333 81.999 91c72 54 154.333 81 247 81c102 0 189.667 -31.333 263 -94c96 -81.333 143.667 -208.666 143 -381.999zM1326 518.999c-8.66699 44.667 -22.667 81.667 -42 111
c-48 72 -117 108 -207 108c-93.333 0 -163.333 -37.333 -210 -112c-16.667 -26 -30 -61.667 -40 -107h499zM435.999 400.999c-75.333 0 -133.667 -17.333 -175 -52c-31.333 -27.333 -47 -58.666 -47 -93.999c0 -46 21 -82.667 63 -110c39.333 -25.333 90.333 -38 153 -38
c78 0 137 17.667 177 53c34 29.333 51 62.666 51 99.999c0 40 -20.333 73.667 -61 101c-40 26.667 -93.667 40 -161 40z" />
    <glyph glyph-name="ccedilla" unicode="&#xe7;" horiz-adv-x="867" vert-adv-y="2457" 
d="M789 789l-0.000976562 -192c-44.667 50 -83.667 84 -117 102c-47.333 26 -97.666 39 -150.999 39c-90.667 0 -165 -33.667 -223 -101c-51.333 -60 -77 -131.667 -77 -215c0 -87.333 28 -161.666 84 -222.999c56 -60.667 127.333 -91 214 -91c66.667 0 128 19.667 184 59
c24 17.333 54.333 47.333 91 90v-193c-90.667 -59.333 -180.667 -89 -270 -89c-145.333 0 -261.666 53 -348.999 159c-68.667 83.333 -103 178.666 -103 285.999c0 128 45.667 237 137 327c83.333 82 188.666 123 315.999 123c93.333 0 181.333 -27 264 -81zM600.999 -151
l-207 -263l-101 51l172 267z" />
    <glyph glyph-name="egrave" unicode="&#xe8;" horiz-adv-x="961" vert-adv-y="2457" 
d="M889 395l-662.999 0.000976562c2.66699 -58 14.667 -107 36 -147c24 -44.667 56.667 -79.334 98 -104.001s86.666 -37 135.999 -37c72 0 132.333 23.667 181 71c23.333 22 50.333 58 81 108l123 -69c-34 -59.333 -69 -105 -105 -137c-78.667 -70 -173.667 -105 -285 -105
c-136 0 -244 49.333 -324 148c-63.333 78.667 -95 177.667 -95 297c0 138 40.333 248.667 121 332c76 78.667 173 118 291 118c106.667 0 197 -33.333 271 -100c89.333 -80 134 -196.333 134 -349v-26zM735.001 518.001c-9.33301 47.333 -25.667 87.001 -49 119.001
c-50 67.333 -116.667 101 -200 101c-87.333 0 -157 -37.667 -209 -113c-20.667 -30.667 -34.667 -66.334 -42 -107.001h500zM242 1275l152 68l215 -296l-91 -51z" />
    <glyph glyph-name="eacute" unicode="&#xe9;" horiz-adv-x="961" vert-adv-y="2457" 
d="M889 395l-662.999 0.000976562c2.66699 -58 14.667 -107 36 -147c24 -44.667 56.667 -79.334 98 -104.001s86.666 -37 135.999 -37c72 0 132.333 23.667 181 71c23.333 22 50.333 58 81 108l123 -69c-34 -59.333 -69 -105 -105 -137c-78.667 -70 -173.667 -105 -285 -105
c-136 0 -244 49.333 -324 148c-63.333 78.667 -95 177.667 -95 297c0 138 40.333 248.667 121 332c76 78.667 173 118 291 118c106.667 0 197 -33.333 271 -100c89.333 -80 134 -196.333 134 -349v-26zM735.001 518.001c-9.33301 47.333 -25.667 87.001 -49 119.001
c-50 67.333 -116.667 101 -200 101c-87.333 0 -157 -37.667 -209 -113c-20.667 -30.667 -34.667 -66.334 -42 -107.001h500zM759 1275l-275 -279l-92 51l216 296z" />
    <glyph glyph-name="ecircumflex" unicode="&#xea;" horiz-adv-x="961" vert-adv-y="2457" 
d="M889 395l-662.999 0.000976562c2.66699 -58 14.667 -107 36 -147c24 -44.667 56.667 -79.334 98 -104.001s86.666 -37 135.999 -37c72 0 132.333 23.667 181 71c23.333 22 50.333 58 81 108l123 -69c-34 -59.333 -69 -105 -105 -137c-78.667 -70 -173.667 -105 -285 -105
c-136 0 -244 49.333 -324 148c-63.333 78.667 -95 177.667 -95 297c0 138 40.333 248.667 121 332c76 78.667 173 118 291 118c106.667 0 197 -33.333 271 -100c89.333 -80 134 -196.333 134 -349v-26zM735.001 518.001c-9.33301 47.333 -25.667 87.001 -49 119.001
c-50 67.333 -116.667 101 -200 101c-87.333 0 -157 -37.667 -209 -113c-20.667 -30.667 -34.667 -66.334 -42 -107.001h500zM218 1077l282 266l284 -266l-105 -80l-179 169l-180 -170z" />
    <glyph glyph-name="edieresis" unicode="&#xeb;" horiz-adv-x="961" vert-adv-y="2457" 
d="M889 395l-662.999 0.000976562c2.66699 -58 14.667 -107 36 -147c24 -44.667 56.667 -79.334 98 -104.001s86.666 -37 135.999 -37c72 0 132.333 23.667 181 71c23.333 22 50.333 58 81 108l123 -69c-34 -59.333 -69 -105 -105 -137c-78.667 -70 -173.667 -105 -285 -105
c-136 0 -244 49.333 -324 148c-63.333 78.667 -95 177.667 -95 297c0 138 40.333 248.667 121 332c76 78.667 173 118 291 118c106.667 0 197 -33.333 271 -100c89.333 -80 134 -196.333 134 -349v-26zM735.001 518.001c-9.33301 47.333 -25.667 87.001 -49 119.001
c-50 67.333 -116.667 101 -200 101c-87.333 0 -157 -37.667 -209 -113c-20.667 -30.667 -34.667 -66.334 -42 -107.001h500zM323 1249c28.667 0 53 -10.001 73 -30.001s30 -44 30 -72c0 -28.667 -10 -53 -30 -73c-20.667 -20 -45 -30 -73 -30s-52 10 -72 30
c-20 20.667 -30 45.334 -30 74.001c0 27.333 10 51 30 71s44 30 72 30zM679 1249c28 0 52 -10.001 72 -30.001s30 -44 30 -72c0 -28.667 -10 -53 -30 -73s-44 -30 -72 -30s-52.333 10 -73 30c-20 20.667 -30 45.334 -30 74.001c0 27.333 10 51 30 71c20.667 20 45 30 73 30z
" />
    <glyph glyph-name="igrave" unicode="&#xec;" horiz-adv-x="403" vert-adv-y="2457" 
d="M275 851v-851h-146v851h146zM-36 1275l151 68l175 -296l-84 -51z" />
    <glyph glyph-name="iacute" unicode="&#xed;" horiz-adv-x="403" vert-adv-y="2457" 
d="M275 851v-851h-146v851h146zM440 1275l-242 -279l-84 51l175 296z" />
    <glyph glyph-name="icircumflex" unicode="&#xee;" horiz-adv-x="403" vert-adv-y="2457" 
d="M274 851v-851h-146v851h146zM-41 1077l241 266l244 -266l-98 -80l-146 169l-145 -170z" />
    <glyph glyph-name="idieresis" unicode="&#xef;" horiz-adv-x="403" vert-adv-y="2457" 
d="M275 851v-851h-146v851h146zM69 1246c27.333 0 50.666 -9.66895 69.999 -29.002c19.333 -18.667 29 -41.667 29 -69s-9.66699 -50.666 -29 -69.999s-42.666 -29 -69.999 -29s-50.333 9.66699 -69 29c-19.333 19.333 -29 43 -29 71c0 26.667 9.66699 49.334 29 68.001
c19.333 19.333 42.333 29 69 29zM335 1246c27.333 0 50.333 -9.66895 69 -29.002c19.333 -18.667 29 -41.667 29 -69s-9.66699 -50.666 -29 -69.999c-18.667 -19.333 -41.667 -29 -69 -29s-50.666 9.66699 -69.999 29s-29 43 -29 71c0 26.667 9.66699 49.334 29 68.001
c19.333 19.333 42.666 29 69.999 29z" />
    <glyph glyph-name="eth" unicode="&#xf0;" horiz-adv-x="1046" vert-adv-y="2457" 
d="M144 1410l59.001 88.999c113.333 -31.333 220.666 -76.666 321.999 -135.999l226 113l84 -82l-210 -110c90 -82 166.667 -185 230 -309c39.333 -77.333 69.333 -166.333 90 -267c18.667 -88.667 28 -174 28 -256c0 -160 -49.333 -282.667 -148 -368
c-84 -72.667 -183.667 -109 -299 -109c-142 0 -257 51 -345 153c-71.333 82 -107 179.667 -107 293c0 132 46.667 241.333 140 328c88 81.333 193.333 122 316 122c62 0 116 -11.667 162 -35c30.667 -14.667 66.667 -46 108 -94c-22 80.667 -45 143.667 -69 189
c-68 128 -142 225.333 -222 292l-221 -114l-91 84l202 105c-66 42.667 -151 80 -255 112zM523.001 738.999c-97.333 0 -174.667 -36.6689 -232 -110.002c-45.333 -57.333 -68 -124.666 -68 -201.999c0 -98 30 -176.667 90 -236c56 -56 125 -84 207 -84
c100 0 179.333 36.667 238 110c44.667 54.667 67 123.334 67 206.001c0 96 -30 173.333 -90 232c-57.333 56 -128 84 -212 84z" />
    <glyph glyph-name="ntilde" unicode="&#xf1;" horiz-adv-x="938" vert-adv-y="2457" 
d="M128 851l146.001 0.000976562v-103c26.667 32.667 50.667 56.667 72 72c47.333 34 104.666 51 171.999 51c70 0 131 -18.667 183 -56c51.333 -36 84 -89 98 -159c6.66699 -32.667 10 -75.334 10 -128.001v-528h-146v503c0 79.333 -9.33301 134.333 -28 165
c-28.667 47.333 -78.667 71 -150 71c-85.333 0 -144 -33.667 -176 -101c-23.333 -48 -35 -119 -35 -213v-425h-146v851zM250.001 1037l-85 69c12.667 34.667 30 63.667 52 87c36 39.333 77.333 59 124 59c38 0 80.333 -14.667 127 -44c44 -26.667 76 -40 96 -40
c34.667 0 66.334 29 95.001 87l86 -66c-14 -34.667 -31.333 -63 -52 -85c-40 -42 -83 -63 -129 -63c-29.333 0 -68.333 14 -117 42c-50.667 29.333 -87.334 44 -110.001 44c-38.667 0 -67.667 -30 -87 -90z" />
    <glyph glyph-name="ograve" unicode="&#xf2;" horiz-adv-x="1043" vert-adv-y="2457" 
d="M521 870c134 0 245.333 -48.667 334 -146c76.667 -84 115 -184.333 115 -301c0 -136 -49.667 -248 -149 -336c-84 -74.667 -185 -112 -303 -112c-81.333 0 -157.333 20.667 -228 62c-72 42.667 -127.333 101 -166 175c-34.667 65.333 -52 138 -52 218
c0 124 46.667 230.333 140 319c85.333 80.667 188.333 121 309 121zM520 738c-97.333 0 -174.667 -36.667 -232 -110c-44.667 -57.333 -67 -124.333 -67 -201c0 -98 29.667 -176.667 89 -236c56 -56 125 -84 207 -84c100 0 179.333 36.333 238 109c44 55.333 66 124 66 206
c0 96 -30 173.333 -90 232c-56.667 56 -127 84 -211 84zM262.999 1275l151 68l216 -296l-91 -51z" />
    <glyph glyph-name="oacute" unicode="&#xf3;" horiz-adv-x="1043" vert-adv-y="2457" 
d="M521 870c134 0 245.333 -48.667 334 -146c76.667 -84 115 -184.333 115 -301c0 -136 -49.667 -248 -149 -336c-84 -74.667 -185 -112 -303 -112c-81.333 0 -157.333 20.667 -228 62c-72 42.667 -127.333 101 -166 175c-34.667 65.333 -52 138 -52 218
c0 124 46.667 230.333 140 319c85.333 80.667 188.333 121 309 121zM520 738c-97.333 0 -174.667 -36.667 -232 -110c-44.667 -57.333 -67 -124.333 -67 -201c0 -98 29.667 -176.667 89 -236c56 -56 125 -84 207 -84c100 0 179.333 36.333 238 109c44 55.333 66 124 66 206
c0 96 -30 173.333 -90 232c-56.667 56 -127 84 -211 84zM786.999 1275l-276 -279l-91 51l215 296z" />
    <glyph glyph-name="ocircumflex" unicode="&#xf4;" horiz-adv-x="1043" vert-adv-y="2457" 
d="M521 870c134 0 245.333 -48.667 334 -146c76.667 -84 115 -184.333 115 -301c0 -136 -49.667 -248 -149 -336c-84 -74.667 -185 -112 -303 -112c-81.333 0 -157.333 20.667 -228 62c-72 42.667 -127.333 101 -166 175c-34.667 65.333 -52 138 -52 218
c0 124 46.667 230.333 140 319c85.333 80.667 188.333 121 309 121zM520 738c-97.333 0 -174.667 -36.667 -232 -110c-44.667 -57.333 -67 -124.333 -67 -201c0 -98 29.667 -176.667 89 -236c56 -56 125 -84 207 -84c100 0 179.333 36.333 238 109c44 55.333 66 124 66 206
c0 96 -30 173.333 -90 232c-56.667 56 -127 84 -211 84zM244.999 1077l282 266l284 -266l-105 -80l-179 169l-180 -170z" />
    <glyph glyph-name="otilde" unicode="&#xf5;" horiz-adv-x="1043" vert-adv-y="2457" 
d="M521 870c134 0 245.333 -48.667 334 -146c76.667 -84 115 -184.333 115 -301c0 -136 -49.667 -248 -149 -336c-84 -74.667 -185 -112 -303 -112c-81.333 0 -157.333 20.667 -228 62c-72 42.667 -127.333 101 -166 175c-34.667 65.333 -52 138 -52 218
c0 124 46.667 230.333 140 319c85.333 80.667 188.333 121 309 121zM520 738c-97.333 0 -174.667 -36.667 -232 -110c-44.667 -57.333 -67 -124.333 -67 -201c0 -98 29.667 -176.667 89 -236c56 -56 125 -84 207 -84c100 0 179.333 36.333 238 109c44 55.333 66 124 66 206
c0 96 -30 173.333 -90 232c-56.667 56 -127 84 -211 84zM333.999 1037l-84.999 69c12.667 34.667 29.667 63.667 51 87c36 39.333 77.333 59 124 59c38 0 80.667 -14.667 128 -44c43.333 -26.667 75 -40 95 -40c34.667 0 66.667 29 96 87l85 -66
c-13.333 -34.667 -30.666 -63 -51.999 -85c-39.333 -42 -82.333 -63 -129 -63c-28.667 0 -67.334 14 -116.001 42c-50.667 29.333 -87.667 44 -111 44c-38.667 0 -67.334 -30 -86.001 -90z" />
    <glyph glyph-name="odieresis" unicode="&#xf6;" horiz-adv-x="1043" vert-adv-y="2457" 
d="M521 870c134 0 245.333 -48.667 334 -146c76.667 -84 115 -184.333 115 -301c0 -136 -49.667 -248 -149 -336c-84 -74.667 -185 -112 -303 -112c-81.333 0 -157.333 20.667 -228 62c-72 42.667 -127.333 101 -166 175c-34.667 65.333 -52 138 -52 218
c0 124 46.667 230.333 140 319c85.333 80.667 188.333 121 309 121zM520 738c-97.333 0 -174.667 -36.667 -232 -110c-44.667 -57.333 -67 -124.333 -67 -201c0 -98 29.667 -176.667 89 -236c56 -56 125 -84 207 -84c100 0 179.333 36.333 238 109c44 55.333 66 124 66 206
c0 96 -30 173.333 -90 232c-56.667 56 -127 84 -211 84zM342.999 1249c28.667 0 53 -10 73 -30s30 -44 30 -72c0 -28.667 -10 -53 -30 -73c-20.667 -20 -45 -30 -73 -30s-52 10 -72 30s-30 44.667 -30 74c0 27.333 10 51 30 71s44 30 72 30zM698.999 1249
c28 0 52 -10.001 72 -30.001s30 -44 30 -72c0 -28.667 -10 -53 -30 -73s-44 -30 -72 -30c-28.667 0 -53 10 -73 30c-20 20.667 -30 45.334 -30 74.001c0 27.333 10 51 30 71c20.667 20 45 30 73 30z" />
    <glyph glyph-name="divide" unicode="&#xf7;" horiz-adv-x="1139" vert-adv-y="2457" 
d="M88 633v126h964v-126h-964zM570 524c26.667 0 49.335 -9.33105 68.002 -27.998s28 -41.334 28 -68.001s-9.33301 -49.334 -28 -68.001s-41.334 -28 -68.001 -28s-49.334 9.33301 -68.001 28c-18.667 19.333 -28 42.333 -28 69c0 26 9.33301 48.333 28 67
c19.333 18.667 42 28 68 28zM570.001 1061c26.667 0 49.335 -9.33105 68.002 -27.998s28 -41.334 28 -68.001s-9.33301 -49.334 -28 -68.001s-41.334 -28 -68.001 -28s-49.334 9.33301 -68.001 28c-18.667 19.333 -28 42.333 -28 69c0 26 9.33301 48.333 28 67
c19.333 18.667 42 28 68 28z" />
    <glyph glyph-name="oslash" unicode="&#xf8;" horiz-adv-x="1043" vert-adv-y="2457" 
d="M162 153c-59.333 78.667 -88.999 169.667 -88.999 273c0 128 46.667 236 140 324c86 80 189 120 309 120c100.667 0 190.667 -30 270 -90l121 121l82 -81l-121 -121c12 -12 22 -24.333 30 -37c44.667 -72 67 -152.333 67 -241c0 -134 -49.667 -245.333 -149 -334
c-84 -74.667 -183.333 -112 -298 -112c-98.667 0 -191.334 31 -278.001 93l-123 -121l-82 84zM266.001 251l424.999 432.999c-46 36 -102.667 54 -170 54c-97.333 0 -174.666 -36.333 -231.999 -109c-44.667 -57.333 -67 -127 -67 -209
c0 -63.333 14.667 -119.666 44 -168.999zM772 601.999l-427 -436.999c43.333 -38.667 102 -58 176 -58c97.333 0 175.333 36.667 234 110c44.667 55.333 67 123.666 67 204.999c0 71.333 -16.667 131.333 -50 180z" />
    <glyph glyph-name="ugrave" unicode="&#xf9;" horiz-adv-x="931" vert-adv-y="2457" 
d="M274 851l0.000976562 -496.999c0 -73.333 8.66699 -126.333 26 -159c15.333 -28.667 38.666 -50.667 69.999 -66c29.333 -14.667 61 -22 95 -22c50.667 0 93.334 14.333 128.001 43c30.667 25.333 49.667 61.333 57 108c4 24 6 56 6 96v497h146v-513
c0 -80.667 -10 -142.334 -30 -185.001c-28 -61.333 -73.667 -108 -137 -140c-50.667 -25.333 -107.334 -38 -170.001 -38c-109.333 0 -196 35.667 -260 107c-34 38 -56 80 -66 126c-7.33301 36 -11 79.333 -11 130v513h146zM207.001 1275l151 68l216 -296l-91 -51z" />
    <glyph glyph-name="uacute" unicode="&#xfa;" horiz-adv-x="931" vert-adv-y="2457" 
d="M274 851l0.000976562 -496.999c0 -73.333 8.66699 -126.333 26 -159c15.333 -28.667 38.666 -50.667 69.999 -66c29.333 -14.667 61 -22 95 -22c50.667 0 93.334 14.333 128.001 43c30.667 25.333 49.667 61.333 57 108c4 24 6 56 6 96v497h146v-513
c0 -80.667 -10 -142.334 -30 -185.001c-28 -61.333 -73.667 -108 -137 -140c-50.667 -25.333 -107.334 -38 -170.001 -38c-109.333 0 -196 35.667 -260 107c-34 38 -56 80 -66 126c-7.33301 36 -11 79.333 -11 130v513h146zM724.001 1275l-276 -279l-91 51l216 296z" />
    <glyph glyph-name="ucircumflex" unicode="&#xfb;" horiz-adv-x="931" vert-adv-y="2457" 
d="M274 851l0.000976562 -496.999c0 -73.333 8.66699 -126.333 26 -159c15.333 -28.667 38.666 -50.667 69.999 -66c29.333 -14.667 61 -22 95 -22c50.667 0 93.334 14.333 128.001 43c30.667 25.333 49.667 61.333 57 108c4 24 6 56 6 96v497h146v-513
c0 -80.667 -10 -142.334 -30 -185.001c-28 -61.333 -73.667 -108 -137 -140c-50.667 -25.333 -107.334 -38 -170.001 -38c-109.333 0 -196 35.667 -260 107c-34 38 -56 80 -66 126c-7.33301 36 -11 79.333 -11 130v513h146zM182.001 1077l282 266l285 -266l-105 -80
l-180 169l-179 -170z" />
    <glyph glyph-name="udieresis" unicode="&#xfc;" horiz-adv-x="931" vert-adv-y="2457" 
d="M274 851l0.000976562 -496.999c0 -73.333 8.66699 -126.333 26 -159c15.333 -28.667 38.666 -50.667 69.999 -66c29.333 -14.667 61 -22 95 -22c50.667 0 93.334 14.333 128.001 43c30.667 25.333 49.667 61.333 57 108c4 24 6 56 6 96v497h146v-513
c0 -80.667 -10 -142.334 -30 -185.001c-28 -61.333 -73.667 -108 -137 -140c-50.667 -25.333 -107.334 -38 -170.001 -38c-109.333 0 -196 35.667 -260 107c-34 38 -56 80 -66 126c-7.33301 36 -11 79.333 -11 130v513h146zM287.001 1249c28.667 0 53 -10.001 73 -30.001
s30 -44 30 -72c0 -28.667 -10 -53 -30 -73c-20.667 -20 -45 -30 -73 -30s-52 10 -72 30c-20 20.667 -30 45.334 -30 74.001c0 27.333 10 51 30 71s44 30 72 30zM643.001 1249c28 0 52 -10.001 72 -30.001s30 -44 30 -72c0 -28.667 -10 -53 -30 -73s-44 -30 -72 -30
c-28.667 0 -53 10 -73 30c-20 20.667 -30 45.334 -30 74.001c0 27.333 10 51 30 71c20.667 20 45 30 73 30z" />
    <glyph glyph-name="yacute" unicode="&#xfd;" horiz-adv-x="920" vert-adv-y="2457" 
d="M396 81l-391 770h169l300 -609l275 609h165l-628 -1330h-165zM718 1275l-276 -279l-91 51l216 296z" />
    <glyph glyph-name="thorn" unicode="&#xfe;" horiz-adv-x="1050" vert-adv-y="2457" 
d="M274 -479l-146 -0.000976562v1973h146v-764c78 93.333 176 140 294 140c126 0 228.667 -48 308 -144c67.333 -81.333 101 -183.666 101 -306.999c0 -142.667 -45 -255.667 -135 -339c-76.667 -70 -167 -105 -271 -105c-116.667 0 -215.667 48 -297 144v-598zM550 737.999
c-90.667 0 -163.666 -35 -218.999 -105c-43.333 -55.333 -65 -126.333 -65 -213c0 -102 29.667 -180.333 89 -235c55.333 -52 120 -78 194 -78c83.333 0 151.666 31.667 204.999 95c49.333 57.333 74 128.333 74 213c0 100.667 -29.667 182 -89 244
c-50.667 52.667 -113.667 79 -189 79z" />
    <glyph glyph-name="ydieresis" unicode="&#xff;" horiz-adv-x="920" vert-adv-y="2457" 
d="M396 81l-391 770h169l300 -609l275 609h165l-628 -1330h-165zM282 1249c28.667 0 53 -10 73 -30s30 -44 30 -72c0 -28.667 -10 -53 -30 -73c-20.667 -20 -45 -30 -73 -30s-52 10 -72 30s-30 44.667 -30 74c0 27.333 10 51 30 71s44 30 72 30zM638 1249
c28 0 52 -10.001 72 -30.001s30 -44 30 -72c0 -28.667 -10 -53 -30 -73s-44 -30 -72 -30c-28.667 0 -53 10 -73 30c-20 20.667 -30 45.334 -30 74.001c0 27.333 10 51 30 71c20.667 20 45 30 73 30z" />
    <glyph glyph-name="Amacron" unicode="&#x100;" horiz-adv-x="1242" vert-adv-y="2457" 
d="M914 386h-583l-165 -386h-166l629 1430l613 -1430h-167zM854 528l-228 547l-233 -547h461zM328 1687h600v-127h-600v127z" />
    <glyph glyph-name="amacron" unicode="&#x101;" horiz-adv-x="1050" vert-adv-y="2457" 
d="M775 851l145.999 0.000976562v-851h-146v118c-80 -95.333 -177.667 -143 -293 -143c-126.667 0 -229.667 48.333 -309 145c-67.333 81.333 -101 183.666 -101 306.999c0 143.333 45 256.333 135 339c76.667 70 167.334 105 272.001 105c117.333 0 216 -47 296 -141v121z
M500.999 739.001c-82.667 0 -151.332 -31.667 -205.999 -95c-49.333 -57.333 -74 -128.333 -74 -213c0 -102 29.667 -183.333 89 -244c52 -53.333 115.333 -80 190 -80c91.333 0 164.666 35.333 219.999 106c43.333 55.333 65 126.333 65 213c0 102 -29.667 180.333 -89 235
c-56 52 -121 78 -195 78zM256.001 1201h550v-123h-550v123z" />
    <glyph glyph-name="Abreve" unicode="&#x102;" horiz-adv-x="1242" vert-adv-y="2457" 
d="M914 386h-583l-165 -386h-166l629 1430l613 -1430h-167zM854 528l-228 547l-233 -547h461zM344 1764h130.999c11.333 -44 26 -75.333 44 -94c27.333 -28 63.333 -42 108 -42c80.667 0 132 45.333 154 136h131c-8 -68 -29.333 -123 -64 -165
c-54.667 -67.333 -128 -101 -220 -101c-97.333 0 -172.666 33.667 -225.999 101c-32 40 -51.333 95 -58 165z" />
    <glyph glyph-name="abreve" unicode="&#x103;" horiz-adv-x="1050" vert-adv-y="2457" 
d="M775 851l145.999 0.000976562v-851h-146v118c-80 -95.333 -177.667 -143 -293 -143c-126.667 0 -229.667 48.333 -309 145c-67.333 81.333 -101 183.666 -101 306.999c0 143.333 45 256.333 135 339c76.667 70 167.334 105 272.001 105c117.333 0 216 -47 296 -141v121z
M500.999 739.001c-82.667 0 -151.332 -31.667 -205.999 -95c-49.333 -57.333 -74 -128.333 -74 -213c0 -102 29.667 -183.333 89 -244c52 -53.333 115.333 -80 190 -80c91.333 0 164.666 35.333 219.999 106c43.333 55.333 65 126.333 65 213c0 102 -29.667 180.333 -89 235
c-56 52 -121 78 -195 78zM262.001 1297h127.002c3.33301 -40.667 15.666 -73 36.999 -97c26.667 -30.667 60.667 -46 102 -46c39.333 0 72.333 13.667 99 41c23.333 24 38.666 58 45.999 102h126c-7.33301 -66.667 -28.333 -121.667 -63 -165
c-53.333 -67.333 -122.333 -101 -207 -101c-88 0 -158.667 33.667 -212 101c-34.667 44 -53 99 -55 165z" />
    <glyph glyph-name="Aogonek" unicode="&#x104;" horiz-adv-x="1242" vert-adv-y="2457" 
d="M1242 0c-102.667 -65.333 -153.998 -126.333 -153.998 -183c0 -26 10 -46.667 30 -62c14.667 -12 32 -18 52 -18c34 0 71 11.333 111 34l-15 -125c-32.667 -22 -72.334 -33 -119.001 -33c-32.667 0 -62.334 6.33301 -89.001 19c-36 16 -63.667 40 -83 72
c-16 27.333 -24 56.666 -24 87.999c0 49.333 20.333 95 61 137c20.667 20.667 53 44.334 97 71.001h-34l-161 386h-583l-165 -386h-166l629 1430zM854.002 528l-228 547l-233 -547h461z" />
    <glyph glyph-name="aogonek" unicode="&#x105;" horiz-adv-x="1050" vert-adv-y="2457" 
d="M921 0c-98 -68.667 -147 -128.332 -147 -178.999c0 -22.667 8.66699 -41.667 26 -57c13.333 -12.667 30.666 -19 51.999 -19c32 0 67 9 105 27l-19 -112c-34 -18.667 -69.667 -28 -107 -28c-36.667 0 -68.667 7.66699 -96 23c-26 15.333 -47 36.666 -63 63.999
c-13.333 24.667 -20 49.334 -20 74.001c0 72 51 141 153 207h-30v118c-80 -95.333 -177.667 -143 -293 -143c-126.667 0 -229.667 48.333 -309 145c-67.333 81.333 -101 183.666 -101 306.999c0 143.333 45 256.333 135 339c76.667 70 167.334 105 272.001 105
c117.333 0 216 -47 296 -141v121h146v-851zM501 739.002c-82.667 0 -151.332 -31.667 -205.999 -95c-49.333 -57.333 -74 -128.333 -74 -213c0 -102 29.667 -183.333 89 -244c52 -53.333 115.333 -80 190 -80c91.333 0 164.666 35.333 219.999 106
c43.333 55.333 65 126.333 65 213c0 102 -29.667 180.333 -89 235c-56 52 -121 78 -195 78z" />
    <glyph glyph-name="Cacute" unicode="&#x106;" horiz-adv-x="1293" vert-adv-y="2457" 
d="M1204 1253l-0.000976562 -188.997c-58 55.333 -112 95.333 -162 120c-82 40.667 -165.667 61 -251 61c-97.333 0 -189 -26 -275 -78c-93.333 -56 -164.666 -132.667 -213.999 -230c-41.333 -81.333 -62 -168.333 -62 -261c0 -169.333 62.667 -308 188 -416
c108.667 -94.667 230 -142 364 -142c100.667 0 197.667 28 291 84c34 20 74.333 51.667 121 95v-189c-129.333 -88.667 -266.333 -133 -411 -133c-114.667 0 -223.667 27.333 -327 82c-131.333 69.333 -231.333 168.666 -300 297.999
c-53.333 101.333 -80 208.666 -80 321.999c0 117.333 28.333 228.666 85 333.999c64.667 120.667 155.667 214.667 273 282c110 63.333 229 95 357 95c98.667 0 191.667 -20 279 -60c34.667 -16.667 76 -41.667 124 -75zM1058 1715l-294 -239l-88 65l245 265z" />
    <glyph glyph-name="cacute" unicode="&#x107;" horiz-adv-x="868" vert-adv-y="2457" 
d="M789 789l-0.000976562 -192c-44.667 50 -83.667 84 -117 102c-47.333 26 -97.666 39 -150.999 39c-90.667 0 -164.667 -33.667 -222 -101c-52 -60 -78 -131.667 -78 -215c0 -87.333 28 -161.666 84 -222.999c56 -60.667 127.333 -91 214 -91c66.667 0 128 19.667 184 59
c24 17.333 54.333 47.333 91 90v-193c-90.667 -59.333 -180.667 -89 -270 -89c-145.333 0 -261.666 53 -348.999 159c-68.667 83.333 -103 178.666 -103 285.999c0 128 45.667 237 137 327c83.333 82 188.666 123 315.999 123c93.333 0 181.333 -27 264 -81zM779.999 1275
l-275 -279l-92 51l216 296z" />
    <glyph glyph-name="Ccircumflex" unicode="&#x108;" horiz-adv-x="1293" vert-adv-y="2457" 
d="M1204 1253l-0.000976562 -188.997c-58 55.333 -112 95.333 -162 120c-82 40.667 -165.667 61 -251 61c-97.333 0 -189 -26 -275 -78c-93.333 -56 -164.666 -132.667 -213.999 -230c-41.333 -81.333 -62 -168.333 -62 -261c0 -169.333 62.667 -308 188 -416
c108.667 -94.667 230 -142 364 -142c100.667 0 197.667 28 291 84c34 20 74.333 51.667 121 95v-189c-129.333 -88.667 -266.333 -133 -411 -133c-114.667 0 -223.667 27.333 -327 82c-131.333 69.333 -231.333 168.666 -300 297.999
c-53.333 101.333 -80 208.666 -80 321.999c0 117.333 28.333 228.666 85 333.999c64.667 120.667 155.667 214.667 273 282c110 63.333 229 95 357 95c98.667 0 191.667 -20 279 -60c34.667 -16.667 76 -41.667 124 -75zM504.999 1561l286 243l287 -244l-108 -83l-179 155
l-180 -155z" />
    <glyph glyph-name="Cdotaccent" unicode="&#x10a;" horiz-adv-x="1293" vert-adv-y="2457" 
d="M1204 1253l-0.000976562 -188.997c-58 55.333 -112 95.333 -162 120c-82 40.667 -165.667 61 -251 61c-97.333 0 -189 -26 -275 -78c-93.333 -56 -164.666 -132.667 -213.999 -230c-41.333 -81.333 -62 -168.333 -62 -261c0 -169.333 62.667 -308 188 -416
c108.667 -94.667 230 -142 364 -142c100.667 0 197.667 28 291 84c34 20 74.333 51.667 121 95v-189c-129.333 -88.667 -266.333 -133 -411 -133c-114.667 0 -223.667 27.333 -327 82c-131.333 69.333 -231.333 168.666 -300 297.999
c-53.333 101.333 -80 208.666 -80 321.999c0 117.333 28.333 228.666 85 333.999c64.667 120.667 155.667 214.667 273 282c110 63.333 229 95 357 95c98.667 0 191.667 -20 279 -60c34.667 -16.667 76 -41.667 124 -75zM790.999 1741c30.667 0 56.667 -10.666 78 -31.999
s32 -47 32 -77c0 -30.667 -10.667 -56.667 -32 -78s-47 -32 -77 -32c-30.667 0 -56.667 10.667 -78 32c-21.333 22 -32 48.333 -32 79c0 29.333 10.667 54.666 32 75.999c22 21.333 47.667 32 77 32z" />
    <glyph glyph-name="cdotaccent" unicode="&#x10b;" horiz-adv-x="867" vert-adv-y="2457" 
d="M789 789l-0.000976562 -192c-44.667 50 -83.667 84 -117 102c-47.333 26 -97.666 39 -150.999 39c-90.667 0 -164.667 -33.667 -222 -101c-52 -60 -78 -131.667 -78 -215c0 -87.333 28 -161.666 84 -222.999c56 -60.667 127.333 -91 214 -91c66.667 0 128 19.667 184 59
c24 17.333 54.333 47.333 91 90v-193c-90.667 -59.333 -180.667 -89 -270 -89c-145.333 0 -261.666 53 -348.999 159c-68.667 83.333 -103 178.666 -103 285.999c0 128 45.667 237 137 327c83.333 82 188.666 123 315.999 123c93.333 0 181.333 -27 264 -81zM514.999 1250
c29.333 0 54 -10.333 74 -31c20.667 -20 31 -44.333 31 -73c0 -29.333 -10.333 -54 -31 -74c-20 -20.667 -44.333 -31 -73 -31c-29.333 0 -54 10.333 -74 31c-20.667 20.667 -31 45.667 -31 75c0 28 10.333 52 31 72c20.667 20.667 45 31 73 31z" />
    <glyph glyph-name="Ccaron" unicode="&#x10c;" horiz-adv-x="1293" vert-adv-y="2457" 
d="M1204 1253l-0.000976562 -188.997c-58 55.333 -112 95.333 -162 120c-82 40.667 -165.667 61 -251 61c-97.333 0 -189 -26 -275 -78c-93.333 -56 -164.666 -132.667 -213.999 -230c-41.333 -81.333 -62 -168.333 -62 -261c0 -169.333 62.667 -308 188 -416
c108.667 -94.667 230 -142 364 -142c100.667 0 197.667 28 291 84c34 20 74.333 51.667 121 95v-189c-129.333 -88.667 -266.333 -133 -411 -133c-114.667 0 -223.667 27.333 -327 82c-131.333 69.333 -231.333 168.666 -300 297.999
c-53.333 101.333 -80 208.666 -80 321.999c0 117.333 28.333 228.666 85 333.999c64.667 120.667 155.667 214.667 273 282c110 63.333 229 95 357 95c98.667 0 191.667 -20 279 -60c34.667 -16.667 76 -41.667 124 -75zM1078 1721l-285 -244l-288 244l109 83l179 -154
l180 154z" />
    <glyph glyph-name="ccaron" unicode="&#x10d;" horiz-adv-x="868" vert-adv-y="2457" 
d="M789 789l-0.000976562 -192c-44.667 50 -83.667 84 -117 102c-47.333 26 -97.666 39 -150.999 39c-90.667 0 -164.667 -33.667 -222 -101c-52 -60 -78 -131.667 -78 -215c0 -87.333 28 -161.666 84 -222.999c56 -60.667 127.333 -91 214 -91c66.667 0 128 19.667 184 59
c24 17.333 54.333 47.333 91 90v-193c-90.667 -59.333 -180.667 -89 -270 -89c-145.333 0 -261.666 53 -348.999 159c-68.667 83.333 -103 178.666 -103 285.999c0 128 45.667 237 137 327c83.333 82 188.666 123 315.999 123c93.333 0 181.333 -27 264 -81zM797.999 1263
l-282 -267l-284 267l105 80l179 -169l180 169z" />
    <glyph glyph-name="Dcaron" unicode="&#x10e;" horiz-adv-x="1267" vert-adv-y="2457" 
d="M164 0v1365h280c142 0 259 -20.667 351 -62c134.667 -61.333 236.667 -157 306 -287c53.333 -98.667 80 -209.667 80 -333c0 -218 -80 -393 -240 -525c-82 -68.667 -169.667 -113.667 -263 -135c-68 -15.333 -146.667 -23 -236 -23h-278zM317 142h133.001
c161.333 0 291.666 41.667 390.999 125c124 104 186 242.333 186 415c0 116 -30 219.667 -90 311c-102 153.333 -264.333 230 -487 230h-133v-1081zM853.001 1721l-285 -244l-288 244l109 83l179 -154l180 154z" />
    <glyph glyph-name="dcaron" unicode="&#x10f;" horiz-adv-x="1243" vert-adv-y="2457" 
d="M775 1494l146 0.000976562v-1494h-146v118c-78 -95.333 -176 -143 -294 -143c-125.333 0 -228 48.333 -308 145c-67.333 81.333 -101 183.666 -101 306.999c0 142 45.333 254.667 136 338c76 70 166 105 270 105c117.333 0 216.333 -47 297 -141v765zM501 738.001
c-82.667 0 -151.333 -31.667 -206 -95c-49.333 -57.333 -74 -128 -74 -212c0 -102 29.667 -183.667 89 -245c52 -52.667 115.667 -79 191 -79c91.333 0 164.333 35 219 105c43.333 56 65 127.333 65 214c0 101.333 -29.667 179.333 -89 234c-55.333 52 -120.333 78 -195 78z
M1112 1501l142 -43l-134 -314l-104 32z" />
    <glyph glyph-name="Dcroat" unicode="&#x110;" horiz-adv-x="1267" vert-adv-y="2457" 
d="M166 0v667h-137v137h137v561h279c141.333 0 258 -20.667 350 -62c134.667 -61.333 236.667 -157 306 -287c53.333 -98.667 80 -210 80 -334c0 -217.333 -80 -392 -240 -524c-82 -68 -169.667 -113 -263 -135c-68 -15.333 -146.333 -23 -235 -23h-277zM319 142h132
c160.667 0 290.667 41.667 390 125c124 104 186 242.333 186 415c0 116 -30 219.667 -90 311c-102 153.333 -264 230 -486 230h-132v-419h327v-137h-327v-525z" />
    <glyph glyph-name="dcroat" unicode="&#x111;" horiz-adv-x="1050" vert-adv-y="2457" 
d="M775 1494h146.001v-191h123v-130h-123v-1173h-146v118c-78 -95.333 -176.333 -143 -295 -143c-125.333 0 -228 48.333 -308 145c-67.333 81.333 -101 183.666 -101 306.999c0 142.667 45.333 255.334 136 338.001c76 70 166 105 270 105
c117.333 0 216.666 -47 297.999 -141v444h-246v130h246v191zM500.001 738c-82.667 0 -151.333 -31.667 -206 -95c-49.333 -57.333 -74 -128 -74 -212c0 -102 29.667 -183.667 89 -245c52 -52.667 115.333 -79 190 -79c92 0 165.333 35 220 105c43.333 56 65 127.333 65 214
c0 101.333 -29.667 179.333 -89 234c-55.333 52 -120.333 78 -195 78z" />
    <glyph glyph-name="Emacron" unicode="&#x112;" horiz-adv-x="960" vert-adv-y="2457" 
d="M871 1223h-554v-405h539v-142h-539v-534h554v-142h-707v1365h707v-142zM217 1687h601v-127h-601v127z" />
    <glyph glyph-name="emacron" unicode="&#x113;" horiz-adv-x="961" vert-adv-y="2457" 
d="M889 395l-662.999 0.000976562c2.66699 -58 14.667 -107 36 -147c24 -44.667 56.667 -79.334 98 -104.001s86.666 -37 135.999 -37c72 0 132.333 23.667 181 71c23.333 22 50.333 58 81 108l123 -69c-34 -59.333 -69 -105 -105 -137c-78.667 -70 -173.667 -105 -285 -105
c-136 0 -244 49.333 -324 148c-63.333 78.667 -95 177.667 -95 297c0 138 40.333 248.667 121 332c76 78.667 173 118 291 118c106.667 0 197 -33.333 271 -100c89.333 -80 134 -196.333 134 -349v-26zM735.001 518.001c-9.33301 47.333 -25.667 87.001 -49 119.001
c-50 67.333 -116.667 101 -200 101c-87.333 0 -157 -37.667 -209 -113c-20.667 -30.667 -34.667 -66.334 -42 -107.001h500zM226 1201h550v-123h-550v123z" />
    <glyph glyph-name="Ebreve" unicode="&#x114;" horiz-adv-x="960" vert-adv-y="2457" 
d="M871 1223h-554v-405h539v-142h-539v-534h554v-142h-707v1365h707v-142zM234 1764h131c10.667 -44 25.334 -75.333 44.001 -94c27.333 -28 63 -42 107 -42c81.333 0 133 45.333 155 136h130c-8 -68 -29 -123 -63 -165c-54.667 -67.333 -128.334 -101 -221.001 -101
c-96.667 0 -171.667 33.667 -225 101c-32.667 40 -52 95 -58 165z" />
    <glyph glyph-name="ebreve" unicode="&#x115;" horiz-adv-x="961" vert-adv-y="2457" 
d="M889 395l-662.999 0.000976562c2.66699 -58 14.667 -107 36 -147c24 -44.667 56.667 -79.334 98 -104.001s86.666 -37 135.999 -37c72 0 132.333 23.667 181 71c23.333 22 50.333 58 81 108l123 -69c-34 -59.333 -69 -105 -105 -137c-78.667 -70 -173.667 -105 -285 -105
c-136 0 -244 49.333 -324 148c-63.333 78.667 -95 177.667 -95 297c0 138 40.333 248.667 121 332c76 78.667 173 118 291 118c106.667 0 197 -33.333 271 -100c89.333 -80 134 -196.333 134 -349v-26zM735.001 518.001c-9.33301 47.333 -25.667 87.001 -49 119.001
c-50 67.333 -116.667 101 -200 101c-87.333 0 -157 -37.667 -209 -113c-20.667 -30.667 -34.667 -66.334 -42 -107.001h500zM236 1297h125.998c4 -40.667 16.667 -73 38 -97c26.667 -30.667 60.334 -46 101.001 -46c39.333 0 72.333 13.667 99 41
c23.333 24 38.666 58 45.999 102h127c-8 -66.667 -29 -121.667 -63 -165c-53.333 -67.333 -122.666 -101 -207.999 -101c-88 0 -158.333 33.667 -211 101c-35.333 44 -53.666 99 -54.999 165z" />
    <glyph glyph-name="Edotaccent" unicode="&#x116;" horiz-adv-x="960" vert-adv-y="2457" 
d="M871 1223h-554v-405h539v-142h-539v-534h554v-142h-707v1365h707v-142zM517 1741c30.667 0 56.667 -10.666 78 -31.999s32 -47 32 -77c0 -30.667 -10.667 -56.667 -32 -78s-47 -32 -77 -32c-30.667 0 -56.667 10.667 -78 32c-21.333 22 -32 48.333 -32 79
c0 29.333 10.667 54.666 32 75.999c22 21.333 47.667 32 77 32z" />
    <glyph glyph-name="edotaccent" unicode="&#x117;" horiz-adv-x="961" vert-adv-y="2457" 
d="M889 395l-662.999 0.000976562c2.66699 -58 14.667 -107 36 -147c24 -44.667 56.667 -79.334 98 -104.001s86.666 -37 135.999 -37c72 0 132.333 23.667 181 71c23.333 22 50.333 58 81 108l123 -69c-34 -59.333 -69 -105 -105 -137c-78.667 -70 -173.667 -105 -285 -105
c-136 0 -244 49.333 -324 148c-63.333 78.667 -95 177.667 -95 297c0 138 40.333 248.667 121 332c76 78.667 173 118 291 118c106.667 0 197 -33.333 271 -100c89.333 -80 134 -196.333 134 -349v-26zM735.001 518.001c-9.33301 47.333 -25.667 87.001 -49 119.001
c-50 67.333 -116.667 101 -200 101c-87.333 0 -157 -37.667 -209 -113c-20.667 -30.667 -34.667 -66.334 -42 -107.001h500zM501 1250c29.333 0 54 -10.333 74 -31c20.667 -20 31 -44.333 31 -73c0 -29.333 -10.333 -54 -31 -74c-20 -20.667 -44.333 -31 -73 -31
c-29.333 0 -54 10.333 -74 31c-20.667 20.667 -31 45.667 -31 75c0 28 10.333 52 31 72c20.667 20.667 45 31 73 31z" />
    <glyph glyph-name="Eogonek" unicode="&#x118;" horiz-adv-x="960" vert-adv-y="2457" 
d="M871 0c-103.333 -65.333 -155 -126.333 -155 -183c0 -26 10 -46.667 30 -62c14.667 -12 32 -18 52 -18c34.667 0 72 11.333 112 34l-15 -125c-33.333 -22 -73.333 -33 -120 -33c-32 0 -61.333 6.33301 -88 19c-36 16 -63.667 40 -83 72c-16 27.333 -24 56.666 -24 87.999
c0 49.333 20.333 95 61 137c20 20.667 52.333 44.334 97 71.001h-574v1365h707v-142h-554v-405h539v-142h-539v-534h554v-142z" />
    <glyph glyph-name="eogonek" unicode="&#x119;" horiz-adv-x="961" vert-adv-y="2457" 
d="M791 -228l-18.9971 -111.998c-34 -18.667 -70 -28 -108 -28c-36 0 -67.667 7.66699 -95 23c-26.667 15.333 -47.667 36.666 -63 63.999c-14.667 26 -22 53 -22 81c0 38 13.667 75.333 41 112c14 18.667 39.667 44.334 77 77.001c-42 -8.66699 -77.667 -13 -107 -13
c-81.333 0 -155 18.667 -221 56c-70.667 40.667 -123 98 -157 172c-30 66.667 -45 139 -45 217c0 137.333 40.333 247.666 121 330.999c76 78.667 173 118 291 118c106.667 0 197 -33.333 271 -100c89.333 -80 134 -196.333 134 -349v-26h-663
c2.66699 -58 14.667 -107 36 -147c24 -44 56.667 -78.333 98 -103s86.666 -37 135.999 -37c71.333 0 131.666 23.333 180.999 70c22.667 21.333 49.667 57.333 81 108l123 -69c-30.667 -54 -78.667 -113.667 -144 -179c-48.667 -48.667 -79.667 -83.334 -93 -104.001
c-25.333 -40.667 -38 -76.667 -38 -108c0 -24 9.33301 -44.667 28 -62c13.333 -12.667 30.666 -19 51.999 -19c32 0 67 9 105 27zM735.003 518.002c-9.33301 47.333 -25.667 87.001 -49 119.001c-50 67.333 -116.667 101 -200 101c-87.333 0 -157 -37.667 -209 -113
c-20.667 -30.667 -34.667 -66.334 -42 -107.001h500z" />
    <glyph glyph-name="Ecaron" unicode="&#x11a;" horiz-adv-x="960" vert-adv-y="2457" 
d="M871 1223h-554v-405h539v-142h-539v-534h554v-142h-707v1365h707v-142zM804 1721l-285 -244l-288 244l108 83l180 -154l180 154z" />
    <glyph glyph-name="ecaron" unicode="&#x11b;" horiz-adv-x="961" vert-adv-y="2457" 
d="M889 395l-662.999 0.000976562c2.66699 -58 14.667 -107 36 -147c24 -44.667 56.667 -79.334 98 -104.001s86.666 -37 135.999 -37c72 0 132.333 23.667 181 71c23.333 22 50.333 58 81 108l123 -69c-34 -59.333 -69 -105 -105 -137c-78.667 -70 -173.667 -105 -285 -105
c-136 0 -244 49.333 -324 148c-63.333 78.667 -95 177.667 -95 297c0 138 40.333 248.667 121 332c76 78.667 173 118 291 118c106.667 0 197 -33.333 271 -100c89.333 -80 134 -196.333 134 -349v-26zM735.001 518.001c-9.33301 47.333 -25.667 87.001 -49 119.001
c-50 67.333 -116.667 101 -200 101c-87.333 0 -157 -37.667 -209 -113c-20.667 -30.667 -34.667 -66.334 -42 -107.001h500zM784 1263l-282 -267l-284 267l105 80l179 -169l180 169z" />
    <glyph glyph-name="Gcircumflex" unicode="&#x11c;" horiz-adv-x="1519" vert-adv-y="2457" 
d="M864 685l569.004 0.00390625c0 -104 -6.33301 -184 -19 -240c-29.333 -136 -105 -248.667 -227 -338c-119.333 -88 -253 -132 -401 -132c-120.667 0 -234.667 30.333 -342 91c-120.667 68.667 -213.334 164 -278.001 286c-54 102 -81 211 -81 327
c0 135.333 35.667 260.333 107 375c67.333 108 157.666 191.667 270.999 251c104.667 55.333 216.667 83 336 83c157.333 0 296.666 -46.333 417.999 -139c45.333 -34.667 97.666 -87.334 156.999 -158.001l-112 -102c-46.667 61.333 -89.667 107.666 -129 138.999
c-97.333 78 -208.666 117 -333.999 117c-92 0 -179 -22 -261 -66c-95.333 -50.667 -169.666 -122.334 -222.999 -215.001c-50.667 -87.333 -76 -183 -76 -287c0 -162 58.667 -297.333 176 -406c110.667 -102 235 -153 373 -153c121.333 0 230.666 39.667 327.999 119
c79.333 65.333 127.666 145 144.999 239c3.33301 17.333 6 39.666 8 66.999h-405v142zM521.004 1561l285 243l288 -244l-108 -83l-180 155l-179 -155z" />
    <glyph glyph-name="gcircumflex" unicode="&#x11d;" horiz-adv-x="1051" vert-adv-y="2457" 
d="M923 851v-832.002c0 -105.333 -9.33301 -183.666 -28 -234.999c-33.333 -90 -91 -158 -173 -204c-65.333 -36 -138.666 -54 -219.999 -54c-125.333 0 -226 37.667 -302 113c-70 70.667 -107.333 163.334 -112 278.001h145c4.66699 -62.667 18 -110.667 40 -144
c22.667 -36.667 55 -65 97 -85s86.667 -30 134 -30c98 0 170.667 35 218 105c36.667 53.333 55 130.333 55 231v124c-82.667 -94 -182.667 -141 -300 -141c-118.667 0 -218.334 45.667 -299.001 137c-70.667 81.333 -106 184.333 -106 309c0 138 43 249 129 333
c78.667 77.333 173 116 283 116c116 0 213.667 -47 293 -141v120h146zM500 739.998c-92 0 -165.333 -38 -220 -114c-39.333 -54.667 -59 -121.667 -59 -201c0 -96 25.667 -171.333 77 -226c55.333 -60 122 -90 200 -90c90 0 163.333 35 220 105c44 53.333 66 123 66 209
c0 105.333 -31 186 -93 242c-56 50 -119.667 75 -191 75zM248 1077l282 266l285 -266l-105 -80l-180 169l-179 -170z" />
    <glyph glyph-name="Gbreve" unicode="&#x11e;" horiz-adv-x="1519" vert-adv-y="2457" 
d="M864 685l569.004 0.00390625c0 -104 -6.33301 -184 -19 -240c-29.333 -136 -105 -248.667 -227 -338c-119.333 -88 -253 -132 -401 -132c-120.667 0 -234.667 30.333 -342 91c-120.667 68.667 -213.334 164 -278.001 286c-54 102 -81 211 -81 327
c0 135.333 35.667 260.333 107 375c67.333 108 157.666 191.667 270.999 251c104.667 55.333 216.667 83 336 83c157.333 0 296.666 -46.333 417.999 -139c45.333 -34.667 97.666 -87.334 156.999 -158.001l-112 -102c-46.667 61.333 -89.667 107.666 -129 138.999
c-97.333 78 -208.666 117 -333.999 117c-92 0 -179 -22 -261 -66c-95.333 -50.667 -169.666 -122.334 -222.999 -215.001c-50.667 -87.333 -76 -183 -76 -287c0 -162 58.667 -297.333 176 -406c110.667 -102 235 -153 373 -153c121.333 0 230.666 39.667 327.999 119
c79.333 65.333 127.666 145 144.999 239c3.33301 17.333 6 39.666 8 66.999h-405v142zM524.004 1764h130.002c11.333 -44 26.333 -75.333 45 -94c27.333 -28 63 -42 107 -42c81.333 0 132.666 45.333 153.999 136h131c-8 -68 -29 -123 -63 -165
c-54.667 -67.333 -128.334 -101 -221.001 -101c-96.667 0 -171.667 33.667 -225 101c-32.667 40 -52 95 -58 165z" />
    <glyph glyph-name="gbreve" unicode="&#x11f;" horiz-adv-x="1051" vert-adv-y="2457" 
d="M923 851v-832.002c0 -105.333 -9.33301 -183.666 -28 -234.999c-33.333 -90 -91 -158 -173 -204c-65.333 -36 -138.666 -54 -219.999 -54c-125.333 0 -226 37.667 -302 113c-70 70.667 -107.333 163.334 -112 278.001h145c4.66699 -62.667 18 -110.667 40 -144
c22.667 -36.667 55 -65 97 -85s86.667 -30 134 -30c98 0 170.667 35 218 105c36.667 53.333 55 130.333 55 231v124c-82.667 -94 -182.667 -141 -300 -141c-118.667 0 -218.334 45.667 -299.001 137c-70.667 81.333 -106 184.333 -106 309c0 138 43 249 129 333
c78.667 77.333 173 116 283 116c116 0 213.667 -47 293 -141v120h146zM500 739.998c-92 0 -165.333 -38 -220 -114c-39.333 -54.667 -59 -121.667 -59 -201c0 -96 25.667 -171.333 77 -226c55.333 -60 122 -90 200 -90c90 0 163.333 35 220 105c44 53.333 66 123 66 209
c0 105.333 -31 186 -93 242c-56 50 -119.667 75 -191 75zM263 1297h126.002c4 -40.667 16.667 -73 38 -97c26.667 -30.667 60.667 -46 102 -46c39.333 0 72.333 13.667 99 41c23.333 24 38.666 58 45.999 102h126c-7.33301 -66.667 -28.333 -121.667 -63 -165
c-53.333 -67.333 -122.333 -101 -207 -101c-88.667 0 -159.334 33.667 -212.001 101c-34.667 44 -53 99 -55 165z" />
    <glyph glyph-name="Gdotaccent" unicode="&#x120;" horiz-adv-x="1519" vert-adv-y="2457" 
d="M864 685l569.004 0.00390625c0 -104 -6.33301 -184 -19 -240c-29.333 -136 -105 -248.667 -227 -338c-119.333 -88 -253 -132 -401 -132c-120.667 0 -234.667 30.333 -342 91c-120.667 68.667 -213.334 164 -278.001 286c-54 102 -81 211 -81 327
c0 135.333 35.667 260.333 107 375c67.333 108 157.666 191.667 270.999 251c104.667 55.333 216.667 83 336 83c157.333 0 296.666 -46.333 417.999 -139c45.333 -34.667 97.666 -87.334 156.999 -158.001l-112 -102c-46.667 61.333 -89.667 107.666 -129 138.999
c-97.333 78 -208.666 117 -333.999 117c-92 0 -179 -22 -261 -66c-95.333 -50.667 -169.666 -122.334 -222.999 -215.001c-50.667 -87.333 -76 -183 -76 -287c0 -162 58.667 -297.333 176 -406c110.667 -102 235 -153 373 -153c121.333 0 230.666 39.667 327.999 119
c79.333 65.333 127.666 145 144.999 239c3.33301 17.333 6 39.666 8 66.999h-405v142zM807.004 1741c30.667 0 56.667 -10.666 78 -31.999s32 -47 32 -77c0 -30.667 -10.667 -56.667 -32 -78s-47 -32 -77 -32c-30.667 0 -56.667 10.667 -78 32c-21.333 22 -32 48.333 -32 79
c0 29.333 10.667 54.666 32 75.999s47 32 77 32z" />
    <glyph glyph-name="gdotaccent" unicode="&#x121;" horiz-adv-x="1051" vert-adv-y="2457" 
d="M923 851v-832.002c0 -105.333 -9.33301 -183.666 -28 -234.999c-33.333 -90 -91 -158 -173 -204c-65.333 -36 -138.666 -54 -219.999 -54c-125.333 0 -226 37.667 -302 113c-70 70.667 -107.333 163.334 -112 278.001h145c4.66699 -62.667 18 -110.667 40 -144
c22.667 -36.667 55 -65 97 -85s86.667 -30 134 -30c98 0 170.667 35 218 105c36.667 53.333 55 130.333 55 231v124c-82.667 -94 -182.667 -141 -300 -141c-118.667 0 -218.334 45.667 -299.001 137c-70.667 81.333 -106 184.333 -106 309c0 138 43 249 129 333
c78.667 77.333 173 116 283 116c116 0 213.667 -47 293 -141v120h146zM500 739.998c-92 0 -165.333 -38 -220 -114c-39.333 -54.667 -59 -121.667 -59 -201c0 -96 25.667 -171.333 77 -226c55.333 -60 122 -90 200 -90c90 0 163.333 35 220 105c44 53.333 66 123 66 209
c0 105.333 -31 186 -93 242c-56 50 -119.667 75 -191 75zM531 1250c29.333 0 54 -10.333 74 -31c20.667 -20 31 -44.333 31 -73c0 -29.333 -10.333 -54 -31 -74c-20 -20.667 -44.333 -31 -73 -31c-29.333 0 -54 10.333 -74 31c-20.667 20.667 -31 45.667 -31 75
c0 28 10.333 52 31 72c20.667 20.667 45 31 73 31z" />
    <glyph glyph-name="Gcommaaccent" unicode="&#x122;" horiz-adv-x="1519" vert-adv-y="2457" 
d="M864 685l569.004 0.00390625c0 -104 -6.33301 -184 -19 -240c-29.333 -136 -105 -248.667 -227 -338c-119.333 -88 -253 -132 -401 -132c-120.667 0 -234.667 30.333 -342 91c-120.667 68.667 -213.334 164 -278.001 286c-54 102 -81 211 -81 327
c0 135.333 35.667 260.333 107 375c67.333 108 157.666 191.667 270.999 251c104.667 55.333 216.667 83 336 83c157.333 0 296.666 -46.333 417.999 -139c45.333 -34.667 97.666 -87.334 156.999 -158.001l-112 -102c-46.667 61.333 -89.667 107.666 -129 138.999
c-97.333 78 -208.666 117 -333.999 117c-92 0 -179 -22 -261 -66c-95.333 -50.667 -169.666 -122.334 -222.999 -215.001c-50.667 -87.333 -76 -183 -76 -287c0 -162 58.667 -297.333 176 -406c110.667 -102 235 -153 373 -153c121.333 0 230.666 39.667 327.999 119
c79.333 65.333 127.666 145 144.999 239c3.33301 17.333 6 39.666 8 66.999h-405v142zM727.004 -108.996l155 -49l-161 -312l-104 34z" />
    <glyph glyph-name="gcommaaccent" unicode="&#x123;" horiz-adv-x="1051" vert-adv-y="2457" 
d="M923 851v-832.002c0 -105.333 -9.33301 -183.666 -28 -234.999c-33.333 -90 -91 -158 -173 -204c-65.333 -36 -138.666 -54 -219.999 -54c-125.333 0 -226 37.667 -302 113c-70 70.667 -107.333 163.334 -112 278.001h145c4.66699 -62.667 18 -110.667 40 -144
c22.667 -36.667 55 -65 97 -85s86.667 -30 134 -30c98 0 170.667 35 218 105c36.667 53.333 55 130.333 55 231v124c-82.667 -94 -182.667 -141 -300 -141c-118.667 0 -218.334 45.667 -299.001 137c-70.667 81.333 -106 184.333 -106 309c0 138 43 249 129 333
c78.667 77.333 173 116 283 116c116 0 213.667 -47 293 -141v120h146zM500 739.998c-92 0 -165.333 -38 -220 -114c-39.333 -54.667 -59 -121.667 -59 -201c0 -96 25.667 -171.333 77 -226c55.333 -60 122 -90 200 -90c90 0 163.333 35 220 105c44 53.333 66 123 66 209
c0 105.333 -31 186 -93 242c-56 50 -119.667 75 -191 75zM581 999.998l-141 43l133 314l105 -32z" />
    <glyph glyph-name="Hcircumflex" unicode="&#x124;" horiz-adv-x="1331" vert-adv-y="2457" 
d="M317 810h698v555h153v-1365h-153v668h-698v-668h-153v1365h153v-555zM379 1561l285 243l288 -244l-108 -83l-179 155l-180 -155z" />
    <glyph glyph-name="Hbar" unicode="&#x126;" horiz-adv-x="1331" vert-adv-y="2457" 
d="M1014 1365h153v-206h137v-137h-137v-1022h-153v668h-697v-668h-153v1022h-137v137h137v206h153v-206h697v206zM1014 1022h-697v-212h697v212z" />
    <glyph glyph-name="hbar" unicode="&#x127;" horiz-adv-x="939" vert-adv-y="2457" 
d="M520 1303v-129.999h-246v-422c26.667 31.333 50.667 54.333 72 69c49.333 33.333 106.666 50 171.999 50c70 0 131.333 -18.667 184 -56c52 -37.333 85 -90 99 -158c6.66699 -32 10 -75 10 -129v-527h-146v517c0 68 -9.33301 118.333 -28 151
c-27.333 46.667 -76.666 70 -147.999 70c-88 0 -148.333 -33.667 -181 -101c-22.667 -46.667 -34 -117.334 -34 -212.001v-425h-146v1173h-123v130h123v191h146v-191h246z" />
    <glyph glyph-name="Itilde" unicode="&#x128;" horiz-adv-x="481" vert-adv-y="2457" 
d="M316 1365v-1365h-153v1365h153zM26 1528l-88.002 69c48.667 97.333 109.334 146 182.001 146c30.667 0 74.334 -14.333 131.001 -43c52.667 -27.333 90 -41 112 -41c33.333 0 64.666 29 93.999 87l87 -66c-47.333 -98.667 -109.666 -148 -186.999 -148
c-32.667 0 -77 14.333 -133 43c-54.667 27.333 -93 41 -115 41c-20 0 -37.667 -10.667 -53 -32c-6.66699 -9.33301 -16.667 -28 -30 -56z" />
    <glyph glyph-name="itilde" unicode="&#x129;" horiz-adv-x="409" vert-adv-y="2457" 
d="M278 851v-851h-146v851h146zM0 1037l-84.998 69c12.667 34.667 29.667 63.667 51 87c36 39.333 77.333 59 124 59c38 0 80.667 -14.667 128 -44c44 -26.667 75.667 -40 95 -40c35.333 0 67.333 29 96 87l85 -66c-13.333 -34.667 -30.333 -63 -51 -85
c-40 -42 -83.333 -63 -130 -63c-28.667 0 -67.334 14 -116.001 42c-50.667 29.333 -87.334 44 -110.001 44c-39.333 0 -68.333 -30 -87 -90z" />
    <glyph glyph-name="Imacron" unicode="&#x12a;" horiz-adv-x="481" vert-adv-y="2457" 
d="M317 1365v-1365h-153v1365h153zM22 1687h437v-127h-437v127z" />
    <glyph glyph-name="imacron" unicode="&#x12b;" horiz-adv-x="403" vert-adv-y="2457" 
d="M274 851v-851h-146v851h146zM-19 1201h441v-123h-441v123z" />
    <glyph glyph-name="ibreve" unicode="&#x12d;" horiz-adv-x="403" vert-adv-y="2457" 
d="M275 851v-851h-146v851h146zM-37 1290l124.001 -0.000976562c0.666992 -38 9 -68.333 25 -91c22 -30.667 50.667 -46 86 -46c34.667 0 63 13.667 85 41c18.667 24 29.667 56 33 96h124c-5.33301 -65.333 -23 -118.333 -53 -159
c-48.667 -65.333 -111.334 -98 -188.001 -98c-57.333 0 -109 20 -155 60c-52 44.667 -79 99.334 -81 164.001v33z" />
    <glyph glyph-name="Iogonek" unicode="&#x12e;" horiz-adv-x="481" vert-adv-y="2457" 
d="M317 0c-63.333 -72.667 -94.999 -134.333 -94.999 -185c0 -22.667 9 -41.334 27 -56.001c12 -9.33301 28.667 -14 50 -14c24.667 0 52 8.66699 82 26l-12 -122c-38 -18.667 -72.333 -28 -103 -28c-54.667 0 -99 19.333 -133 58c-28 32.667 -42 71.334 -42 116.001
c0 48 18.333 92.667 55 134c17.333 19.333 43.666 43 78.999 71h-61v1365h153v-1365z" />
    <glyph glyph-name="iogonek" unicode="&#x12f;" horiz-adv-x="403" vert-adv-y="2457" 
d="M274 0c-55.333 -75.333 -83.001 -135.999 -83.001 -181.999c0 -26.667 9.66699 -47.334 29 -62.001c10.667 -8 22.334 -12 35.001 -12c23.333 0 48 7.66699 74 23l-14 -106c-25.333 -18.667 -52.333 -28 -81 -28c-28 0 -55 7.66699 -81 23
c-26.667 16 -47.667 37.333 -63 64c-13.333 24 -20 48.667 -20 74c0 50 41 118.667 123 206h-65v851h146v-851zM201.999 1275c28.667 0 52.999 -9.99902 72.999 -29.999c20.667 -20.667 31 -45.334 31 -74.001c0 -29.333 -10.333 -54 -31 -74
c-20 -20.667 -44.667 -31 -74 -31c-28.667 0 -53 10.333 -73 31c-20.667 20.667 -31 45.667 -31 75c0 28 10.333 52.333 31 73c20.667 20 45.334 30 74.001 30z" />
    <glyph glyph-name="Idotaccent" unicode="&#x130;" horiz-adv-x="481" vert-adv-y="2457" 
d="M317 1365v-1365h-153v1365h153zM240 1741c30.667 0 56.667 -10.666 78 -31.999s32 -47 32 -77c0 -30.667 -10.667 -56.667 -32 -78s-47 -32 -77 -32c-30.667 0 -56.667 10.667 -78 32c-21.333 22 -32 48.333 -32 79c0 29.333 10.667 54.666 32 75.999
c22 21.333 47.667 32 77 32z" />
    <glyph glyph-name="dotlessi" unicode="&#x131;" horiz-adv-x="409" vert-adv-y="2457" 
d="M277 851v-851h-146v851h146z" />
    <glyph glyph-name="IJ" unicode="&#x132;" horiz-adv-x="1096" vert-adv-y="2457" 
d="M317 1365v-1365h-153v1365h153zM932 1365l0.000976562 -1103c0 -89.333 -7.66699 -157 -23 -203c-26 -77.333 -73.333 -133.333 -142 -168c-42.667 -22 -88 -33 -136 -33c-80 0 -162 34 -246 102l84 117c23.333 -20.667 42 -35.334 56 -44.001
c32 -21.333 66.333 -32 103 -32c53.333 0 93.666 23.333 120.999 70c20 35.333 30 99 30 191v1103h153z" />
    <glyph glyph-name="ij" unicode="&#x133;" horiz-adv-x="821" vert-adv-y="2457" 
d="M277 851v-851h-146v851h146zM205 1275c28.667 0 52.999 -9.99902 72.999 -29.999c20.667 -20.667 31 -45.334 31 -74.001c0 -29.333 -10.333 -54 -31 -74c-20 -20.667 -44.667 -31 -74 -31c-28.667 0 -53 10.333 -73 31c-20.667 20.667 -31 45.667 -31 75
c0 28 10.333 52.333 31 73c20.667 20 45.334 30 74.001 30zM688.999 851.001v-1330h-146v1330h146zM616.999 1275c28.667 0 52.999 -9.99902 72.999 -29.999c20.667 -20.667 31 -45.334 31 -74.001c0 -29.333 -10.333 -54 -31 -74c-20 -20.667 -44.333 -31 -73 -31
c-29.333 0 -54 10.333 -74 31c-20.667 20.667 -31 45.667 -31 75c0 28 10.333 52.333 31 73c20.667 20 45.334 30 74.001 30z" />
    <glyph glyph-name="Kcommaaccent" unicode="&#x136;" horiz-adv-x="1137" vert-adv-y="2457" 
d="M317 779l582 586h204l-640 -636l661 -729h-209l-559 626l-39 -38v-588h-153v1365h153v-586zM536 -109l155 -49l-161 -312l-104 34z" />
    <glyph glyph-name="kcommaaccent" unicode="&#x137;" horiz-adv-x="840" vert-adv-y="2457" 
d="M274 1494v-957l308 314h194l-364 -362l433 -489h-191l-344 387l-36 -37v-350h-146v1494h146zM387 -109l141 -43l-133 -314l-105 33z" />
    <glyph glyph-name="kgreenlandic" unicode="&#x138;" horiz-adv-x="854" vert-adv-y="2457" 
d="M277 851v-314l308 314h194l-364 -362l433 -489h-191l-344 387l-36 -37v-350h-146v851h146z" />
    <glyph glyph-name="Lacute" unicode="&#x139;" horiz-adv-x="706" vert-adv-y="2457" 
d="M317 1365v-1223h375v-142h-528v1365h153zM527 1715l-294 -239l-88 65l245 265z" />
    <glyph glyph-name="lacute" unicode="&#x13a;" horiz-adv-x="403" vert-adv-y="2457" 
d="M274 1494v-1494h-146v1494h146zM447 1810l-246 -239l-88 59l204 272z" />
    <glyph glyph-name="Lcommaaccent" unicode="&#x13b;" horiz-adv-x="706" vert-adv-y="2457" 
d="M317 1365v-1223h375v-142h-528v1365h153zM371 -109l155 -49l-161 -312l-104 34z" />
    <glyph glyph-name="lcommaaccent" unicode="&#x13c;" horiz-adv-x="403" vert-adv-y="2457" 
d="M274 1494v-1494h-146v1494h146zM138 -109l141 -43l-134 -314l-104 33z" />
    <glyph glyph-name="Lcaron" unicode="&#x13d;" horiz-adv-x="706" vert-adv-y="2457" 
d="M317 1365v-1223h375v-142h-528v1365h153zM535 1372l156 -50l-161 -311l-105 34z" />
    <glyph glyph-name="lcaron" unicode="&#x13e;" horiz-adv-x="596" vert-adv-y="2457" 
d="M274 1494v-1494h-146v1494h146zM465 1501l142 -43l-134 -314l-104 32z" />
    <glyph glyph-name="Ldot" unicode="&#x13f;" horiz-adv-x="706" vert-adv-y="2457" 
d="M317 1365v-1223h375v-142h-528v1365h153zM599 828c36 0 67 -12.666 93 -37.999c25.333 -25.333 38 -56.333 38 -93c0 -36 -12.667 -67 -38 -93c-26 -25.333 -57 -38 -93 -38c-36.667 0 -67.667 12.667 -93 38c-25.333 26 -38 57.667 -38 95
c0 35.333 12.667 65.666 38 90.999c26 25.333 57 38 93 38z" />
    <glyph glyph-name="ldot" unicode="&#x140;" horiz-adv-x="665" vert-adv-y="2457" 
d="M274 1494v-1494h-146v1494h146zM544 878c36 0 67 -12.665 93 -37.998c25.333 -25.333 38 -56.333 38 -93c0 -36 -12.667 -67 -38 -93c-26 -25.333 -57 -38 -93 -38c-36.667 0 -67.667 13 -93 39c-25.333 25.333 -38 56.666 -38 93.999c0 35.333 12.667 65.666 38 90.999
c26 25.333 57 38 93 38z" />
    <glyph glyph-name="Lslash" unicode="&#x141;" horiz-adv-x="706" vert-adv-y="2457" 
d="M317 806l233 164v-155l-233 -164v-509h375v-142h-528v584l-137 -95v155l137 95v626h153v-559z" />
    <glyph glyph-name="lslash" unicode="&#x142;" horiz-adv-x="403" vert-adv-y="2457" 
d="M275 864l130 97v-156l-130 -97v-708h-146v639l-130 -96v156l130 95v700h146v-630z" />
    <glyph glyph-name="Nacute" unicode="&#x143;" horiz-adv-x="1544" vert-adv-y="2457" 
d="M164 0v1422l1064 -1114v1057h153v-1427l-1064 1114v-1052h-153zM1035 1715l-294 -239l-88 65l245 265z" />
    <glyph glyph-name="nacute" unicode="&#x144;" horiz-adv-x="938" vert-adv-y="2457" 
d="M128 851l146.001 0.000976562v-103c26.667 32.667 50.667 56.667 72 72c47.333 34 104.666 51 171.999 51c70 0 131 -18.667 183 -56c51.333 -36 84 -89 98 -159c6.66699 -32.667 10 -75.334 10 -128.001v-528h-146v503c0 79.333 -9.33301 134.333 -28 165
c-28.667 47.333 -78.667 71 -150 71c-85.333 0 -144 -33.667 -176 -101c-23.333 -48 -35 -119 -35 -213v-425h-146v851zM714.001 1275l-276 -279l-91 51l215 296z" />
    <glyph glyph-name="Ncommaaccent" unicode="&#x145;" horiz-adv-x="1544" vert-adv-y="2457" 
d="M164 0v1422l1064 -1114v1057h153v-1427l-1064 1114v-1052h-153zM699 -109l155 -49l-161 -312l-105 34z" />
    <glyph glyph-name="ncommaaccent" unicode="&#x146;" horiz-adv-x="938" vert-adv-y="2457" 
d="M128 851l146.001 0.000976562v-103c26.667 32.667 50.667 56.667 72 72c47.333 34 104.666 51 171.999 51c70 0 131 -18.667 183 -56c51.333 -36 84 -89 98 -159c6.66699 -32.667 10 -75.334 10 -128.001v-528h-146v503c0 79.333 -9.33301 134.333 -28 165
c-28.667 47.333 -78.667 71 -150 71c-85.333 0 -144 -33.667 -176 -101c-23.333 -48 -35 -119 -35 -213v-425h-146v851zM402.001 -108.999l141 -43l-133 -314l-105 33z" />
    <glyph glyph-name="Ncaron" unicode="&#x147;" horiz-adv-x="1544" vert-adv-y="2457" 
d="M164 0v1422l1064 -1114v1057h153v-1427l-1064 1114v-1052h-153zM1059 1721l-285 -244l-288 244l108 83l180 -154l179 154z" />
    <glyph glyph-name="ncaron" unicode="&#x148;" horiz-adv-x="938" vert-adv-y="2457" 
d="M128 851l146.001 0.000976562v-103c26.667 32.667 50.667 56.667 72 72c47.333 34 104.666 51 171.999 51c70 0 131 -18.667 183 -56c51.333 -36 84 -89 98 -159c6.66699 -32.667 10 -75.334 10 -128.001v-528h-146v503c0 79.333 -9.33301 134.333 -28 165
c-28.667 47.333 -78.667 71 -150 71c-85.333 0 -144 -33.667 -176 -101c-23.333 -48 -35 -119 -35 -213v-425h-146v851zM738.001 1263l-282 -267l-284 267l105 80l179 -169l180 169z" />
    <glyph glyph-name="napostrophe" unicode="&#x149;" horiz-adv-x="1187" vert-adv-y="2457" 
d="M259 1434l134 -49l-206 -462l-98 39zM375 851l146.002 0.000976562v-103c26.667 32.667 50.667 56.667 72 72c47.333 34 104.666 51 171.999 51c70 0 131.333 -18.667 184 -56c51.333 -36 83.666 -89 96.999 -159c6.66699 -32.667 10 -75.334 10 -128.001v-528h-146v503
c0 79.333 -9.33301 134.333 -28 165c-28.667 47.333 -78.667 71 -150 71c-85.333 0 -144 -33.667 -176 -101c-23.333 -48 -35 -119 -35 -213v-425h-146v851z" />
    <glyph glyph-name="Eng" unicode="&#x14a;" horiz-adv-x="1331" vert-adv-y="2457" 
d="M164 1365l153.002 -0.000976562v-175c43.333 52.667 82 91.334 116 116.001c76 54.667 167.333 82 274 82c112 0 209.333 -30 292 -90c80.667 -58 131.667 -143 153 -255c10.667 -53.333 16 -122 16 -206v-489c0 -160 -26 -275 -78 -345
c-72.667 -96.667 -179.334 -145 -320.001 -145c-50 0 -106.667 9.66699 -170 29v147c60 -22 114.667 -33 164 -33c92.667 0 159 22 199 66c23.333 26 38.666 63.667 45.999 113c4 28 6 73.333 6 136v550c0 88.667 -5.66699 152.667 -17 192
c-19.333 66.667 -59.333 115.667 -120 147c-53.333 26.667 -116 40 -188 40c-150 0 -254 -54 -312 -162c-40.667 -76 -61 -189.667 -61 -341v-742h-153v1365z" />
    <glyph glyph-name="eng" unicode="&#x14b;" horiz-adv-x="943" vert-adv-y="2457" 
d="M131 851h146.001v-103c26.667 32.667 50.667 56.667 72 72c47.333 34 104.666 51 171.999 51c70 0 131 -18.667 183 -56c51.333 -36 84 -89 98 -159c6.66699 -32.667 10 -75.334 10 -128.001v-365c0 -99.333 -16.667 -170.666 -50 -213.999
c-46 -60.667 -113.667 -91 -203 -91c-31.333 0 -66.666 6 -105.999 18v147c37.333 -13.333 69.666 -20 96.999 -20c44.667 0 75.667 14 93 42c15.333 23.333 23 74 23 152v306c0 79.333 -9.33301 134.333 -28 165c-28.667 47.333 -79 71 -151 71
c-84.667 0 -143 -33.667 -175 -101c-23.333 -48 -35 -119 -35 -213v-425h-146v851z" />
    <glyph glyph-name="Omacron" unicode="&#x14c;" horiz-adv-x="1593" vert-adv-y="2457" 
d="M798 1388c126 0 242.335 -31.332 349.002 -93.999c112 -64.667 200 -151.334 264 -260.001c64 -109.333 96 -227 96 -353s-32.333 -244 -97 -354c-62 -105.333 -146 -189.333 -252 -252c-112.667 -66.667 -235.334 -100 -368.001 -100c-120 0 -235.667 31.333 -347 94
c-117.333 67.333 -207.333 157.666 -270 270.999c-58 104.667 -87 221.334 -87 350.001c0 194 75 361.667 225 503c74.667 70.667 160.667 122.667 258 156c77.333 26 153.666 39 228.999 39zM797.002 1245c-169.333 0 -309.667 -65.001 -421 -195.001
c-90.667 -105.333 -136 -225.666 -136 -360.999c0 -168 58 -306.667 174 -416c60 -56 128.333 -97.667 205 -125c58 -20 115.667 -30 173 -30c103.333 0 199.666 27 288.999 81c88 52 155.667 121.667 203 209c46 84 69 175 69 273c0 159.333 -56.667 295 -170 407
c-59.333 58 -127.666 100 -204.999 126c-60.667 20.667 -121 31 -181 31zM496.001 1687h601v-127h-601v127z" />
    <glyph glyph-name="omacron" unicode="&#x14d;" horiz-adv-x="1043" vert-adv-y="2457" 
d="M521 870c134 0 245.333 -48.667 334 -146c76.667 -84 115 -184.333 115 -301c0 -136 -49.667 -248 -149 -336c-84 -74.667 -185 -112 -303 -112c-81.333 0 -157.333 20.667 -228 62c-72 42.667 -127.333 101 -166 175c-34.667 65.333 -52 138 -52 218
c0 124 46.667 230.333 140 319c85.333 80.667 188.333 121 309 121zM520 738c-97.333 0 -174.667 -36.667 -232 -110c-44.667 -57.333 -67 -124.333 -67 -201c0 -98 29.667 -176.667 89 -236c56 -56 125 -84 207 -84c100 0 179.333 36.333 238 109c44 55.333 66 124 66 206
c0 96 -30 173.333 -90 232c-56.667 56 -127 84 -211 84zM245.999 1201h550v-123h-550v123z" />
    <glyph glyph-name="Ohungarumlaut" unicode="&#x150;" horiz-adv-x="1593" vert-adv-y="2457" 
d="M798 1388c126 0 242.335 -31.332 349.002 -93.999c112 -64.667 200 -151.334 264 -260.001c64 -109.333 96 -227 96 -353s-32.333 -244 -97 -354c-62 -105.333 -146 -189.333 -252 -252c-112.667 -66.667 -235.334 -100 -368.001 -100c-120 0 -235.667 31.333 -347 94
c-117.333 67.333 -207.333 157.666 -270 270.999c-58 104.667 -87 221.334 -87 350.001c0 194 75 361.667 225 503c74.667 70.667 160.667 122.667 258 156c77.333 26 153.666 39 228.999 39zM797.002 1245c-169.333 0 -309.667 -65.001 -421 -195.001
c-90.667 -105.333 -136 -225.666 -136 -360.999c0 -168 58 -306.667 174 -416c60 -56 128.333 -97.667 205 -125c58 -20 115.667 -30 173 -30c103.333 0 199.666 27 288.999 81c88 52 155.667 121.667 203 209c46 84 69 175 69 273c0 159.333 -56.667 295 -170 407
c-59.333 58 -127.666 100 -204.999 126c-60.667 20.667 -121 31 -181 31zM951.001 1732l-300 -248l-73 57l242 265zM1292 1732l-300 -248l-72 57l242 265z" />
    <glyph glyph-name="ohungarumlaut" unicode="&#x151;" horiz-adv-x="1043" vert-adv-y="2457" 
d="M521 870c134 0 245.333 -48.667 334 -146c76.667 -84 115 -184.333 115 -301c0 -136 -49.667 -248 -149 -336c-84 -74.667 -185 -112 -303 -112c-81.333 0 -157.333 20.667 -228 62c-72 42.667 -127.333 101 -166 175c-34.667 65.333 -52 138 -52 218
c0 124 46.667 230.333 140 319c85.333 80.667 188.333 121 309 121zM520 738c-97.333 0 -174.667 -36.667 -232 -110c-44.667 -57.333 -67 -124.333 -67 -201c0 -98 29.667 -176.667 89 -236c56 -56 125 -84 207 -84c100 0 179.333 36.333 238 109c44 55.333 66 124 66 206
c0 96 -30 173.333 -90 232c-56.667 56 -127 84 -211 84zM686.999 1280l-272 -284l-75 48l216 299zM959.999 1280l-272 -284l-75 48l216 299z" />
    <glyph glyph-name="OE" unicode="&#x152;" horiz-adv-x="2133" vert-adv-y="2457" 
d="M2044 1223l-545 -0.00195312v-407h530v-142h-530v-532h545v-142h-698v262c-138 -191.333 -319.667 -287 -545 -287c-125.333 0 -243.333 31.667 -354 95c-127.333 72 -223.333 172 -288 300c-48.667 97.333 -73 200 -73 308c0 116.667 28.667 229 86 337
c60 110.667 140.667 198.334 242 263.001c114.667 73.333 241.667 110 381 110c160.667 0 300 -48.667 418 -146c42.667 -35.333 87 -83.666 133 -144.999v268h698v-142zM794 1245c-102 0 -196.333 -27.334 -283 -82.001c-84.667 -52.667 -151 -121.334 -199 -206.001
c-48 -85.333 -72 -174.666 -72 -267.999c0 -169.333 59.667 -309.666 179 -420.999c107.333 -100 230 -150 368 -150c102 0 198 27 288 81c87.333 52.667 154.333 121.667 201 207c46.667 83.333 70 174 70 272c0 166.667 -61.333 307 -184 421
c-105.333 97.333 -228 146 -368 146z" />
    <glyph glyph-name="oe" unicode="&#x153;" horiz-adv-x="1715" vert-adv-y="2457" 
d="M1644 397l-670.004 -0.000976562c2.66699 -56 15.667 -105 39 -147c24 -44 56 -78.333 96 -103c42.667 -26.667 90.334 -40 143.001 -40c108 0 193.667 60.667 257 182l123 -72c-93.333 -161.333 -223.333 -242 -390 -242c-98 0 -184.667 30.333 -260 91
c-40 32 -70.667 69.667 -92 113c-25.333 -41.333 -54 -75 -86 -101c-82 -68.667 -178 -103 -288 -103c-130 0 -239 47.667 -327 143c-78.667 84.667 -118 185.334 -118 302.001c0 84.667 22.667 164 68 238c40.667 66.667 94.334 118.667 161.001 156
c67.333 37.333 141.666 56 222.999 56c106.667 0 200.334 -33 281.001 -99c34 -28 62.667 -62.333 86 -103c20.667 41.333 48.334 77 83.001 107c72.667 63.333 159.334 95 260.001 95c106 0 195.667 -30.333 269 -91c66.667 -54.667 110.667 -135.667 132 -243
c6.66699 -35.333 10 -72 10 -110v-29zM1489 519.999c-8.66699 45.333 -22.667 82.333 -42 111c-47.333 70.667 -117 106 -209 106c-132.667 0 -216.667 -72.333 -252 -217h503zM516.996 736.999c-95.333 0 -170.668 -35.001 -226.001 -105.001
c-47.333 -59.333 -71 -128.333 -71 -207c0 -100 31.333 -180 94 -240c54.667 -52 121.334 -78 200.001 -78c105.333 0 187 39.333 245 118c39.333 52.667 59 117 59 193c0 98.667 -31 178.334 -93 239.001c-54 53.333 -123.333 80 -208 80z" />
    <glyph glyph-name="Racute" unicode="&#x154;" horiz-adv-x="1001" vert-adv-y="2457" 
d="M520 611l434 -610.999h-186l-412 599h-39v-599h-153v1365h221c96 0 171.333 -8.66699 226 -26c88 -28 153.667 -78.333 197 -151c36.667 -60.667 55 -129.334 55 -206.001c0 -133.333 -49.333 -234.333 -148 -303c-56.667 -39.333 -121.667 -62 -195 -68zM317 733.001
h94.999c92.667 0 163.334 18.333 212.001 55c59.333 45.333 89 110 89 194c0 89.333 -33 155 -99 197c-47.333 29.333 -116 44 -206 44h-91v-490zM742.999 1715l-294 -239l-88 65l245 265z" />
    <glyph glyph-name="racute" unicode="&#x155;" horiz-adv-x="582" vert-adv-y="2457" 
d="M128 851h146v-92c28 34 50.333 58 67 72c33.333 27.333 75 41 125 41c42 0 85.333 -12.333 130 -37l-69 -132c-30 20 -58.333 30 -85 30c-38 0 -72.333 -13 -103 -39c-28 -24 -46.667 -60 -56 -108c-6 -34 -9 -80 -9 -138v-448h-146v851zM590 1275l-276 -279l-91 51
l216 296z" />
    <glyph glyph-name="Rcommaaccent" unicode="&#x156;" horiz-adv-x="1001" vert-adv-y="2457" 
d="M520 611l434 -610.999h-186l-412 599h-39v-599h-153v1365h221c96 0 171.333 -8.66699 226 -26c88 -28 153.667 -78.333 197 -151c36.667 -60.667 55 -129.334 55 -206.001c0 -133.333 -49.333 -234.333 -148 -303c-56.667 -39.333 -121.667 -62 -195 -68zM317 733.001
h94.999c92.667 0 163.334 18.333 212.001 55c59.333 45.333 89 110 89 194c0 89.333 -33 155 -99 197c-47.333 29.333 -116 44 -206 44h-91v-490zM455.999 -108.999l155 -49l-161 -312l-104 34z" />
    <glyph glyph-name="rcommaaccent" unicode="&#x157;" horiz-adv-x="582" vert-adv-y="2457" 
d="M129 851h146.001v-92c28 34 50.333 58 67 72c33.333 27.333 75 41 125 41c42 0 85.333 -12.333 130 -37l-69 -132c-30 20 -58 30 -84 30c-38.667 0 -73.334 -13 -104.001 -39c-28 -24 -46.667 -60 -56 -108c-6 -34 -9 -80 -9 -138v-448h-146v851zM145.001 -109l141 -43
l-134 -314l-104 33z" />
    <glyph glyph-name="Rcaron" unicode="&#x158;" horiz-adv-x="1001" vert-adv-y="2457" 
d="M520 611l434 -610.999h-186l-412 599h-39v-599h-153v1365h221c96 0 171.333 -8.66699 226 -26c88 -28 153.667 -78.333 197 -151c36.667 -60.667 55 -129.334 55 -206.001c0 -133.333 -49.333 -234.333 -148 -303c-56.667 -39.333 -121.667 -62 -195 -68zM317 733.001
h94.999c92.667 0 163.334 18.333 212.001 55c59.333 45.333 89 110 89 194c0 89.333 -33 155 -99 197c-47.333 29.333 -116 44 -206 44h-91v-490zM759.999 1721l-285 -244l-288 244l108 83l180 -154l179 154z" />
    <glyph glyph-name="rcaron" unicode="&#x159;" horiz-adv-x="582" vert-adv-y="2457" 
d="M128 851h146v-92c28 34 50.333 58 67 72c33.333 27.333 75 41 125 41c42 0 85.333 -12.333 130 -37l-69 -132c-30 20 -58.333 30 -85 30c-38 0 -72.333 -13 -103 -39c-28 -24 -46.667 -60 -56 -108c-6 -34 -9 -80 -9 -138v-448h-146v851zM612 1263l-282 -267l-285 267
l105 80l180 -169l179 169z" />
    <glyph glyph-name="Sacute" unicode="&#x15a;" horiz-adv-x="1032" vert-adv-y="2457" 
d="M893 1175l-119.996 -79.0039c-26.667 42 -50.334 72 -71.001 90c-43.333 39.333 -97.666 59 -162.999 59c-70 0 -126 -22.667 -168 -68c-38.667 -41.333 -58 -89 -58 -143c0 -59.333 28.333 -108.333 85 -147c33.333 -22 69 -41.333 107 -58l130 -57
c111.333 -49.333 189.333 -101.666 234 -156.999c50 -61.333 75 -134.666 75 -219.999c0 -126.667 -47.667 -231.667 -143 -315c-80.667 -70 -177.667 -105 -291 -105c-143.333 0 -256.333 55 -339 165c-36.667 48.667 -64 111.334 -82 188.001l148 41
c13.333 -62 31.666 -109 54.999 -141c24 -33.333 55.333 -59.666 94 -78.999c40.667 -20.667 84 -31 130 -31c78.667 0 144.667 27.667 198 83c50.667 52 76 114 76 186c0 82 -37.667 146.667 -113 194c-34.667 22 -115.334 61.333 -242.001 118
c-100.667 46 -171.334 94.667 -212.001 146c-42.667 54 -64 117.667 -64 191c0 115.333 45.333 206.333 136 273c72 52.667 154 79 246 79c153.333 0 270.666 -71 351.999 -213zM813.004 1715l-294 -239l-88 65l245 265z" />
    <glyph glyph-name="sacute" unicode="&#x15b;" horiz-adv-x="695" vert-adv-y="2457" 
d="M597 716l-121.001 -63c-30 56.667 -69.333 85 -118 85c-31.333 0 -57.333 -11.333 -78 -34c-16 -16.667 -24 -37 -24 -61c0 -27.333 12 -50.333 36 -69c18 -14 51.667 -31.333 101 -52c76.667 -32 130.667 -59.333 162 -82c62 -45.333 93 -107.666 93 -186.999
c0 -83.333 -30.333 -151.666 -91 -204.999c-55.333 -48.667 -122 -73 -200 -73c-142 0 -241 72.333 -297 217l128 54c16.667 -34 31.334 -59.333 44.001 -76c31.333 -42 73.666 -63 126.999 -63c47.333 0 84 16 110 48c20 25.333 30 54 30 86
c0 35.333 -12.667 64.666 -38 87.999c-16 14.667 -49.333 33 -100 55c-78 33.333 -134.667 62.666 -170 87.999c-50 36.667 -75 89.667 -75 159c0 74 26.667 133.333 80 178c48.667 40.667 104.667 61 168 61c102.667 0 180.334 -51.333 233.001 -154zM632.999 1275
l-276 -279l-91 51l216 296z" />
    <glyph glyph-name="Scircumflex" unicode="&#x15c;" horiz-adv-x="1032" vert-adv-y="2457" 
d="M893 1175l-119.996 -79.0039c-26.667 42 -50.334 72 -71.001 90c-43.333 39.333 -97.666 59 -162.999 59c-70 0 -126 -22.667 -168 -68c-38.667 -41.333 -58 -89 -58 -143c0 -59.333 28.333 -108.333 85 -147c33.333 -22 69 -41.333 107 -58l130 -57
c111.333 -49.333 189.333 -101.666 234 -156.999c50 -61.333 75 -134.666 75 -219.999c0 -126.667 -47.667 -231.667 -143 -315c-80.667 -70 -177.667 -105 -291 -105c-143.333 0 -256.333 55 -339 165c-36.667 48.667 -64 111.334 -82 188.001l148 41
c13.333 -62 31.666 -109 54.999 -141c24 -33.333 55.333 -59.666 94 -78.999c40.667 -20.667 84 -31 130 -31c78.667 0 144.667 27.667 198 83c50.667 52 76 114 76 186c0 82 -37.667 146.667 -113 194c-34.667 22 -115.334 61.333 -242.001 118
c-100.667 46 -171.334 94.667 -212.001 146c-42.667 54 -64 117.667 -64 191c0 115.333 45.333 206.333 136 273c72 52.667 154 79 246 79c153.333 0 270.666 -71 351.999 -213zM257.004 1561l285 243l288 -244l-108 -83l-180 155l-179 -155z" />
    <glyph glyph-name="scircumflex" unicode="&#x15d;" horiz-adv-x="695" vert-adv-y="2457" 
d="M597 716l-121.001 -63c-30 56.667 -69.333 85 -118 85c-31.333 0 -57.333 -11.333 -78 -34c-16 -16.667 -24 -37 -24 -61c0 -27.333 12 -50.333 36 -69c18 -14 51.667 -31.333 101 -52c76.667 -32 130.667 -59.333 162 -82c62 -45.333 93 -107.666 93 -186.999
c0 -83.333 -30.333 -151.666 -91 -204.999c-55.333 -48.667 -122 -73 -200 -73c-142 0 -241 72.333 -297 217l128 54c16.667 -34 31.334 -59.333 44.001 -76c31.333 -42 73.666 -63 126.999 -63c47.333 0 84 16 110 48c20 25.333 30 54 30 86
c0 35.333 -12.667 64.666 -38 87.999c-16 14.667 -49.333 33 -100 55c-78 33.333 -134.667 62.666 -170 87.999c-50 36.667 -75 89.667 -75 159c0 74 26.667 133.333 80 178c48.667 40.667 104.667 61 168 61c102.667 0 180.334 -51.333 233.001 -154zM80.999 1077l282 266
l285 -266l-105 -80l-180 169l-179 -170z" />
    <glyph glyph-name="Scedilla" unicode="&#x15e;" horiz-adv-x="1032" vert-adv-y="2457" 
d="M893 1175l-119.996 -79.0039c-26.667 42 -50.334 72 -71.001 90c-43.333 39.333 -97.666 59 -162.999 59c-70 0 -126 -22.667 -168 -68c-38.667 -41.333 -58 -89 -58 -143c0 -59.333 28.333 -108.333 85 -147c33.333 -22 69 -41.333 107 -58l130 -57
c111.333 -49.333 189.333 -101.666 234 -156.999c50 -61.333 75 -134.666 75 -219.999c0 -126.667 -47.667 -231.667 -143 -315c-80.667 -70 -177.667 -105 -291 -105c-143.333 0 -256.333 55 -339 165c-36.667 48.667 -64 111.334 -82 188.001l148 41
c13.333 -62 31.666 -109 54.999 -141c24 -33.333 55.333 -59.666 94 -78.999c40.667 -20.667 84 -31 130 -31c78.667 0 144.667 27.667 198 83c50.667 52 76 114 76 186c0 82 -37.667 146.667 -113 194c-34.667 22 -115.334 61.333 -242.001 118
c-100.667 46 -171.334 94.667 -212.001 146c-42.667 54 -64 117.667 -64 191c0 115.333 45.333 206.333 136 273c72 52.667 154 79 246 79c153.333 0 270.666 -71 351.999 -213zM627.004 -162.004l-226 -265l-104 53l183 278z" />
    <glyph glyph-name="scedilla" unicode="&#x15f;" horiz-adv-x="695" vert-adv-y="2457" 
d="M597 716l-121.001 -63c-30 56.667 -69.333 85 -118 85c-31.333 0 -57.333 -11.333 -78 -34c-16 -16.667 -24 -37 -24 -61c0 -27.333 12 -50.333 36 -69c18 -14 51.667 -31.333 101 -52c76.667 -32 130.667 -59.333 162 -82c62 -45.333 93 -107.666 93 -186.999
c0 -83.333 -30.333 -151.666 -91 -204.999c-55.333 -48.667 -122 -73 -200 -73c-142 0 -241 72.333 -297 217l128 54c16.667 -34 31.334 -59.333 44.001 -76c31.333 -42 73.666 -63 126.999 -63c47.333 0 84 16 110 48c20 25.333 30 54 30 86
c0 35.333 -12.667 64.666 -38 87.999c-16 14.667 -49.333 33 -100 55c-78 33.333 -134.667 62.666 -170 87.999c-50 36.667 -75 89.667 -75 159c0 74 26.667 133.333 80 178c48.667 40.667 104.667 61 168 61c102.667 0 180.334 -51.333 233.001 -154zM446.999 -151
l-206 -263l-102 51l172 267z" />
    <glyph glyph-name="Scaron" unicode="&#x160;" horiz-adv-x="1032" vert-adv-y="2457" 
d="M893 1175l-119.996 -79.0039c-26.667 42 -50.334 72 -71.001 90c-43.333 39.333 -97.666 59 -162.999 59c-70 0 -126 -22.667 -168 -68c-38.667 -41.333 -58 -89 -58 -143c0 -59.333 28.333 -108.333 85 -147c33.333 -22 69 -41.333 107 -58l130 -57
c111.333 -49.333 189.333 -101.666 234 -156.999c50 -61.333 75 -134.666 75 -219.999c0 -126.667 -47.667 -231.667 -143 -315c-80.667 -70 -177.667 -105 -291 -105c-143.333 0 -256.333 55 -339 165c-36.667 48.667 -64 111.334 -82 188.001l148 41
c13.333 -62 31.666 -109 54.999 -141c24 -33.333 55.333 -59.666 94 -78.999c40.667 -20.667 84 -31 130 -31c78.667 0 144.667 27.667 198 83c50.667 52 76 114 76 186c0 82 -37.667 146.667 -113 194c-34.667 22 -115.334 61.333 -242.001 118
c-100.667 46 -171.334 94.667 -212.001 146c-42.667 54 -64 117.667 -64 191c0 115.333 45.333 206.333 136 273c72 52.667 154 79 246 79c153.333 0 270.666 -71 351.999 -213zM830.004 1721l-285 -244l-288 244l108 83l180 -154l180 154z" />
    <glyph glyph-name="scaron" unicode="&#x161;" horiz-adv-x="695" vert-adv-y="2457" 
d="M597 716l-121.001 -63c-30 56.667 -69.333 85 -118 85c-31.333 0 -57.333 -11.333 -78 -34c-16 -16.667 -24 -37 -24 -61c0 -27.333 12 -50.333 36 -69c18 -14 51.667 -31.333 101 -52c76.667 -32 130.667 -59.333 162 -82c62 -45.333 93 -107.666 93 -186.999
c0 -83.333 -30.333 -151.666 -91 -204.999c-55.333 -48.667 -122 -73 -200 -73c-142 0 -241 72.333 -297 217l128 54c16.667 -34 31.334 -59.333 44.001 -76c31.333 -42 73.666 -63 126.999 -63c47.333 0 84 16 110 48c20 25.333 30 54 30 86
c0 35.333 -12.667 64.666 -38 87.999c-16 14.667 -49.333 33 -100 55c-78 33.333 -134.667 62.666 -170 87.999c-50 36.667 -75 89.667 -75 159c0 74 26.667 133.333 80 178c48.667 40.667 104.667 61 168 61c102.667 0 180.334 -51.333 233.001 -154zM647.999 1263
l-282 -267l-285 267l105 80l180 -169l179 169z" />
    <glyph glyph-name="Tcommaaccent" unicode="&#x162;" horiz-adv-x="842" vert-adv-y="2457" 
d="M497 1223v-1223h-153v1223h-330v142h815v-142h-332zM355 -109l155 -49l-161 -312l-105 34z" />
    <glyph glyph-name="tcommaaccent" unicode="&#x163;" horiz-adv-x="417" vert-adv-y="2457" 
d="M275 716v-716h-146v716h-89v135h89v305h146v-305h150v-135h-150zM141 -109l141 -43l-133 -314l-105 33z" />
    <glyph glyph-name="Tcaron" unicode="&#x164;" horiz-adv-x="842" vert-adv-y="2457" 
d="M497 1223v-1223h-153v1223h-330v142h815v-142h-332zM708 1721l-285 -244l-288 244l108 83l180 -154l179 154z" />
    <glyph glyph-name="tcaron" unicode="&#x165;" horiz-adv-x="611" vert-adv-y="2457" 
d="M275 716v-716h-146v716h-89v135h89v305h146v-305h150v-135h-150zM481 1398l141 -43l-133 -314l-105 33z" />
    <glyph glyph-name="Tbar" unicode="&#x166;" horiz-adv-x="870" vert-adv-y="2457" 
d="M783 973v-137h-273v-836h-153v836h-273v137h273v250h-330v142h815v-142h-332v-250h273z" />
    <glyph glyph-name="tbar" unicode="&#x167;" horiz-adv-x="450" vert-adv-y="2457" 
d="M443 593v-130h-150v-463h-146v463h-89v130h89v123h-89v135h89v305h146v-305h150v-135h-150v-123h150z" />
    <glyph glyph-name="Utilde" unicode="&#x168;" horiz-adv-x="1301" vert-adv-y="2457" 
d="M317 1365l0.000976562 -836c0 -86 5 -148.333 15 -187c17.333 -68 57 -122.667 119 -164c60.667 -40 127 -60 199 -60c84 0 159 26 225 78c54 43.333 87.333 101 100 173c6 34.667 9 88 9 160v836h153v-878c0 -94.667 -11.333 -170.334 -34 -227.001
c-37.333 -91.333 -102.333 -163.666 -195 -216.999c-79.333 -45.333 -165.333 -68 -258 -68c-108.667 0 -207.667 31 -297 93c-84.667 59.333 -140.334 135 -167.001 227c-14.667 49.333 -22 113.333 -22 192v878h153zM437.001 1528l-88.002 69
c48.667 97.333 109.334 146 182.001 146c30.667 0 74.334 -14.333 131.001 -43c52.667 -27.333 90 -41 112 -41c33.333 0 64.333 29 93 87l88 -66c-47.333 -98.667 -109.666 -148 -186.999 -148c-32.667 0 -77 14.333 -133 43c-54.667 27.333 -93 41 -115 41
c-20.667 0 -38.334 -10.667 -53.001 -32c-6.66699 -9.33301 -16.667 -28 -30 -56z" />
    <glyph glyph-name="utilde" unicode="&#x169;" horiz-adv-x="931" vert-adv-y="2457" 
d="M274 851l0.000976562 -496.999c0 -73.333 8.66699 -126.333 26 -159c15.333 -28.667 38.666 -50.667 69.999 -66c29.333 -14.667 61 -22 95 -22c50.667 0 93.334 14.333 128.001 43c30.667 25.333 49.667 61.333 57 108c4 24 6 56 6 96v497h146v-513
c0 -80.667 -10 -142.334 -30 -185.001c-28 -61.333 -73.667 -108 -137 -140c-50.667 -25.333 -107.334 -38 -170.001 -38c-109.333 0 -196 35.667 -260 107c-34 38 -56 80 -66 126c-7.33301 36 -11 79.333 -11 130v513h146zM261.001 1037l-84.999 69
c12 34.667 29 63.667 51 87c36 39.333 77.333 59 124 59c38 0 80.667 -14.667 128 -44c43.333 -26.667 75 -40 95 -40c34.667 0 66.667 29 96 87l85 -66c-13.333 -34.667 -30.666 -63 -51.999 -85c-39.333 -42 -82.333 -63 -129 -63c-28.667 0 -67.334 14 -116.001 42
c-50.667 29.333 -87.667 44 -111 44c-38.667 0 -67.334 -30 -86.001 -90z" />
    <glyph glyph-name="Umacron" unicode="&#x16a;" horiz-adv-x="1301" vert-adv-y="2457" 
d="M317 1365l0.000976562 -836c0 -86 5 -148.333 15 -187c17.333 -68 57 -122.667 119 -164c60.667 -40 127 -60 199 -60c84 0 159 26 225 78c54 43.333 87.333 101 100 173c6 34.667 9 88 9 160v836h153v-878c0 -94.667 -11.333 -170.334 -34 -227.001
c-37.333 -91.333 -102.333 -163.666 -195 -216.999c-79.333 -45.333 -165.333 -68 -258 -68c-108.667 0 -207.667 31 -297 93c-84.667 59.333 -140.334 135 -167.001 227c-14.667 49.333 -22 113.333 -22 192v878h153zM350.001 1687h601v-127h-601v127z" />
    <glyph glyph-name="umacron" unicode="&#x16b;" horiz-adv-x="931" vert-adv-y="2457" 
d="M274 851l0.000976562 -496.999c0 -73.333 8.66699 -126.333 26 -159c15.333 -28.667 38.666 -50.667 69.999 -66c29.333 -14.667 61 -22 95 -22c50.667 0 93.334 14.333 128.001 43c30.667 25.333 49.667 61.333 57 108c4 24 6 56 6 96v497h146v-513
c0 -80.667 -10 -142.334 -30 -185.001c-28 -61.333 -73.667 -108 -137 -140c-50.667 -25.333 -107.334 -38 -170.001 -38c-109.333 0 -196 35.667 -260 107c-34 38 -56 80 -66 126c-7.33301 36 -11 79.333 -11 130v513h146zM190.001 1201h550v-123h-550v123z" />
    <glyph glyph-name="ubreve" unicode="&#x16d;" horiz-adv-x="931" vert-adv-y="2457" 
d="M274 851l0.000976562 -496.999c0 -73.333 8.66699 -126.333 26 -159c15.333 -28.667 38.666 -50.667 69.999 -66c29.333 -14.667 61 -22 95 -22c50.667 0 93.334 14.333 128.001 43c30.667 25.333 49.667 61.333 57 108c4 24 6 56 6 96v497h146v-513
c0 -80.667 -10 -142.334 -30 -185.001c-28 -61.333 -73.667 -108 -137 -140c-50.667 -25.333 -107.334 -38 -170.001 -38c-109.333 0 -196 35.667 -260 107c-34 38 -56 80 -66 126c-7.33301 36 -11 79.333 -11 130v513h146zM197.001 1297h125.998
c4 -40.667 16.667 -73 38 -97c26.667 -30.667 60.334 -46 101.001 -46c39.333 0 72.333 13.667 99 41c23.333 24 38.666 58 45.999 102h127c-8 -66.667 -29 -121.667 -63 -165c-53.333 -67.333 -122.666 -101 -207.999 -101c-88 0 -158.333 33.667 -211 101
c-35.333 44 -53.666 99 -54.999 165z" />
    <glyph glyph-name="Uring" unicode="&#x16e;" horiz-adv-x="1301" vert-adv-y="2457" 
d="M317 1365l0.000976562 -836c0 -86 5 -148.333 15 -187c17.333 -68 57 -122.667 119 -164c60.667 -40 127 -60 199 -60c84 0 159 26 225 78c54 43.333 87.333 101 100 173c6 34.667 9 88 9 160v836h153v-878c0 -94.667 -11.333 -170.334 -34 -227.001
c-37.333 -91.333 -102.333 -163.666 -195 -216.999c-79.333 -45.333 -165.333 -68 -258 -68c-108.667 0 -207.667 31 -297 93c-84.667 59.333 -140.334 135 -167.001 227c-14.667 49.333 -22 113.333 -22 192v878h153zM650.001 1835c51.333 0 95.334 -18 132.001 -54
c36 -36.667 54 -80.334 54 -131.001c0 -51.333 -18 -95.333 -54 -132c-36.667 -36 -80.334 -54 -131.001 -54c-52 0 -96 18 -132 54c-36 36.667 -54 81.334 -54 134.001c0 50 18 93 54 129c37.333 36 81 54 131 54zM650.002 1735c-23.333 0 -43.333 -8.33105 -60 -24.998
s-25 -36.334 -25 -59.001c0 -24.667 8.33301 -45.334 25 -62.001s37 -25 61 -25c23.333 0 43.333 8.33301 60 25s25 37 25 61s-8.33301 44 -25 60c-16.667 16.667 -37 25 -61 25z" />
    <glyph glyph-name="uring" unicode="&#x16f;" horiz-adv-x="931" vert-adv-y="2457" 
d="M274 851l0.000976562 -496.999c0 -73.333 8.66699 -126.333 26 -159c15.333 -28.667 38.666 -50.667 69.999 -66c29.333 -14.667 61 -22 95 -22c50.667 0 93.334 14.333 128.001 43c30.667 25.333 49.667 61.333 57 108c4 24 6 56 6 96v497h146v-513
c0 -80.667 -10 -142.334 -30 -185.001c-28 -61.333 -73.667 -108 -137 -140c-50.667 -25.333 -107.334 -38 -170.001 -38c-109.333 0 -196 35.667 -260 107c-34 38 -56 80 -66 126c-7.33301 36 -11 79.333 -11 130v513h146zM465.001 1361c51.333 0 95.333 -18 132 -54
c36 -36 54 -79.667 54 -131s-18 -95.333 -54 -132c-36.667 -36 -80.334 -54 -131.001 -54c-52 0 -96 18 -132 54c-36 37.333 -54 82 -54 134c0 50 18 93 54 129c36.667 36 80.334 54 131.001 54zM466.001 1261c-24 0 -44.333 -8.33105 -61 -24.998s-25 -36.334 -25 -59.001
c0 -24.667 8.33301 -45.334 25 -62.001s37 -25 61 -25c23.333 0 43.333 8.33301 60 25s25 37 25 61s-8.33301 44 -25 60c-17.333 16.667 -37.333 25 -60 25z" />
    <glyph glyph-name="Uhungarumlaut" unicode="&#x170;" horiz-adv-x="1301" vert-adv-y="2457" 
d="M317 1365l0.000976562 -836c0 -86 5 -148.333 15 -187c17.333 -68 57 -122.667 119 -164c60.667 -40 127 -60 199 -60c84 0 159 26 225 78c54 43.333 87.333 101 100 173c6 34.667 9 88 9 160v836h153v-878c0 -94.667 -11.333 -170.334 -34 -227.001
c-37.333 -91.333 -102.333 -163.666 -195 -216.999c-79.333 -45.333 -165.333 -68 -258 -68c-108.667 0 -207.667 31 -297 93c-84.667 59.333 -140.334 135 -167.001 227c-14.667 49.333 -22 113.333 -22 192v878h153zM791.001 1732l-300 -248l-72 57l242 265zM1133 1732
l-300 -248l-73 57l242 265z" />
    <glyph glyph-name="uhungarumlaut" unicode="&#x171;" horiz-adv-x="931" vert-adv-y="2457" 
d="M274 851l0.000976562 -496.999c0 -73.333 8.66699 -126.333 26 -159c15.333 -28.667 38.666 -50.667 69.999 -66c29.333 -14.667 61 -22 95 -22c50.667 0 93.334 14.333 128.001 43c30.667 25.333 49.667 61.333 57 108c4 24 6 56 6 96v497h146v-513
c0 -80.667 -10 -142.334 -30 -185.001c-28 -61.333 -73.667 -108 -137 -140c-50.667 -25.333 -107.334 -38 -170.001 -38c-109.333 0 -196 35.667 -260 107c-34 38 -56 80 -66 126c-7.33301 36 -11 79.333 -11 130v513h146zM618.001 1280l-272 -284l-75 48l216 299z
M891.001 1280l-272 -284l-75 48l216 299z" />
    <glyph glyph-name="Uogonek" unicode="&#x172;" horiz-adv-x="1301" vert-adv-y="2457" 
d="M1006 -215l-13.9971 -126c-34 -21.333 -74 -32 -120 -32c-32.667 0 -62.334 6.33301 -89.001 19c-35.333 16 -62.666 40 -81.999 72c-16 27.333 -24 56.666 -24 87.999c0 38.667 13 75.334 39 110.001c16 21.333 46.333 49.333 91 84
c-54.667 -16.667 -104.334 -25 -149.001 -25c-114.667 0 -216.334 31 -305.001 93c-84 59.333 -139.667 135 -167 227c-14.667 49.333 -22 113.333 -22 192v878h153v-836c0 -86 5 -148.333 15 -187c17.333 -68 57 -122.667 119 -164c60.667 -40 127 -60 199 -60
c84 0 159 26 225 78c54 43.333 87.333 101 100 173c6 34.667 9 88 9 160v836h153v-878c0 -110 -16.333 -197 -49 -261c-20.667 -40 -61.667 -90 -123 -150c-101.333 -100 -152 -179.333 -152 -238c0 -30.667 10 -54 30 -70c15.333 -11.333 32.666 -17 51.999 -17
c34.667 0 71.667 11.333 111 34z" />
    <glyph glyph-name="uogonek" unicode="&#x173;" horiz-adv-x="931" vert-adv-y="2457" 
d="M755 -228l-18.9971 -112c-34 -18.667 -70 -28 -108 -28c-36.667 0 -68.334 7.66699 -95.001 23s-47.667 36.666 -63 63.999c-14.667 26 -22 53 -22 81c0 37.333 13.333 74.666 40 111.999c13.333 19.333 38.666 44.333 75.999 75c-48 -8 -84.333 -12 -109 -12
c-66.667 0 -128.334 17.667 -185.001 53c-61.333 38 -102.333 88.667 -123 152c-12.667 38 -19 90.667 -19 158v513h146v-497c0 -73.333 8.66699 -126.333 26 -159c15.333 -28 38.666 -49.667 69.999 -65c29.333 -14.667 61 -22 95 -22c50.667 0 93.334 14.333 128.001 43
c30.667 24.667 49.667 60.667 57 108c4 23.333 6 55 6 95v497h146v-513c0 -55.333 -3.66699 -98.666 -11 -129.999c-12.667 -50 -49.667 -110 -111 -180c-72.667 -81.333 -109 -147.666 -109 -198.999c0 -28 8.66699 -49.667 26 -65c14 -12.667 31.667 -19 53 -19
c32 0 67 9 105 27z" />
    <glyph glyph-name="Wcircumflex" unicode="&#x174;" horiz-adv-x="1929" vert-adv-y="2457" 
d="M167 1365l363 -1024l428 1094l404 -1094l401 1024h166l-572 -1436l-402 1092l-431 -1093l-524 1437h167zM678 1561l285 243l288 -244l-108 -83l-179 155l-180 -155z" />
    <glyph glyph-name="Ycircumflex" unicode="&#x176;" horiz-adv-x="1054" vert-adv-y="2457" 
d="M447 587l-447 778h176l348 -609l353 609h177l-454 -778v-587h-153v587zM240 1561l285 243l288 -244l-108 -83l-179 155l-180 -155z" />
    <glyph glyph-name="ycircumflex" unicode="&#x177;" horiz-adv-x="920" vert-adv-y="2457" 
d="M396 81l-391 770h169l300 -609l275 609h165l-628 -1330h-165zM176 1077l282 266l285 -266l-105 -80l-180 169l-179 -170z" />
    <glyph glyph-name="Ydieresis" unicode="&#x178;" horiz-adv-x="1054" vert-adv-y="2457" 
d="M447 587l-447 778h176l348 -609l353 609h177l-454 -778v-587h-153v587zM332 1738c28.667 0 53.333 -10.333 74 -31c20.667 -20 31 -44.333 31 -73c0 -29.333 -10.333 -54 -31 -74c-20 -20.667 -44.667 -31 -74 -31c-28.667 0 -53 10.333 -73 31
c-20.667 20.667 -31 45.667 -31 75c0 28 10.333 52 31 72c20.667 20.667 45 31 73 31zM720.999 1738c29.333 0 54 -10.333 74 -31c20.667 -20 31 -44.333 31 -73c0 -29.333 -10.333 -54 -31 -74c-20 -20.667 -44.667 -31 -74 -31c-28.667 0 -53 10.333 -73 31
c-20.667 20.667 -31 45.667 -31 75c0 28 10.333 52 31 72c20.667 20.667 45 31 73 31z" />
    <glyph glyph-name="Zacute" unicode="&#x179;" horiz-adv-x="1067" vert-adv-y="2457" 
d="M287 142h726v-142h-979l745 1223h-649v142h902zM837 1715l-294 -239l-88 65l244 265z" />
    <glyph glyph-name="zacute" unicode="&#x17a;" horiz-adv-x="920" vert-adv-y="2457" 
d="M299 135h586v-135h-880l615 716h-501v135h792zM759 1275l-276 -279l-91 51l216 296z" />
    <glyph glyph-name="Zdotaccent" unicode="&#x17b;" horiz-adv-x="1067" vert-adv-y="2457" 
d="M287 142h726v-142h-979l745 1223h-649v142h902zM567 1741c30 0 56 -10.666 78 -31.999c21.333 -21.333 32 -47 32 -77c0 -30.667 -10.667 -56.667 -32 -78c-22 -21.333 -47.667 -32 -77 -32c-30.667 0 -56.667 10.667 -78 32c-21.333 22 -32 48.333 -32 79
c0 29.333 10.667 54.666 32 75.999s47 32 77 32z" />
    <glyph glyph-name="zdotaccent" unicode="&#x17c;" horiz-adv-x="920" vert-adv-y="2457" 
d="M299 135h586v-135h-880l615 716h-501v135h792zM499 1250c29.333 0 54 -10.333 74 -31c20.667 -20 31 -44.333 31 -73c0 -29.333 -10.333 -54 -31 -74c-20 -20.667 -44.333 -31 -73 -31c-29.333 0 -54 10.333 -74 31c-20.667 20.667 -31 45.667 -31 75
c0 27.333 10.333 51.333 31 72c20 20.667 44.333 31 73 31z" />
    <glyph glyph-name="Zcaron" unicode="&#x17d;" horiz-adv-x="1067" vert-adv-y="2457" 
d="M287 142h726v-142h-979l745 1223h-649v142h902zM854 1721l-285 -244l-288 244l108 83l179 -154l180 154z" />
    <glyph glyph-name="zcaron" unicode="&#x17e;" horiz-adv-x="920" vert-adv-y="2457" 
d="M299 135h586v-135h-880l615 716h-501v135h792zM776 1263l-282 -267l-285 267l105 80l180 -169l179 169z" />
    <glyph glyph-name="uni018F" unicode="&#x18f;" horiz-adv-x="1626" vert-adv-y="2457" 
d="M1368 718c-6.66699 82 -27.3311 157.333 -61.998 226c-47.333 91.333 -114.666 164 -201.999 218c-88.667 55.333 -185.334 83 -290.001 83c-106 0 -204.667 -28.333 -296 -85c-74.667 -46.667 -138 -113.667 -190 -201l-139 60c43.333 74 93 136 149 186
c138 122 296.667 183 476 183c123.333 0 239.666 -31.333 348.999 -94c111.333 -63.333 199.333 -150 264 -260c64 -110 96 -227.667 96 -353c0 -126 -32.333 -243.667 -97 -353c-62 -106 -146 -190.333 -252 -253c-112.667 -66.667 -233.334 -100 -362.001 -100
c-124 0 -241.667 31.667 -353 95c-117.333 66.667 -207.333 156.667 -270 270c-58 104.667 -87 219 -87 343c0 12 0.333008 23.667 1 35h1265zM1359 576l-1093 -0.000976562c10 -55.333 27.333 -106.666 52 -153.999c48.667 -93.333 119 -168 211 -224
c89.333 -53.333 184 -80 284 -80c143.333 0 269.333 50.667 378 152c90.667 84 146.667 186 168 306z" />
    <glyph glyph-name="florin" unicode="&#x192;" horiz-adv-x="1133" vert-adv-y="2457" 
d="M665 825h217.002l-20 -123h-220l-108 -590c-19.333 -105.333 -38 -181.333 -56 -228c-36.667 -93.333 -100.667 -157.333 -192 -192c-50 -19.333 -105.333 -29 -166 -29c-24.667 0 -56.334 2.33301 -95.001 7l29 136c28 -1.33301 48 -2 60 -2c87.333 0 152.333 27 195 81
c30 38 55.667 116 77 234l106 583h-148l20 123h151l55 308c15.333 84.667 40.333 151 75 199c49.333 67.333 123.666 101 222.999 101c36 0 77 -7.33301 123 -22l-27 -137c-34 14 -65.667 21 -95 21c-54.667 0 -92 -20 -112 -60c-16.667 -31.333 -31 -79 -43 -143z" />
    <glyph glyph-name="Ohorn" unicode="&#x1a0;" horiz-adv-x="1593" vert-adv-y="2457" 
d="M1382 1090c83.333 -156.667 125.002 -298 125.002 -424c0 -116.667 -32.333 -229.667 -97 -339c-62.667 -106 -146.667 -190 -252 -252c-112.667 -66.667 -233.334 -100 -362.001 -100c-124.667 0 -242.334 31.333 -353.001 94c-116.667 66.667 -206.667 157 -270 271
c-58 104 -87 216.667 -87 338c0 122 29 235.333 87 340c60.667 110 146 198.333 256 265c114.667 70 237.667 105 369 105c185.333 0 347.333 -65 486 -195c3.33301 -2.66699 7 -6 11 -10l79 264l141 -43zM797.002 1245c-169.333 0 -309.667 -65.001 -421 -195.001
c-90.667 -105.333 -136 -225.666 -136 -360.999c0 -168 58 -306.667 174 -416c60 -56 128.333 -97.667 205 -125c58 -20 115.667 -30 173 -30c103.333 0 199.666 27 288.999 81c88 52 155.667 121.667 203 209c46 84 69 175 69 273c0 159.333 -56.667 295 -170 407
c-59.333 58 -127.666 100 -204.999 126c-60.667 20.667 -121 31 -181 31z" />
    <glyph glyph-name="ohorn" unicode="&#x1a1;" horiz-adv-x="1040" vert-adv-y="2457" 
d="M872 704l62 208.001l141 -42l-128 -303c14.667 -46.667 22 -94.334 22 -143.001c0 -136.667 -49.667 -249 -149 -337c-84 -74.667 -183.667 -112 -299 -112c-140 0 -254.667 52 -344 156c-70.667 83.333 -106 180.333 -106 291c0 130.667 46.667 239.667 140 327
c86 80.667 189 121 309 121c117.333 0 218.333 -37.667 303 -113c16.667 -15.333 33 -33 49 -53zM519 738.001c-97.333 0 -174.667 -36.667 -232 -110c-44.667 -57.333 -67 -124.333 -67 -201c0 -98 29.667 -176.667 89 -236c56 -56 125 -84 207 -84
c100 0 179.333 36.333 238 109c44 55.333 66 124 66 206c0 96 -30 173.333 -90 232c-56.667 56 -127 84 -211 84z" />
    <glyph glyph-name="Uhorn" unicode="&#x1af;" horiz-adv-x="1301" vert-adv-y="2457" 
d="M317 1365l0.000976562 -836c0 -86 5 -148.333 15 -187c17.333 -68 57 -122.667 119 -164c60.667 -40 127 -60 199 -60c84 0 159 26 225 78c54 43.333 87.333 101 100 173c6 34.667 9 88 9 160v836h153v-878c0 -94.667 -11.333 -170.334 -34 -227.001
c-37.333 -91.333 -102.333 -163.666 -195 -216.999c-79.333 -45.333 -165.333 -68 -258 -68c-108.667 0 -207.667 31 -297 93c-84.667 59.333 -140.334 135 -167.001 227c-14.667 49.333 -22 113.333 -22 192v878h153zM1328 1447l155 -49l-161 -311l-104 33z" />
    <glyph glyph-name="uhorn" unicode="&#x1b0;" horiz-adv-x="937" vert-adv-y="2457" 
d="M277 851l0.000976562 -496.999c0 -73.333 8.66699 -126.333 26 -159c15.333 -28.667 38.666 -50.667 69.999 -66c29.333 -14.667 61 -22 95 -22c50.667 0 93.334 14.333 128.001 43c30.667 25.333 49.667 61.333 57 108c4 24 6 56 6 96v497h146v-513
c0 -80.667 -10 -142.334 -30 -185.001c-28 -61.333 -73.667 -108 -137 -140c-50.667 -25.333 -107.334 -38 -170.001 -38c-109.333 0 -196 35.667 -260 107c-34 38 -56 80 -66 126c-7.33301 36 -11 79.333 -11 130v513h146zM954.001 905.001l141 -43l-133 -314l-105 33z" />
    <glyph glyph-name="uni01CD" unicode="&#x1cd;" horiz-adv-x="1242" vert-adv-y="2457" 
d="M914 386h-583l-165 -386h-166l629 1430l613 -1430h-167zM854 528l-228 547l-233 -547h461zM917 1721l-285 -244l-288 244l108 83l180 -154l180 154z" />
    <glyph glyph-name="uni01CE" unicode="&#x1ce;" horiz-adv-x="1050" vert-adv-y="2457" 
d="M775 851l145.999 0.000976562v-851h-146v118c-80 -95.333 -177.667 -143 -293 -143c-126.667 0 -229.667 48.333 -309 145c-67.333 81.333 -101 183.666 -101 306.999c0 143.333 45 256.333 135 339c76.667 70 167.334 105 272.001 105c117.333 0 216 -47 296 -141v121z
M500.999 739.001c-82.667 0 -151.332 -31.667 -205.999 -95c-49.333 -57.333 -74 -128.333 -74 -213c0 -102 29.667 -183.333 89 -244c52 -53.333 115.333 -80 190 -80c91.333 0 164.666 35.333 219.999 106c43.333 55.333 65 126.333 65 213c0 102 -29.667 180.333 -89 235
c-56 52 -121 78 -195 78zM814.001 1263l-282 -267l-285 267l105 80l180 -169l180 169z" />
    <glyph glyph-name="uni01D3" unicode="&#x1d3;" horiz-adv-x="1301" vert-adv-y="2457" 
d="M317 1365l0.000976562 -836c0 -86 5 -148.333 15 -187c17.333 -68 57 -122.667 119 -164c60.667 -40 127 -60 199 -60c84 0 159 26 225 78c54 43.333 87.333 101 100 173c6 34.667 9 88 9 160v836h153v-878c0 -94.667 -11.333 -170.334 -34 -227.001
c-37.333 -91.333 -102.333 -163.666 -195 -216.999c-79.333 -45.333 -165.333 -68 -258 -68c-108.667 0 -207.667 31 -297 93c-84.667 59.333 -140.334 135 -167.001 227c-14.667 49.333 -22 113.333 -22 192v878h153zM937.001 1721l-285 -244l-288 244l109 83l179 -154
l180 154z" />
    <glyph glyph-name="uni01D4" unicode="&#x1d4;" horiz-adv-x="937" vert-adv-y="2457" 
d="M277 851l0.000976562 -496.999c0 -73.333 8.66699 -126.333 26 -159c15.333 -28.667 38.666 -50.667 69.999 -66c29.333 -14.667 61 -22 95 -22c50.667 0 93.334 14.333 128.001 43c30.667 25.333 49.667 61.333 57 108c4 24 6 56 6 96v497h146v-513
c0 -80.667 -10 -142.334 -30 -185.001c-28 -61.333 -73.667 -108 -137 -140c-50.667 -25.333 -107.334 -38 -170.001 -38c-109.333 0 -196 35.667 -260 107c-34 38 -56 80 -66 126c-7.33301 36 -11 79.333 -11 130v513h146zM752.001 1263l-282 -267l-285 267l105 80
l179 -169l180 169z" />
    <glyph glyph-name="Gcaron" unicode="&#x1e6;" horiz-adv-x="1519" vert-adv-y="2457" 
d="M864 685l569.004 0.00390625c0 -104 -6.33301 -184 -19 -240c-29.333 -136 -105 -248.667 -227 -338c-119.333 -88 -253 -132 -401 -132c-120.667 0 -234.667 30.333 -342 91c-120.667 68.667 -213.334 164 -278.001 286c-54 102 -81 211 -81 327
c0 135.333 35.667 260.333 107 375c67.333 108 157.666 191.667 270.999 251c104.667 55.333 216.667 83 336 83c157.333 0 296.666 -46.333 417.999 -139c45.333 -34.667 97.666 -87.334 156.999 -158.001l-112 -102c-46.667 61.333 -89.667 107.666 -129 138.999
c-97.333 78 -208.666 117 -333.999 117c-92 0 -179 -22 -261 -66c-95.333 -50.667 -169.666 -122.334 -222.999 -215.001c-50.667 -87.333 -76 -183 -76 -287c0 -162 58.667 -297.333 176 -406c110.667 -102 235 -153 373 -153c121.333 0 230.666 39.667 327.999 119
c79.333 65.333 127.666 145 144.999 239c3.33301 17.333 6 39.666 8 66.999h-405v142zM1094 1721l-285 -244l-288 244l108 83l180 -154l179 154z" />
    <glyph glyph-name="gcaron" unicode="&#x1e7;" horiz-adv-x="1051" vert-adv-y="2457" 
d="M923 851v-832.002c0 -105.333 -9.33301 -183.666 -28 -234.999c-33.333 -90 -91 -158 -173 -204c-65.333 -36 -138.666 -54 -219.999 -54c-125.333 0 -226 37.667 -302 113c-70 70.667 -107.333 163.334 -112 278.001h145c4.66699 -62.667 18 -110.667 40 -144
c22.667 -36.667 55 -65 97 -85s86.667 -30 134 -30c98 0 170.667 35 218 105c36.667 53.333 55 130.333 55 231v124c-82.667 -94 -182.667 -141 -300 -141c-118.667 0 -218.334 45.667 -299.001 137c-70.667 81.333 -106 184.333 -106 309c0 138 43 249 129 333
c78.667 77.333 173 116 283 116c116 0 213.667 -47 293 -141v120h146zM500 739.998c-92 0 -165.333 -38 -220 -114c-39.333 -54.667 -59 -121.667 -59 -201c0 -96 25.667 -171.333 77 -226c55.333 -60 122 -90 200 -90c90 0 163.333 35 220 105c44 53.333 66 123 66 209
c0 105.333 -31 186 -93 242c-56 50 -119.667 75 -191 75zM815 1263l-282 -267l-285 267l105 80l180 -169l179 169z" />
    <glyph glyph-name="uni01F4" unicode="&#x1f4;" horiz-adv-x="1519" vert-adv-y="2457" 
d="M864 685l569.004 0.00390625c0 -104 -6.33301 -184 -19 -240c-29.333 -136 -105 -248.667 -227 -338c-119.333 -88 -253 -132 -401 -132c-120.667 0 -234.667 30.333 -342 91c-120.667 68.667 -213.334 164 -278.001 286c-54 102 -81 211 -81 327
c0 135.333 35.667 260.333 107 375c67.333 108 157.666 191.667 270.999 251c104.667 55.333 216.667 83 336 83c157.333 0 296.666 -46.333 417.999 -139c45.333 -34.667 97.666 -87.334 156.999 -158.001l-112 -102c-46.667 61.333 -89.667 107.666 -129 138.999
c-97.333 78 -208.666 117 -333.999 117c-92 0 -179 -22 -261 -66c-95.333 -50.667 -169.666 -122.334 -222.999 -215.001c-50.667 -87.333 -76 -183 -76 -287c0 -162 58.667 -297.333 176 -406c110.667 -102 235 -153 373 -153c121.333 0 230.666 39.667 327.999 119
c79.333 65.333 127.666 145 144.999 239c3.33301 17.333 6 39.666 8 66.999h-405v142zM1070 1715l-294 -239l-88 65l245 265z" />
    <glyph glyph-name="Scommaaccent" unicode="&#x218;" horiz-adv-x="1032" vert-adv-y="2457" 
d="M893 1175l-119.996 -79.0039c-26.667 42 -50.334 72 -71.001 90c-43.333 39.333 -97.666 59 -162.999 59c-70 0 -126 -22.667 -168 -68c-38.667 -41.333 -58 -89 -58 -143c0 -59.333 28.333 -108.333 85 -147c33.333 -22 69 -41.333 107 -58l130 -57
c111.333 -49.333 189.333 -101.666 234 -156.999c50 -61.333 75 -134.666 75 -219.999c0 -126.667 -47.667 -231.667 -143 -315c-80.667 -70 -177.667 -105 -291 -105c-143.333 0 -256.333 55 -339 165c-36.667 48.667 -64 111.334 -82 188.001l148 41
c13.333 -62 31.666 -109 54.999 -141c24 -33.333 55.333 -59.666 94 -78.999c40.667 -20.667 84 -31 130 -31c78.667 0 144.667 27.667 198 83c50.667 52 76 114 76 186c0 82 -37.667 146.667 -113 194c-34.667 22 -115.334 61.333 -242.001 118
c-100.667 46 -171.334 94.667 -212.001 146c-42.667 54 -64 117.667 -64 191c0 115.333 45.333 206.333 136 273c72 52.667 154 79 246 79c153.333 0 270.666 -71 351.999 -213zM456.004 -109.004l156 -49l-161 -312l-105 34z" />
    <glyph glyph-name="scommaaccent" unicode="&#x219;" horiz-adv-x="695" vert-adv-y="2457" 
d="M597 716l-121.001 -63c-30 56.667 -69.333 85 -118 85c-31.333 0 -57.333 -11.333 -78 -34c-16 -16.667 -24 -37 -24 -61c0 -27.333 12 -50.333 36 -69c18 -14 51.667 -31.333 101 -52c76.667 -32 130.667 -59.333 162 -82c62 -45.333 93 -107.666 93 -186.999
c0 -83.333 -30.333 -151.666 -91 -204.999c-55.333 -48.667 -122 -73 -200 -73c-142 0 -241 72.333 -297 217l128 54c16.667 -34 31.334 -59.333 44.001 -76c31.333 -42 73.666 -63 126.999 -63c47.333 0 84 16 110 48c20 25.333 30 54 30 86
c0 35.333 -12.667 64.666 -38 87.999c-16 14.667 -49.333 33 -100 55c-78 33.333 -134.667 62.666 -170 87.999c-50 36.667 -75 89.667 -75 159c0 74 26.667 133.333 80 178c48.667 40.667 104.667 61 168 61c102.667 0 180.334 -51.333 233.001 -154zM293.999 -109l142 -43
l-134 -314l-104 33z" />
    <glyph glyph-name="uni021A" unicode="&#x21a;" horiz-adv-x="842" vert-adv-y="2457" 
d="M497 1223v-1223h-153v1223h-330v142h815v-142h-332zM355 -109l155 -49l-161 -312l-105 34z" />
    <glyph glyph-name="uni021B" unicode="&#x21b;" horiz-adv-x="417" vert-adv-y="2457" 
d="M275 716v-716h-146v716h-89v135h89v305h146v-305h150v-135h-150zM141 -109l141 -43l-133 -314l-105 33z" />
    <glyph glyph-name="uni0259" unicode="&#x259;" horiz-adv-x="986" vert-adv-y="2457" 
d="M85 451l663 0.000976562c-2.66699 58 -15 107 -37 147c-23.333 44 -55.666 78.333 -96.999 103s-87 37 -137 37c-70.667 0 -131 -23.333 -181 -70c-22 -21.333 -48.667 -57.333 -80 -108l-123 69c34 59.333 68.667 104.666 104 135.999
c79.333 70 174.666 105 285.999 105c136 0 244 -49.333 324 -148c63.333 -78.667 95 -177.667 95 -297c0 -137.333 -40.333 -248 -121 -332c-76 -78.667 -173 -118 -291 -118c-106.667 0 -197 33.333 -271 100c-89.333 80.667 -134 206 -134 376zM238 328.001
c9.33301 -47.333 26.001 -86.668 50.001 -118.001c50 -68 116.667 -102 200 -102c86.667 0 156 37.667 208 113c21.333 30.667 35.666 66.334 42.999 107.001h-501z" />
    <glyph glyph-name="afii57929" unicode="&#x2bc;" horiz-adv-x="536" vert-adv-y="2457" 
d="M286 1434l134 -49l-206 -462l-98 39z" />
    <glyph glyph-name="circumflex" unicode="&#x2c6;" horiz-adv-x="975" vert-adv-y="2457" 
d="M204 1077l282 266l285 -266l-105 -80l-180 169l-179 -170z" />
    <glyph glyph-name="caron" unicode="&#x2c7;" horiz-adv-x="975" vert-adv-y="2457" 
d="M771 1263l-282 -267l-285 267l105 80l180 -169l179 169z" />
    <glyph glyph-name="uni02C9" unicode="&#x2c9;" horiz-adv-x="975" vert-adv-y="2457" 
d="M212 1201h550v-123h-550v123z" />
    <glyph glyph-name="breve" unicode="&#x2d8;" horiz-adv-x="975" vert-adv-y="2457" 
d="M219 1297h127.002c3.33301 -40.667 15.666 -73 36.999 -97c26.667 -30.667 60.667 -46 102 -46c39.333 0 72.333 13.667 99 41c23.333 24 38.666 58 45.999 102h126c-7.33301 -66.667 -28.333 -121.667 -63 -165c-53.333 -67.333 -122.333 -101 -207 -101
c-88 0 -158.667 33.667 -212 101c-34.667 44 -53 99 -55 165z" />
    <glyph glyph-name="dotaccent" unicode="&#x2d9;" horiz-adv-x="975" vert-adv-y="2457" 
d="M487 1250c29.333 0 54 -10.333 74 -31c20.667 -20 31 -44.333 31 -73c0 -29.333 -10.333 -54 -31 -74c-20 -20.667 -44.333 -31 -73 -31c-29.333 0 -54 10.333 -74 31c-20.667 20.667 -31 45.667 -31 75c0 28 10.333 52 31 72c20.667 20.667 45 31 73 31z" />
    <glyph glyph-name="ring" unicode="&#x2da;" horiz-adv-x="975" vert-adv-y="2457" 
d="M487 1361c51.333 0 95.333 -18 132 -54c36 -36 54 -79.667 54 -131s-18 -95.333 -54 -132c-36.667 -36 -80.334 -54 -131.001 -54c-52 0 -96 18 -132 54c-36 37.333 -54 82 -54 134c0 50 18 93 54 129c36.667 36 80.334 54 131.001 54zM488 1261
c-24 0 -44.333 -8.33105 -61 -24.998s-25 -36.334 -25 -59.001c0 -24.667 8.33301 -45.334 25 -62.001s37 -25 61 -25c23.333 0 43.333 8.33301 60 25s25 37 25 61s-8.33301 44 -25 60c-17.333 16.667 -37.333 25 -60 25z" />
    <glyph glyph-name="ogonek" unicode="&#x2db;" horiz-adv-x="975" vert-adv-y="2457" 
d="M759 0h116c-98 -66 -147 -125.333 -147 -178c0 -22.667 8.66699 -42 26 -58c14 -12.667 31.667 -19 53 -19c31.333 0 66 9 104 27l-18 -112c-34.667 -18.667 -70.667 -28 -108 -28c-36.667 0 -68.667 7.66699 -96 23c-26 15.333 -47 36.666 -63 63.999
c-13.333 24.667 -20 49.334 -20 74.001c0 72 51 141 153 207z" />
    <glyph glyph-name="tilde" unicode="&#x2dc;" horiz-adv-x="975" vert-adv-y="2457" 
d="M283 1037l-84.998 69c12.667 34.667 29.667 63.667 51 87c36 39.333 77.333 59 124 59c38 0 80.667 -14.667 128 -44c44 -26.667 75.667 -40 95 -40c35.333 0 67.333 29 96 87l85 -66c-13.333 -34.667 -30.333 -63 -51 -85c-40 -42 -83.333 -63 -130 -63
c-28.667 0 -67.334 14 -116.001 42c-50.667 29.333 -87.334 44 -110.001 44c-39.333 0 -68.333 -30 -87 -90z" />
    <glyph glyph-name="hungarumlaut" unicode="&#x2dd;" horiz-adv-x="975" vert-adv-y="2457" 
d="M620 1280l-272 -284l-75 48l216 299zM893 1280l-272 -284l-75 48l216 299z" />
    <glyph glyph-name="tonos" unicode="&#x384;" horiz-adv-x="302" vert-adv-y="2457" 
d="M206 1009h-111l-27 380h165z" />
    <glyph glyph-name="dieresistonos" unicode="&#x385;" horiz-adv-x="742" vert-adv-y="2457" 
d="M143 1215c28.667 0 53 -10 73 -30s30 -44 30 -72c0 -28.667 -10 -53 -30 -73c-20.667 -20 -45 -30 -73 -30s-52 10 -72 30s-30 44.667 -30 74c0 27.333 10 51 30 71s44 30 72 30zM600 1215c28 0 52 -10.001 72 -30.001s30 -44 30 -72c0 -28.667 -10 -53 -30 -73
s-44 -30 -72 -30c-28.667 0 -53 10 -73 30c-20 20.667 -30 45.334 -30 74.001c0 27.333 10 51 30 71c20.667 20 45 30 73 30zM427 1009h-111l-27 380h165z" />
    <glyph glyph-name="Alphatonos" unicode="&#x386;" horiz-adv-x="1269" vert-adv-y="2457" 
d="M928 386h-583l-165 -386h-166l629 1430l613 -1430h-167zM868 528l-228 547l-233 -547h461zM346 1009h-111l-27 380h165z" />
    <glyph glyph-name="uni0387" unicode="&#x387;" horiz-adv-x="461" vert-adv-y="2457" 
d="M231 538c28 0 52 -9.66699 72 -29c19.333 -19.333 29 -43.333 29 -72c0 -28 -9.66699 -52 -29 -72c-20 -19.333 -44 -29 -72 -29s-51.667 10 -71 30c-20 20 -30 44.333 -30 73c0 26.667 10 50 30 70c19.333 19.333 43 29 71 29z" />
    <glyph glyph-name="Epsilontonos" unicode="&#x388;" horiz-adv-x="1064" vert-adv-y="2457" 
d="M961 1223h-554v-405h539v-142h-539v-534h554v-142h-707v1365h707v-142zM138 1009h-111l-27 380h165z" />
    <glyph glyph-name="Etatonos" unicode="&#x389;" horiz-adv-x="1435" vert-adv-y="2457" 
d="M407 810h697v555h153v-1365h-153v668h-697v-668h-153v1365h153v-555zM138 1009h-111l-27 380h165z" />
    <glyph glyph-name="Iotatonos" unicode="&#x38a;" horiz-adv-x="584" vert-adv-y="2457" 
d="M407 1365v-1365h-153v1365h153zM138 1009h-111l-27 380h165z" />
    <glyph glyph-name="Omicrontonos" unicode="&#x38c;" horiz-adv-x="1646" vert-adv-y="2457" 
d="M834 1388c126 0 242.669 -31.332 350.002 -93.999c112 -64.667 200 -151.334 264 -260.001c64 -109.333 96 -227 96 -353s-32.333 -244 -97 -354c-62 -105.333 -146 -189.333 -252 -252c-112.667 -66.667 -235.334 -100 -368.001 -100
c-120.667 0 -236.334 31.333 -347.001 94c-118 67.333 -208.333 157.666 -271 270.999c-58 104.667 -87 221.334 -87 350.001c0 194 75 361.667 225 503c74.667 70.667 161 122.667 259 156c77.333 26 153.333 39 228 39zM834.002 1245
c-169.333 0 -309.999 -65.001 -421.999 -195.001c-90.667 -105.333 -136 -225.666 -136 -360.999c0 -168 58 -306.667 174 -416c60 -56 128.667 -97.667 206 -125c58 -20 115.667 -30 173 -30c103.333 0 199.666 27 288.999 81c87.333 52 155 121.667 203 209
c46 84 69 175 69 273c0 159.333 -57 295 -171 407c-58.667 58 -127 100 -205 126c-60.667 20.667 -120.667 31 -180 31zM138.003 1009h-111l-27 380h165z" />
    <glyph glyph-name="Upsilontonos" unicode="&#x38e;" horiz-adv-x="1269" vert-adv-y="2457" 
d="M649 587l-447 778h176l348 -609l353 609h177l-454 -778v-587h-153v587zM138 1009h-111l-27 380h165z" />
    <glyph glyph-name="Omegatonos" unicode="&#x38f;" horiz-adv-x="1647" vert-adv-y="2457" 
d="M1269 142l276.001 0.000976562v-142h-556v142c46.667 14.667 89.667 33.667 129 57c92.667 55.333 163 129.666 211 222.999c41.333 79.333 62 165 62 257c0 164 -58 301.333 -174 412c-107.333 102.667 -235 154 -383 154c-106 0 -204 -28.333 -294 -85
c-80.667 -50.667 -144 -117.667 -190 -201c-48 -86 -72 -179.333 -72 -280c0 -137.333 43.667 -257.333 131 -360c71.333 -84.667 161.333 -143.667 270 -177v-142h-555v142h276c-184 143.333 -276 324 -276 542c0 118.667 29 230.334 87 335.001
c61.333 109.333 146.333 197.333 255 264c115.333 70 238 105 368 105s252.667 -35 368 -105c109.333 -66.667 194.666 -154.667 255.999 -264c58 -104.667 87 -216.334 87 -335.001c0 -218 -92 -398.667 -276 -542zM138.001 1009h-111l-27 380h165z" />
    <glyph glyph-name="iotadieresistonos" unicode="&#x390;" horiz-adv-x="425" vert-adv-y="2457" 
d="M285 851v-851h-146v851h146zM-16 1215c28.667 0 53 -10 73 -30s30 -44 30 -72c0 -28.667 -10 -53 -30 -73c-20.667 -20 -45 -30 -73 -30s-52 10 -72 30s-30 44.667 -30 74c0 27.333 10 51 30 71s44 30 72 30zM441 1215c28 0 52 -10.001 72 -30.001s30 -44 30 -72
c0 -28.667 -10 -53 -30 -73s-44 -30 -72 -30c-28.667 0 -53 10 -73 30c-20 20.667 -30 45.334 -30 74.001c0 27.333 10 51 30 71c20.667 20 45 30 73 30zM268 1009h-111l-27 380h165z" />
    <glyph glyph-name="Alpha" unicode="&#x391;" horiz-adv-x="1269" vert-adv-y="2457" 
d="M928 386h-583l-165 -386h-166l629 1430l613 -1430h-167zM868 528l-228 547l-233 -547h461z" />
    <glyph glyph-name="Beta" unicode="&#x392;" horiz-adv-x="1085" vert-adv-y="2457" 
d="M177 0l-0.000976562 1365h248c136.667 0 239.667 -28.333 309 -85c40.667 -34 72.334 -77.667 95.001 -131c20.667 -48.667 31 -100 31 -154c0 -79.333 -21 -146 -63 -200c-16 -20.667 -40 -42.667 -72 -66c57.333 -16.667 104.333 -41.334 141 -74.001
c78 -68.667 117 -159 117 -271c0 -119.333 -46 -216.333 -138 -291c-44.667 -36.667 -92 -61 -142 -73c-52.667 -13.333 -114.667 -20 -186 -20h-340zM329.999 763.001h114c64.667 0 112 6.33301 142 19c45.333 20 79 53 101 99c16 32.667 24 70 24 112
c0 77.333 -24 137 -72 179c-39.333 34 -103 51 -191 51h-118v-460zM329.999 142.001l174 0.000976562c80 0 137.667 7 173 21c53.333 21.333 94 56.333 122 105c21.333 37.333 32 77.666 32 120.999c0 56 -18 106.333 -54 151c-34.667 43.333 -86.667 71 -156 83
c-35.333 6.66699 -81 10 -137 10h-154v-491z" />
    <glyph glyph-name="Gamma" unicode="&#x393;" horiz-adv-x="860" vert-adv-y="2457" 
d="M330 0h-153v1365h655v-142h-502v-1223z" />
    <glyph glyph-name="uni0394" unicode="&#x394;" horiz-adv-x="1269" vert-adv-y="2457" 
d="M14 0l629 1431l613 -1431h-1242zM1030 142l-390 934l-400 -934h790z" />
    <glyph glyph-name="Epsilon" unicode="&#x395;" horiz-adv-x="987" vert-adv-y="2457" 
d="M884 1223h-554v-405h539v-142h-539v-534h554v-142h-707v1365h707v-142z" />
    <glyph glyph-name="Zeta" unicode="&#x396;" horiz-adv-x="1094" vert-adv-y="2457" 
d="M301 142h726v-142h-979l745 1223h-649v142h902z" />
    <glyph glyph-name="Eta" unicode="&#x397;" horiz-adv-x="1359" vert-adv-y="2457" 
d="M330 810h698v555h153v-1365h-153v668h-698v-668h-153v1365h153v-555z" />
    <glyph glyph-name="Theta" unicode="&#x398;" horiz-adv-x="1626" vert-adv-y="2457" 
d="M814 1388c126 0 242.335 -31.332 349.002 -93.999c112 -64.667 200 -151.334 264 -260.001c64 -109.333 96 -227 96 -353s-32.333 -244 -97 -354c-62 -105.333 -146 -189.333 -252 -252c-112.667 -66.667 -235.334 -100 -368.001 -100c-120 0 -235.667 31.333 -347 94
c-117.333 67.333 -207.333 157.666 -270 270.999c-58 104.667 -87 221.334 -87 350.001c0 194 75 361.667 225 503c74.667 70.667 160.667 122.667 258 156c77.333 26 153.666 39 228.999 39zM813.002 1245c-169.333 0 -309.667 -65.001 -421 -195.001
c-90.667 -105.333 -136 -225.666 -136 -360.999c0 -168 58 -306.667 174 -416c60 -56 128.333 -97.667 205 -125c58 -20 115.667 -30 173 -30c103.333 0 199.666 27 288.999 81c88 52 155.667 121.667 203 209c46 84 69 175 69 273c0 159.333 -56.667 295 -170 407
c-59.333 58 -127.666 100 -204.999 126c-60.667 20.667 -121 31 -181 31zM1153 754v-142h-676v142h676z" />
    <glyph glyph-name="Iota" unicode="&#x399;" horiz-adv-x="508" vert-adv-y="2457" 
d="M330 1365v-1365h-153v1365h153z" />
    <glyph glyph-name="Kappa" unicode="&#x39a;" horiz-adv-x="1165" vert-adv-y="2457" 
d="M330 779l582 586h204l-640 -636l661 -729h-209l-559 626l-39 -38v-588h-153v1365h153v-586z" />
    <glyph glyph-name="Lambda" unicode="&#x39b;" horiz-adv-x="1269" vert-adv-y="2457" 
d="M1089 0l-449 1076l-460 -1076h-166l629 1431l613 -1431h-167z" />
    <glyph glyph-name="Mu" unicode="&#x39c;" horiz-adv-x="1767" vert-adv-y="2457" 
d="M130 0l226 1443l524 -1154l536 1154l212 -1443h-156l-128 950l-465 -1007l-459 1007l-134 -950h-156z" />
    <glyph glyph-name="Nu" unicode="&#x39d;" horiz-adv-x="1571" vert-adv-y="2457" 
d="M177 0v1422l1064 -1114v1057h153v-1427l-1064 1114v-1052h-153z" />
    <glyph glyph-name="Xi" unicode="&#x39e;" horiz-adv-x="1208" vert-adv-y="2457" 
d="M102 1365h1004v-142h-1004v142zM117 676v142h974v-142h-974zM102 0v142h1004v-142h-1004z" />
    <glyph glyph-name="Omicron" unicode="&#x39f;" horiz-adv-x="1626" vert-adv-y="2457" 
d="M814 1388c126 0 242.335 -31.332 349.002 -93.999c112 -64.667 200 -151.334 264 -260.001c64 -109.333 96 -227 96 -353s-32.333 -244 -97 -354c-62 -105.333 -146 -189.333 -252 -252c-112.667 -66.667 -235.334 -100 -368.001 -100c-120 0 -235.667 31.333 -347 94
c-117.333 67.333 -207.333 157.666 -270 270.999c-58 104.667 -87 221.334 -87 350.001c0 194 75 361.667 225 503c74.667 70.667 160.667 122.667 258 156c77.333 26 153.666 39 228.999 39zM813.002 1245c-169.333 0 -309.667 -65.001 -421 -195.001
c-90.667 -105.333 -136 -225.666 -136 -360.999c0 -168 58 -306.667 174 -416c60 -56 128.333 -97.667 205 -125c58 -20 115.667 -30 173 -30c103.333 0 199.666 27 288.999 81c88 52 155.667 121.667 203 209c46 84 69 175 69 273c0 159.333 -56.667 295 -170 407
c-59.333 58 -127.666 100 -204.999 126c-60.667 20.667 -121 31 -181 31z" />
    <glyph glyph-name="Pi" unicode="&#x3a0;" horiz-adv-x="1359" vert-adv-y="2457" 
d="M1181 1365v-1365h-153v1223h-698v-1223h-153v1365h1004z" />
    <glyph glyph-name="Rho" unicode="&#x3a1;" horiz-adv-x="937" vert-adv-y="2457" 
d="M330 598v-598.002h-153v1365h248c108.667 0 191.667 -12.333 249 -37c82.667 -35.333 143.667 -93.666 183 -174.999c25.333 -53.333 38 -110.666 38 -171.999c0 -74 -18 -142 -54 -204c-69.333 -119.333 -195.333 -179 -378 -179h-133zM330 736.998
l124.001 -0.000976562c96 0 168.667 22.333 218 67c48.667 44.667 73 104.334 73 179.001c0 77.333 -25 137 -75 179c-48.667 40.667 -124.334 61 -227.001 61h-113v-486z" />
    <glyph glyph-name="Sigma" unicode="&#x3a3;" horiz-adv-x="1170" vert-adv-y="2457" 
d="M859 686l-468 -544h670v-142h-979l592 683l-557 682h944v-142h-634z" />
    <glyph glyph-name="Tau" unicode="&#x3a4;" horiz-adv-x="870" vert-adv-y="2457" 
d="M510 1223v-1223h-153v1223h-330v142h815v-142h-332z" />
    <glyph glyph-name="Upsilon" unicode="&#x3a5;" horiz-adv-x="1081" vert-adv-y="2457" 
d="M461 587l-447 778h176l348 -609l353 609h177l-454 -778v-587h-153v587z" />
    <glyph glyph-name="Phi" unicode="&#x3a6;" horiz-adv-x="1585" vert-adv-y="2457" 
d="M866 -109h-147v153c-112 1.33301 -216.667 29.666 -314 84.999c-106 60 -187.667 141.667 -245 245c-52 93.333 -78 195 -78 305c0 159.333 51.667 298.666 155 417.999c106.667 122.667 242 195.334 406 218.001c24 3.33301 49.333 5.33301 76 6v154h147v-154
c119.333 -4 228.666 -35.667 327.999 -95c98.667 -59.333 175.334 -139 230.001 -239c52.667 -95.333 79 -198 79 -308c0 -161.333 -53.333 -301 -160 -419c-108.667 -121.333 -243.334 -191.666 -404.001 -210.999c-23.333 -3.33301 -47.666 -5 -72.999 -5v-153zM719 187
v990.002c-93.333 -2.66699 -177.666 -27.334 -252.999 -74.001c-70.667 -44 -126.334 -103 -167.001 -177c-42 -76 -63 -158 -63 -246c0 -121.333 38 -227 114 -317c96 -112.667 219 -171.334 369 -176.001zM866 187.002c88.667 2.66699 170 26.334 244 71.001
c81.333 48 143 113.333 185 196c36 69.333 54 144.666 54 225.999c0 124.667 -39.667 233.667 -119 327c-92.667 109.333 -214 166 -364 170v-990z" />
    <glyph glyph-name="Chi" unicode="&#x3a7;" horiz-adv-x="1028" vert-adv-y="2457" 
d="M431 706l-368 659h172l283 -514l289 514h175l-377 -659l396 -706h-171l-314 560l-317 -560h-172z" />
    <glyph glyph-name="Psi" unicode="&#x3a8;" horiz-adv-x="1369" vert-adv-y="2457" 
d="M608 492v873.001h153v-874c123.333 10.667 213 44 269 100c39.333 40 64.333 91.333 75 154c6 33.333 9 86 9 158v462h153v-503c0 -109.333 -16.667 -196 -50 -260c-61.333 -119.333 -162 -196.333 -302 -231c-44 -11.333 -95.333 -19 -154 -23v-348h-153v348
c-156 11.333 -274 52.333 -354 123c-64 56.667 -107.333 123 -130 199c-14.667 49.333 -22 113.333 -22 192v503h153v-462c0 -98.667 7.66699 -169.334 23 -212.001c42.667 -120.667 152.667 -187 330 -199z" />
    <glyph glyph-name="uni03A9" unicode="&#x3a9;" horiz-adv-x="1626" vert-adv-y="2457" 
d="M1247 142h276v-142h-555v142c46 14.667 88.667 33.667 128 57c92.667 55.333 163 129.666 211 222.999c41.333 79.333 62 165 62 257c0 164 -58 301.333 -174 412c-106.667 102.667 -234 154 -382 154c-106.667 0 -205 -28.333 -295 -85
c-80.667 -50.667 -144 -117.667 -190 -201c-48 -86 -72 -179.333 -72 -280c0 -137.333 43.667 -257.333 131 -360c71.333 -84.667 161.333 -143.667 270 -177v-142h-555v142h276c-184 146.667 -276 327.334 -276 542.001c0 118.667 29 230.334 87 335.001
c61.333 109.333 146.333 197.333 255 264c115.333 70 238.333 105 369 105c130 0 252.667 -35 368 -105c108.667 -66.667 193.667 -154.667 255 -264c58 -104.667 87 -216.334 87 -335.001c0 -218 -92 -398.667 -276 -542z" />
    <glyph glyph-name="Iotadieresis" unicode="&#x3aa;" horiz-adv-x="508" vert-adv-y="2457" 
d="M331 1365v-1365h-153v1365h153zM115 1738c29.333 0 54 -10.333 74 -31c20.667 -20 31 -44.333 31 -73c0 -29.333 -10.333 -54 -31 -74c-20 -20.667 -44.333 -31 -73 -31c-29.333 0 -54 10.333 -74 31c-20.667 20.667 -31 45.667 -31 75c0 28 10.333 52 31 72
c20.667 20.667 45 31 73 31zM392 1738c28.667 0 53.333 -10.333 74 -31c20.667 -20 31 -44.333 31 -73c0 -29.333 -10.333 -54 -31 -74c-20 -20.667 -44.333 -31 -73 -31c-29.333 0 -54 10.333 -74 31c-20.667 20.667 -31 45.667 -31 75c0 28 10.333 52 31 72
c20.667 20.667 45 31 73 31z" />
    <glyph glyph-name="Upsilondieresis" unicode="&#x3ab;" horiz-adv-x="1081" vert-adv-y="2457" 
d="M461 587l-447 778h176l348 -609l353 609h177l-454 -778v-587h-153v587zM346 1738c28.667 0 53.333 -10.333 74 -31c20.667 -20 31 -44.333 31 -73c0 -29.333 -10.333 -54 -31 -74c-20 -20.667 -44.667 -31 -74 -31c-28.667 0 -53 10.333 -73 31
c-20.667 20.667 -31 45.667 -31 75c0 28 10.333 52 31 72c20.667 20.667 45 31 73 31zM734.999 1738c29.333 0 54 -10.333 74 -31c20.667 -20 31 -44.333 31 -73c0 -29.333 -10.333 -54 -31 -74c-20 -20.667 -44.667 -31 -74 -31c-28.667 0 -53 10.333 -73 31
c-20.667 20.667 -31 45.667 -31 75c0 28 10.333 52 31 72c20.667 20.667 45 31 73 31z" />
    <glyph glyph-name="alphatonos" unicode="&#x3ac;" horiz-adv-x="1073" vert-adv-y="2457" 
d="M788 851l145.999 0.000976562v-851h-146v118c-80 -95.333 -177.667 -143 -293 -143c-126.667 0 -229.667 48.333 -309 145c-67.333 81.333 -101 183.666 -101 306.999c0 143.333 45 256.333 135 339c76.667 70 167.334 105 272.001 105c117.333 0 216 -47 296 -141v121z
M513.999 739.001c-82.667 0 -151.332 -31.667 -205.999 -95c-49.333 -57.333 -74 -128.333 -74 -213c0 -102 29.667 -183.333 89 -244c52 -53.333 115.333 -80 190 -80c91.333 0 164.666 35.333 219.999 106c43.333 55.333 65 126.333 65 213c0 102 -29.667 180.333 -89 235
c-56 52 -121 78 -195 78zM588.001 1009h-111l-27 380h165z" />
    <glyph glyph-name="epsilontonos" unicode="&#x3ad;" horiz-adv-x="669" vert-adv-y="2457" 
d="M584 15c-62.667 -27.333 -129.001 -41.001 -199.001 -41.001c-95.333 0 -169.666 24 -222.999 72c-51.333 47.333 -77 108.666 -77 183.999c0 110.667 48.667 183.334 146 218.001c-81.333 34.667 -122 96.667 -122 186c0 72.667 27.333 131.667 82 177
c47.333 40 113.333 60 198 60c69.333 0 134.333 -12.333 195 -37v-132c-52.667 24 -109 36 -169 36s-103.333 -14 -130 -42c-21.333 -23.333 -32 -50.333 -32 -81c0 -56.667 29.667 -95 89 -115c20 -6.66699 60.333 -10 121 -10v-100h-19
c-140.667 -1.33301 -211 -50.666 -211 -147.999c0 -42 15.667 -75.667 47 -101c29.333 -23.333 68 -35 116 -35c66 0 128.667 17.333 188 52v-143zM438.999 1009h-110l-27 380h165z" />
    <glyph glyph-name="etatonos" unicode="&#x3ae;" horiz-adv-x="960" vert-adv-y="2457" 
d="M139 851l146.001 0.000976562v-103c26.667 32.667 50.667 56.667 72 72c47.333 34 104.666 51 171.999 51c70 0 131 -18.667 183 -56c51.333 -36 84 -89 98 -159c6.66699 -32.667 10 -75.334 10 -128.001v-1007h-146v982c0 79.333 -9.33301 134.333 -28 165
c-28.667 47.333 -78.667 71 -150 71c-85.333 0 -144 -33.667 -176 -101c-23.333 -48 -35 -119 -35 -213v-425h-146v851zM535.001 1009h-111l-27 380h165z" />
    <glyph glyph-name="iotatonos" unicode="&#x3af;" horiz-adv-x="425" vert-adv-y="2457" 
d="M286 851v-851h-146v851h146zM268 1009h-111l-27 380h165z" />
    <glyph glyph-name="upsilondieresistonos" unicode="&#x3b0;" horiz-adv-x="953" vert-adv-y="2457" 
d="M285 851l0.000976562 -496.999c0 -73.333 8.66699 -126.333 26 -159c15.333 -28.667 38.666 -50.667 69.999 -66c29.333 -14.667 61 -22 95 -22c50.667 0 93.334 14.333 128.001 43c30.667 25.333 49.667 61.333 57 108c4 24 6 56 6 96v497h146v-513
c0 -80.667 -10 -142.334 -30 -185.001c-28 -61.333 -73.667 -108 -137 -140c-50.667 -25.333 -107.334 -38 -170.001 -38c-109.333 0 -196 35.667 -260 107c-34 38 -56 80 -66 126c-7.33301 36 -11 79.333 -11 130v513h146zM248.001 1215c28.667 0 53 -10 73 -30
s30 -44 30 -72c0 -28.667 -10 -53 -30 -73c-20.667 -20 -45 -30 -73 -30s-52 10 -72 30s-30 44.667 -30 74c0 27.333 10 51 30 71s44 30 72 30zM705.001 1215c28 0 52 -10 72 -30s30 -44 30 -72c0 -28.667 -10 -53 -30 -73s-44 -30 -72 -30c-28.667 0 -53 10 -73 30
s-30 44.667 -30 74c0 27.333 10 51 30 71c20.667 20 45 30 73 30zM532.001 1009h-111l-27 380h165z" />
    <glyph glyph-name="alpha" unicode="&#x3b1;" horiz-adv-x="1073" vert-adv-y="2457" 
d="M788 851l145.999 0.000976562v-851h-146v118c-80 -95.333 -177.667 -143 -293 -143c-126.667 0 -229.667 48.333 -309 145c-67.333 81.333 -101 183.666 -101 306.999c0 143.333 45 256.333 135 339c76.667 70 167.334 105 272.001 105c117.333 0 216 -47 296 -141v121z
M513.999 739.001c-82.667 0 -151.332 -31.667 -205.999 -95c-49.333 -57.333 -74 -128.333 -74 -213c0 -102 29.667 -183.333 89 -244c52 -53.333 115.333 -80 190 -80c91.333 0 164.666 35.333 219.999 106c43.333 55.333 65 126.333 65 213c0 102 -29.667 180.333 -89 235
c-56 52 -121 78 -195 78z" />
    <glyph glyph-name="beta" unicode="&#x3b2;" horiz-adv-x="1071" vert-adv-y="2457" 
d="M139 -479l0.00195312 1408c0 125.333 6.33301 215 19 269c20.667 90.667 59 160 115 208c68.667 58 155.667 87 261 87c124 0 219.667 -39.333 287 -118c56.667 -66 85 -145.667 85 -239c0 -140.667 -63.667 -244.667 -191 -312c69.333 -25.333 122 -57.333 158 -96
c75.333 -82 113 -187 113 -315c0 -86 -20.333 -165.333 -61 -238c-34.667 -62 -82.334 -110 -143.001 -144c-64.667 -36 -138.334 -54 -221.001 -54c-104.667 0 -194 31.667 -268 95v-551h-154zM293.002 194c66.667 -58.667 142.333 -87.999 227 -87.999
c97.333 0 173.333 31 228 93c51.333 58.667 77 135 77 229c0 91.333 -24.333 166.666 -73 225.999c-54.667 68 -126.667 102 -216 102c-13.333 0 -30.333 -0.333008 -51 -1v134c71.333 2.66699 130 21.667 176 57c59.333 46 89 109 89 189c0 71.333 -22 128 -66 170
c-42 40.667 -93 61 -153 61c-68.667 0 -124.334 -25 -167.001 -75c-29.333 -34.667 -48.666 -79.667 -57.999 -135c-8.66699 -47.333 -13 -118 -13 -212v-750z" />
    <glyph glyph-name="gamma" unicode="&#x3b3;" horiz-adv-x="942" vert-adv-y="2457" 
d="M411 0l-395 851h168l300 -683l276 683h164l-367 -851v-479h-146v479z" />
    <glyph glyph-name="delta" unicode="&#x3b4;" horiz-adv-x="1068" vert-adv-y="2457" 
d="M521 870l-121 116c-75.333 72 -113 152.667 -113 242c0 76 24 137.333 72 184c56 54.667 145.333 82 268 82h145v-135h-156c-120.667 0 -181 -46.333 -181 -139c0 -49.333 24.333 -96.666 73 -141.999l313 -294c108 -101.333 162 -219.333 162 -354
c0 -140.667 -49.667 -255 -149 -343c-84 -74.667 -183.667 -112 -299 -112c-140 0 -254.667 52 -344 156c-70.667 83.333 -106 180.666 -106 291.999c0 110.667 35.333 207.667 106 291c84.667 98.667 194.667 150.667 330 156zM533 738
c-97.333 0 -174.667 -36.667 -232 -110c-44.667 -57.333 -67 -124.333 -67 -201c0 -98 29.667 -176.667 89 -236c56 -56 125 -84 207 -84c100 0 179.333 36.333 238 109c44 55.333 66 124 66 206c0 96 -30 173.333 -90 232c-56.667 56 -127 84 -211 84z" />
    <glyph glyph-name="epsilon" unicode="&#x3b5;" horiz-adv-x="669" vert-adv-y="2457" 
d="M584 15c-62.667 -27.333 -129.001 -41.001 -199.001 -41.001c-95.333 0 -169.666 24 -222.999 72c-51.333 47.333 -77 108.666 -77 183.999c0 110.667 48.667 183.334 146 218.001c-81.333 34.667 -122 96.667 -122 186c0 72.667 27.333 131.667 82 177
c47.333 40 113.333 60 198 60c69.333 0 134.333 -12.333 195 -37v-132c-52.667 24 -109 36 -169 36s-103.333 -14 -130 -42c-21.333 -23.333 -32 -50.333 -32 -81c0 -56.667 29.667 -95 89 -115c20 -6.66699 60.333 -10 121 -10v-100h-19
c-140.667 -1.33301 -211 -50.666 -211 -147.999c0 -42 15.667 -75.667 47 -101c29.333 -23.333 68 -35 116 -35c66 0 128.667 17.333 188 52v-143z" />
    <glyph glyph-name="zeta" unicode="&#x3b6;" horiz-adv-x="911" vert-adv-y="2457" 
d="M609 1359l-420.999 0.000976562v135h697l-559 -880c-50 -78.667 -75 -149.334 -75 -212.001c0 -52 13.333 -100.667 40 -146c48 -80 134.667 -120 260 -120h36c90.667 0 161.667 -22.333 213 -67c47.333 -40.667 71 -94 71 -160c0 -62.667 -18.667 -117 -56 -163
c-28 -34.667 -66 -71.667 -114 -111l-123 68c50 48 81 79.333 93 94c24.667 29.333 37 59 37 89c0 74 -47.667 112.333 -143 115l-66 1c-110 2.66699 -200.667 33.334 -272 92.001c-94.667 78 -142 179.333 -142 304c0 68 15 129 45 183
c5.33301 9.33301 17.666 29.666 36.999 60.999z" />
    <glyph glyph-name="eta" unicode="&#x3b7;" horiz-adv-x="960" vert-adv-y="2457" 
d="M139 851l146.001 0.000976562v-103c26.667 32.667 50.667 56.667 72 72c47.333 34 104.666 51 171.999 51c70 0 131 -18.667 183 -56c51.333 -36 84 -89 98 -159c6.66699 -32.667 10 -75.334 10 -128.001v-1007h-146v982c0 79.333 -9.33301 134.333 -28 165
c-28.667 47.333 -78.667 71 -150 71c-85.333 0 -144 -33.667 -176 -101c-23.333 -48 -35 -119 -35 -213v-425h-146v851z" />
    </font>
</defs>
</svg>
